<svg width="458" height="192" viewBox="0 0 458 192" fill="none" xmlns="http://www.w3.org/2000/svg">
<path d="M79.3932 83.3865C72.4153 83.3865 66.7571 89.0447 66.7571 96.0225C66.7571 103 72.4153 108.659 79.3932 108.659C86.371 108.659 92.0292 103 92.0292 96.0225C92.0292 89.0447 86.371 83.3865 79.3932 83.3865ZM81.7497 93.0327C81.641 93.3228 81.5999 93.6346 81.5999 93.9439V103.317H77.1864V93.9608C77.1864 93.6442 77.1453 93.3276 77.0366 93.0327C76.9302 92.7475 76.8746 92.4406 76.8795 92.1167C76.8988 90.7269 78.0952 89.5909 79.485 89.6393C80.8313 89.6876 81.9093 90.7946 81.9093 92.1529C81.9093 92.4623 81.8537 92.7596 81.7497 93.0327Z" fill="#5A5A5A"/>
<path d="M64.1993 94.7702C63.9721 103.657 70.5343 110.425 78.3509 110.937V126.962H70.2249V120.586C70.2249 120.03 69.9155 119.52 69.4225 119.262L67.31 118.155C66.7299 117.85 66.0218 117.959 65.5577 118.423L61.4295 122.551L50.9687 112.09L55.2057 107.8C55.6287 107.372 55.7543 106.729 55.5223 106.174L54.4371 103.568C54.205 103.01 53.6612 102.647 53.057 102.647H47.6985V87.8358H52.9168C53.4969 87.8358 54.0262 87.4999 54.2727 86.9729L55.225 84.933C55.4546 84.4399 55.399 83.8598 55.0776 83.42L51.7711 78.8881L61.9854 68.6738L66.9547 72.9447C67.4043 73.3314 68.0375 73.416 68.5717 73.1598L70.7277 72.1326C71.2473 71.8836 71.5809 71.3591 71.5809 70.7815V65L78.2445 65.0628V80.6138C69.7488 81.745 65.1009 87.3814 64.1945 94.7653L64.1993 94.7702Z" fill="#0E1934"/>
<path d="M158.779 116.42L97.6432 151.759V36.4436L158.407 71.043V56.4032C158.407 54.8467 157.573 53.4086 156.224 52.6351L91.8859 15.7493L84.1685 21.0594C82.9745 21.8812 82.259 23.2396 82.259 24.6898V81.1219C88.5094 82.3884 93.8195 87.3336 94.5591 95.068C94.7235 104.079 88.8405 109.592 82.3412 110.865V164.267C82.3412 165.441 82.9503 166.531 83.9534 167.148L90.8587 171.392C91.9222 172.045 93.2588 172.059 94.3368 171.431L156.736 134.941C157.88 134.274 158.588 133.056 158.602 131.731L158.784 116.42H158.779Z" fill="#0E1934"/>
<path d="M104.283 49.1783V139.277L115.708 132.296C117.081 131.458 117.92 129.964 117.92 128.354V73.7398L142.892 88.6648C144.052 89.3585 144.763 90.6129 144.763 91.964V115.518L156.091 109.492C157.474 108.757 158.339 107.319 158.339 105.753V82.5039C158.339 80.6718 157.351 78.9847 155.755 78.088L104.281 49.1783H104.283Z" fill="#5A5A5A"/>
<path d="M77.8827 163.094V146.431L45.8018 126.387C43.4549 124.92 42.0289 122.348 42.0289 119.581V67.1442C42.0289 63.8934 43.7715 60.8915 46.5946 59.2793L78.2525 41.2122V24.0564L30.0212 52.7752C27.8604 54.061 26.5383 56.3886 26.5383 58.9047V130.155C26.5383 132.282 27.6743 134.245 29.5185 135.304L77.8827 163.089V163.094Z" fill="#5A5A5A"/>
<path d="M83.0544 6C80.6229 6 78.6531 7.96986 78.6531 10.4014C78.6531 10.9887 78.7715 11.5494 78.9794 12.0618L18.7236 46.7941C17.4667 47.5192 16.6933 48.8582 16.6933 50.3084V131.375C14.9385 131.952 13.6696 133.603 13.6696 135.554C13.6696 137.985 15.6395 139.955 18.071 139.955C20.5025 139.955 22.4723 137.985 22.4723 135.554C22.4723 133.56 21.1454 131.875 19.3254 131.336V52.3339C19.3254 50.9006 20.0819 49.5713 21.317 48.8413L80.4102 13.9157C81.1474 14.4716 82.061 14.8027 83.0544 14.8027C85.4859 14.8027 87.4558 12.8329 87.4558 10.4014C87.4558 7.96986 85.4859 6 83.0544 6Z" fill="#0E1934"/>
<path d="M101.705 182.976C104.136 182.976 106.106 181.006 106.106 178.575C106.106 177.988 105.988 177.427 105.78 176.914L166.033 142.185C167.29 141.459 168.064 140.12 168.064 138.67V57.6016C169.818 57.0239 171.087 55.3731 171.087 53.4226C171.087 50.9911 169.117 49.0213 166.686 49.0213C164.254 49.0213 162.285 50.9911 162.285 53.4226C162.285 55.4166 163.611 57.1013 165.431 57.6403V136.64C165.431 138.073 164.675 139.403 163.44 140.132L104.349 175.058C103.612 174.502 102.698 174.171 101.705 174.171C99.2734 174.171 97.3035 176.141 97.3035 178.572C97.3035 181.004 99.2734 182.974 101.705 182.974V182.976Z" fill="#5A5A5A"/>
<path d="M200.978 88.7102C198.421 88.7102 196.053 88.2525 193.875 87.3371C191.697 86.4217 189.803 85.1591 188.194 83.5492C186.615 81.9393 185.368 80.0296 184.453 77.82C183.569 75.5788 183.127 73.1482 183.127 70.5282C183.127 67.9714 183.553 65.5881 184.406 63.3785C185.289 61.1689 186.505 59.2591 188.051 57.6493C189.598 56.0394 191.413 54.7768 193.497 53.8614C195.612 52.9459 197.916 52.4882 200.41 52.4882C203.219 52.4882 205.807 53.1353 208.175 54.4295C210.574 55.6922 212.61 57.6808 214.283 60.3955V66.3141C214.283 66.6614 214.093 66.835 213.715 66.835H209.311C208.964 66.835 208.79 66.6614 208.79 66.3141V62.5736C208.033 61.1531 206.944 60.1114 205.523 59.4485C204.134 58.7857 202.588 58.4542 200.883 58.4542C197.663 58.4542 195.012 59.559 192.928 61.7686C190.845 63.9467 189.803 66.7561 189.803 70.1968C189.803 73.7637 190.892 76.7625 193.07 79.1931C195.249 81.5921 197.947 82.7916 201.167 82.7916C203.819 82.7916 206.17 81.892 208.222 80.0927C208.443 79.9349 208.585 79.856 208.648 79.856C208.743 79.856 208.901 79.9191 209.122 80.0454L213.809 82.7916C214.093 82.981 214.125 83.1862 213.904 83.4071C210.369 86.9425 206.06 88.7102 200.978 88.7102ZM229.855 88.6155C228.088 88.6155 226.415 88.2841 224.836 87.6212C223.29 86.9583 221.932 86.0587 220.764 84.9223C219.597 83.7859 218.665 82.4444 217.971 80.8976C217.308 79.3509 216.977 77.7095 216.977 75.9733C216.977 74.2372 217.308 72.6116 217.971 71.0964C218.665 69.5497 219.597 68.2081 220.764 67.0717C221.932 65.9354 223.29 65.0357 224.836 64.3728C226.415 63.71 228.088 63.3785 229.855 63.3785C231.623 63.3785 233.28 63.71 234.827 64.3728C236.405 65.0357 237.763 65.9354 238.899 67.0717C240.067 68.2081 240.982 69.5497 241.645 71.0964C242.34 72.6116 242.687 74.2372 242.687 75.9733C242.687 77.7095 242.34 79.3509 241.645 80.8976C240.982 82.4444 240.067 83.7859 238.899 84.9223C237.763 86.0587 236.405 86.9583 234.827 87.6212C233.28 88.2841 231.623 88.6155 229.855 88.6155ZM229.855 68.9183C227.993 68.9183 226.399 69.6128 225.073 71.0017C223.779 72.359 223.132 74.0163 223.132 75.9733C223.132 77.9304 223.779 79.6034 225.073 80.9923C226.399 82.3497 227.993 83.0284 229.855 83.0284C231.749 83.0284 233.344 82.3497 234.638 80.9923C235.932 79.6034 236.579 77.9304 236.579 75.9733C236.579 74.0163 235.932 72.359 234.638 71.0017C233.344 69.6128 231.749 68.9183 229.855 68.9183ZM245.115 64.5149C245.115 64.2308 245.273 64.0887 245.589 64.0887H253.591C253.875 64.0887 254.048 64.2308 254.111 64.5149L254.585 66.9297C255.627 65.8249 256.905 64.9568 258.42 64.3255C259.935 63.6942 261.498 63.3785 263.108 63.3785C265.602 63.3785 267.448 64.1203 268.648 65.6039C269.879 67.0559 270.494 68.9973 270.494 71.4278V87.4318C270.494 87.8106 270.321 88 269.973 88H264.86C264.512 88 264.339 87.8106 264.339 87.4318V71.8066C264.339 69.9127 263.234 68.9657 261.024 68.9657C259.604 68.9657 258.215 69.4076 256.858 70.2915C255.532 71.1753 254.79 72.4695 254.632 74.1741V87.4318C254.632 87.8106 254.459 88 254.111 88H249.045C248.666 88 248.477 87.8106 248.477 87.4318V71.6172L248.335 68.7763H245.589C245.273 68.7763 245.115 68.6185 245.115 68.3028V64.5149ZM274.246 64.5149C274.246 64.2308 274.404 64.0887 274.719 64.0887H282.721C283.005 64.0887 283.179 64.2308 283.242 64.5149L283.716 66.9297C284.757 65.8249 286.036 64.9568 287.551 64.3255C289.066 63.6942 290.629 63.3785 292.239 63.3785C294.732 63.3785 296.579 64.1203 297.778 65.6039C299.009 67.0559 299.625 68.9973 299.625 71.4278V87.4318C299.625 87.8106 299.451 88 299.104 88H293.99C293.643 88 293.47 87.8106 293.47 87.4318V71.8066C293.47 69.9127 292.365 68.9657 290.155 68.9657C288.735 68.9657 287.346 69.4076 285.988 70.2915C284.663 71.1753 283.921 72.4695 283.763 74.1741V87.4318C283.763 87.8106 283.589 88 283.242 88H278.176C277.797 88 277.608 87.8106 277.608 87.4318V71.6172L277.466 68.7763H274.719C274.404 68.7763 274.246 68.6185 274.246 68.3028V64.5149ZM310.432 77.6306C310.589 79.2404 311.237 80.5504 312.373 81.5605C313.509 82.5391 314.835 83.0284 316.35 83.0284C318.465 83.0284 320.107 82.1445 321.275 80.3768C321.369 80.1874 321.464 80.0927 321.559 80.0927C321.685 80.0927 321.795 80.1243 321.89 80.1874L326.104 82.6496C326.357 82.839 326.404 83.0284 326.246 83.2177C325.11 84.9223 323.674 86.2639 321.937 87.2424C320.201 88.1894 318.307 88.6629 316.256 88.6629C312.846 88.6629 309.99 87.4476 307.685 85.017C305.413 82.5549 304.276 79.5087 304.276 75.8786C304.276 72.3117 305.413 69.3445 307.685 66.977C309.99 64.578 312.941 63.3785 316.54 63.3785C318.465 63.3785 320.154 63.7415 321.606 64.4675C323.09 65.1936 324.321 66.1879 325.299 67.4505C326.309 68.7132 327.067 70.181 327.572 71.854C328.109 73.527 328.377 75.2947 328.377 77.1571C328.377 77.4727 328.235 77.6306 327.951 77.6306H310.432ZM316.398 68.9657C314.946 68.9657 313.683 69.3918 312.61 70.2441C311.568 71.0964 310.874 72.2012 310.526 73.5585H322.174C321.859 72.2012 321.18 71.0964 320.138 70.2441C319.097 69.3918 317.85 68.9657 316.398 68.9657ZM344.708 88.6629C340.983 88.6629 337.937 87.4792 335.57 85.1117C333.202 82.7443 332.019 79.6981 332.019 75.9733C332.019 73.9847 332.366 72.217 333.06 70.6703C333.755 69.092 334.67 67.7662 335.807 66.6929C336.975 65.6197 338.3 64.799 339.784 64.2308C341.268 63.6626 342.783 63.3785 344.329 63.3785C346.255 63.3785 348.117 63.8204 349.917 64.7043C351.748 65.5881 353.326 66.977 354.652 68.871V73.6532C354.652 73.9689 354.494 74.1267 354.178 74.1267H350.39C350.106 74.1267 349.964 73.9689 349.964 73.6532V70.765C348.291 69.5339 346.508 68.9183 344.614 68.9183C342.814 68.9183 341.283 69.5181 340.021 70.7176C338.79 71.8855 338.174 73.5585 338.174 75.7366C338.174 77.9147 338.805 79.6824 340.068 81.0397C341.331 82.397 342.941 83.0757 344.898 83.0757C346.886 83.0757 348.48 82.5233 349.68 81.4185C349.838 81.2922 349.964 81.2291 350.059 81.2291C350.153 81.2291 350.264 81.2922 350.39 81.4185L354.604 84.2121C354.857 84.4015 354.873 84.6067 354.652 84.8276C353.515 86.0271 352.063 86.9741 350.295 87.6686C348.528 88.3314 346.665 88.6629 344.708 88.6629ZM357.253 69.1551C356.969 69.1551 356.827 68.9973 356.827 68.6816V64.5149C356.827 64.2308 356.969 64.0887 357.253 64.0887H360.71V57.3652C360.71 57.0811 360.867 56.939 361.183 56.939H366.439C366.755 56.939 366.912 57.0811 366.912 57.3652V64.0887H371.695C372.01 64.0887 372.168 64.2308 372.168 64.5149V68.6816C372.168 68.9973 372.01 69.1551 371.695 69.1551H366.912V79.6666C366.912 80.8029 367.07 81.7499 367.386 82.5075C367.733 83.2651 368.554 83.6439 369.848 83.6439C370.542 83.6439 371.205 83.565 371.837 83.4071C371.931 83.3756 372.026 83.3598 372.121 83.3598C372.247 83.3598 372.31 83.4861 372.31 83.7386V87.5265C372.31 87.8422 372.152 88.0316 371.837 88.0947C370.542 88.3472 369.248 88.4735 367.954 88.4735C365.334 88.4735 363.472 87.7633 362.367 86.3428C361.262 84.9223 360.71 82.6338 360.71 79.4772V69.1551H357.253ZM383.214 64.0887C383.498 64.0887 383.64 64.2308 383.64 64.5149V87.4318C383.64 87.8106 383.466 88 383.119 88H378.053C377.674 88 377.485 87.8106 377.485 87.4318V68.7763H374.596C374.281 68.7763 374.123 68.6185 374.123 68.3028V64.5149C374.123 64.2308 374.281 64.0887 374.596 64.0887H383.214ZM377.485 53.7667C377.485 53.451 377.642 53.2932 377.958 53.2932H383.214C383.498 53.2932 383.64 53.451 383.64 53.7667V59.4959C383.64 59.8115 383.498 59.9694 383.214 59.9694H377.958C377.642 59.9694 377.485 59.8115 377.485 59.4959V53.7667ZM387.486 64.5149C387.486 64.2308 387.644 64.0887 387.959 64.0887H395.961C396.245 64.0887 396.419 64.2308 396.482 64.5149L396.956 66.9297C397.997 65.8249 399.276 64.9568 400.791 64.3255C402.306 63.6942 403.869 63.3785 405.479 63.3785C407.972 63.3785 409.819 64.1203 411.018 65.6039C412.249 67.0559 412.865 68.9973 412.865 71.4278V87.4318C412.865 87.8106 412.691 88 412.344 88H407.23C406.883 88 406.71 87.8106 406.71 87.4318V71.8066C406.71 69.9127 405.605 68.9657 403.395 68.9657C401.975 68.9657 400.586 69.4076 399.228 70.2915C397.903 71.1753 397.161 72.4695 397.003 74.1741V87.4318C397.003 87.8106 396.829 88 396.482 88H391.416C391.037 88 390.848 87.8106 390.848 87.4318V71.6172L390.706 68.7763H387.959C387.644 68.7763 387.486 68.6185 387.486 68.3028V64.5149ZM420.689 95.055C420.531 94.8025 420.578 94.5973 420.831 94.4395L424.903 92.0247C425.061 91.93 425.171 91.8826 425.234 91.8826C425.329 91.8826 425.455 91.9615 425.613 92.1194C426.939 93.4451 428.628 94.108 430.679 94.108C432.384 94.108 433.836 93.5556 435.035 92.4508C436.235 91.346 436.835 89.7046 436.835 87.5265V85.1591C435.793 86.2639 434.578 87.1319 433.189 87.7633C431.831 88.363 430.395 88.6629 428.88 88.6629C427.302 88.6629 425.818 88.3314 424.429 87.6686C423.072 87.0057 421.872 86.106 420.831 84.9697C419.821 83.8333 419.016 82.4917 418.416 80.945C417.848 79.3983 417.564 77.7568 417.564 76.0207C417.564 74.253 417.848 72.6116 418.416 71.0964C419.016 69.5497 419.821 68.2081 420.831 67.0717C421.872 65.9354 423.072 65.0515 424.429 64.4202C425.818 63.7573 427.302 63.4259 428.88 63.4259C430.395 63.4259 431.831 63.7415 433.189 64.3728C434.578 64.9726 435.793 65.8249 436.835 66.9297L437.308 64.5149C437.34 64.2308 437.513 64.0887 437.829 64.0887H445.784C446.099 64.0887 446.257 64.2308 446.257 64.5149V68.3028C446.257 68.6185 446.099 68.7763 445.784 68.7763H442.895V87.2898C442.895 91.204 441.712 94.2027 439.344 96.2861C436.977 98.401 434.12 99.4585 430.774 99.4585C428.691 99.4585 426.765 99.0481 424.997 98.2274C423.261 97.4382 421.825 96.3808 420.689 95.055ZM430.301 68.8236C428.47 68.8236 426.891 69.4707 425.566 70.765C424.271 72.0276 423.624 73.7953 423.624 76.068C423.624 78.3408 424.271 80.1085 425.566 81.3711C426.891 82.6338 428.454 83.2651 430.253 83.2651C432.273 83.2651 433.883 82.5706 435.083 81.1817C436.282 79.7613 436.882 78.0409 436.882 76.0207C436.882 74.032 436.282 72.3433 435.083 70.9544C433.915 69.5339 432.321 68.8236 430.301 68.8236Z" fill="#0E1934"/>
<path d="M194.982 132.493C193.207 132.493 191.564 132.175 190.052 131.54C188.54 130.904 187.225 130.028 186.108 128.911C185.012 127.793 184.147 126.467 183.512 124.934C182.898 123.378 182.591 121.691 182.591 119.872C182.591 118.098 182.887 116.443 183.479 114.909C184.092 113.376 184.936 112.05 186.009 110.933C187.083 109.815 188.343 108.939 189.789 108.303C191.257 107.668 192.857 107.35 194.588 107.35C196.538 107.35 198.334 107.799 199.978 108.698C201.643 109.574 203.056 110.955 204.217 112.839V116.947C204.217 117.188 204.086 117.309 203.823 117.309H200.766C200.525 117.309 200.405 117.188 200.405 116.947V114.351C199.879 113.365 199.123 112.642 198.137 112.182C197.173 111.721 196.099 111.491 194.916 111.491C192.681 111.491 190.841 112.258 189.395 113.792C187.949 115.304 187.225 117.254 187.225 119.642C187.225 122.118 187.981 124.2 189.493 125.887C191.005 127.552 192.878 128.385 195.113 128.385C196.954 128.385 198.586 127.76 200.01 126.511C200.164 126.402 200.262 126.347 200.306 126.347C200.372 126.347 200.482 126.391 200.635 126.478L203.889 128.385C204.086 128.516 204.108 128.659 203.954 128.812C201.5 131.266 198.51 132.493 194.982 132.493ZM205.746 118.656C205.549 118.656 205.45 118.547 205.45 118.328V115.698C205.45 115.501 205.549 115.402 205.746 115.402H210.315C210.556 115.402 210.72 115.512 210.808 115.731L215.376 127.234L219.912 115.731C219.999 115.512 220.174 115.402 220.437 115.402H223.954C224.217 115.402 224.294 115.512 224.184 115.731L214.291 139.132C214.182 139.351 214.007 139.461 213.766 139.461H208.901C208.704 139.461 208.606 139.362 208.606 139.165V136.536C208.606 136.338 208.704 136.24 208.901 136.24H211.728L213.47 131.934L207.784 118.656H205.746ZM225.009 106.693C225.009 106.496 225.119 106.397 225.338 106.397H231.287C231.506 106.397 231.615 106.496 231.615 106.693V117.342C233.105 115.742 234.935 114.942 237.104 114.942C238.2 114.942 239.218 115.172 240.161 115.633C241.103 116.071 241.913 116.684 242.593 117.473C243.294 118.262 243.842 119.193 244.236 120.267C244.652 121.318 244.86 122.458 244.86 123.685C244.86 126.161 244.115 128.242 242.626 129.929C241.136 131.617 239.295 132.46 237.104 132.46C234.935 132.46 233.105 131.66 231.615 130.061L231.32 131.671C231.298 131.89 231.177 132 230.958 132H227.704C227.441 132 227.31 131.869 227.31 131.606V109.618H225.338C225.119 109.618 225.009 109.519 225.009 109.322V106.693ZM231.55 123.718C231.55 125.076 231.988 126.237 232.864 127.202C233.741 128.166 234.814 128.648 236.085 128.648C237.334 128.648 238.386 128.177 239.24 127.234C240.117 126.27 240.555 125.098 240.555 123.718C240.555 122.315 240.117 121.143 239.24 120.201C238.386 119.259 237.334 118.788 236.085 118.788C234.814 118.788 233.741 119.27 232.864 120.234C231.988 121.176 231.55 122.337 231.55 123.718ZM251.667 124.802C251.777 125.92 252.226 126.829 253.015 127.53C253.804 128.209 254.724 128.549 255.776 128.549C257.244 128.549 258.383 127.936 259.194 126.709C259.26 126.577 259.325 126.511 259.391 126.511C259.479 126.511 259.555 126.533 259.621 126.577L262.546 128.286C262.721 128.418 262.754 128.549 262.645 128.68C261.856 129.864 260.859 130.795 259.654 131.474C258.449 132.131 257.134 132.46 255.71 132.46C253.344 132.46 251.361 131.617 249.761 129.929C248.184 128.22 247.395 126.106 247.395 123.586C247.395 121.11 248.184 119.051 249.761 117.407C251.361 115.742 253.409 114.909 255.907 114.909C257.244 114.909 258.416 115.161 259.424 115.665C260.454 116.169 261.308 116.86 261.987 117.736C262.689 118.612 263.214 119.631 263.565 120.793C263.938 121.954 264.124 123.181 264.124 124.474C264.124 124.693 264.025 124.802 263.828 124.802H251.667ZM255.809 118.788C254.801 118.788 253.924 119.084 253.179 119.675C252.456 120.267 251.974 121.034 251.733 121.976H259.818C259.599 121.034 259.128 120.267 258.405 119.675C257.682 119.084 256.816 118.788 255.809 118.788ZM266.06 115.698C266.06 115.501 266.17 115.402 266.389 115.402H271.91C272.107 115.402 272.228 115.501 272.272 115.698L272.6 117.374C274.068 115.731 275.953 114.909 278.253 114.909C278.451 114.909 278.549 115.019 278.549 115.238V120.858C278.549 121.077 278.451 121.187 278.253 121.187H275.624C275.427 121.187 275.328 121.077 275.328 120.858V118.985C274.627 119.226 274.036 119.631 273.554 120.201C273.072 120.749 272.776 121.483 272.666 122.403V131.606C272.666 131.869 272.546 132 272.305 132H268.788C268.525 132 268.394 131.869 268.394 131.606V118.656H266.389C266.17 118.656 266.06 118.547 266.06 118.328V115.698ZM289.395 108.303C289.395 108.04 289.516 107.909 289.757 107.909H296.988C297.25 107.909 297.448 108.019 297.579 108.238L308.688 125.131V108.303C308.688 108.04 308.808 107.909 309.049 107.909H312.928C313.169 107.909 313.289 108.04 313.289 108.303V131.606C313.289 131.869 313.169 132 312.928 132H308.491C308.25 132 308.053 131.89 307.899 131.671L296.823 114.778V131.606C296.823 131.869 296.692 132 296.429 132H292.583C292.321 132 292.189 131.869 292.189 131.606V111.327H289.757C289.516 111.327 289.395 111.196 289.395 110.933V108.303ZM321.38 124.802C321.49 125.92 321.939 126.829 322.728 127.53C323.516 128.209 324.437 128.549 325.488 128.549C326.956 128.549 328.096 127.936 328.906 126.709C328.972 126.577 329.038 126.511 329.104 126.511C329.191 126.511 329.268 126.533 329.334 126.577L332.259 128.286C332.434 128.418 332.467 128.549 332.357 128.68C331.569 129.864 330.572 130.795 329.367 131.474C328.161 132.131 326.847 132.46 325.423 132.46C323.056 132.46 321.073 131.617 319.474 129.929C317.896 128.22 317.107 126.106 317.107 123.586C317.107 121.11 317.896 119.051 319.474 117.407C321.073 115.742 323.122 114.909 325.62 114.909C326.956 114.909 328.129 115.161 329.136 115.665C330.166 116.169 331.021 116.86 331.7 117.736C332.401 118.612 332.927 119.631 333.278 120.793C333.65 121.954 333.836 123.181 333.836 124.474C333.836 124.693 333.738 124.802 333.541 124.802H321.38ZM325.521 118.788C324.513 118.788 323.637 119.084 322.892 119.675C322.169 120.267 321.687 121.034 321.446 121.976H329.531C329.312 121.034 328.841 120.267 328.118 119.675C327.395 119.084 326.529 118.788 325.521 118.788ZM336.003 118.919C335.806 118.919 335.707 118.81 335.707 118.591V115.698C335.707 115.501 335.806 115.402 336.003 115.402H338.402V110.735C338.402 110.538 338.512 110.44 338.731 110.44H342.379C342.598 110.44 342.707 110.538 342.707 110.735V115.402H346.027C346.246 115.402 346.356 115.501 346.356 115.698V118.591C346.356 118.81 346.246 118.919 346.027 118.919H342.707V126.216C342.707 127.004 342.817 127.662 343.036 128.188C343.277 128.713 343.847 128.976 344.745 128.976C345.227 128.976 345.687 128.922 346.126 128.812C346.191 128.79 346.257 128.779 346.323 128.779C346.41 128.779 346.454 128.867 346.454 129.042V131.671C346.454 131.89 346.345 132.022 346.126 132.066C345.227 132.241 344.329 132.329 343.431 132.329C341.612 132.329 340.319 131.836 339.552 130.85C338.785 129.864 338.402 128.275 338.402 126.084V118.919H336.003ZM347.252 115.698C347.252 115.501 347.351 115.402 347.548 115.402H352.314C352.555 115.402 352.708 115.512 352.774 115.731L356.192 126.446L359.643 115.698C359.709 115.501 359.851 115.402 360.07 115.402H363.39C363.609 115.402 363.751 115.501 363.817 115.698L367.366 126.709L370.85 115.731C370.916 115.512 371.08 115.402 371.343 115.402H374.597C374.86 115.402 374.948 115.512 374.86 115.731L369.306 131.704C369.24 131.901 369.097 132 368.878 132H365.723C365.526 132 365.395 131.901 365.329 131.704L361.681 121.121L358.032 131.704C357.967 131.901 357.835 132 357.638 132H354.483C354.286 132 354.154 131.901 354.088 131.704L349.553 118.656H347.548C347.351 118.656 347.252 118.547 347.252 118.328V115.698ZM385.328 132.427C384.101 132.427 382.94 132.197 381.845 131.737C380.771 131.277 379.829 130.652 379.018 129.864C378.207 129.075 377.561 128.144 377.079 127.07C376.619 125.996 376.389 124.857 376.389 123.652C376.389 122.447 376.619 121.318 377.079 120.267C377.561 119.193 378.207 118.262 379.018 117.473C379.829 116.684 380.771 116.06 381.845 115.6C382.94 115.14 384.101 114.909 385.328 114.909C386.555 114.909 387.706 115.14 388.779 115.6C389.875 116.06 390.817 116.684 391.606 117.473C392.417 118.262 393.052 119.193 393.512 120.267C393.994 121.318 394.235 122.447 394.235 123.652C394.235 124.857 393.994 125.996 393.512 127.07C393.052 128.144 392.417 129.075 391.606 129.864C390.817 130.652 389.875 131.277 388.779 131.737C387.706 132.197 386.555 132.427 385.328 132.427ZM385.328 118.755C384.036 118.755 382.929 119.237 382.009 120.201C381.111 121.143 380.661 122.293 380.661 123.652C380.661 125.01 381.111 126.172 382.009 127.136C382.929 128.078 384.036 128.549 385.328 128.549C386.643 128.549 387.75 128.078 388.648 127.136C389.546 126.172 389.995 125.01 389.995 123.652C389.995 122.293 389.546 121.143 388.648 120.201C387.75 119.237 386.643 118.755 385.328 118.755ZM395.921 115.698C395.921 115.501 396.03 115.402 396.249 115.402H401.771C401.968 115.402 402.089 115.501 402.132 115.698L402.461 117.374C403.929 115.731 405.813 114.909 408.114 114.909C408.311 114.909 408.41 115.019 408.41 115.238V120.858C408.41 121.077 408.311 121.187 408.114 121.187H405.485C405.288 121.187 405.189 121.077 405.189 120.858V118.985C404.488 119.226 403.896 119.631 403.414 120.201C402.932 120.749 402.636 121.483 402.527 122.403V131.606C402.527 131.869 402.406 132 402.165 132H398.649C398.386 132 398.254 131.869 398.254 131.606V118.656H396.249C396.03 118.656 395.921 118.547 395.921 118.328V115.698ZM409.497 106.693C409.497 106.496 409.607 106.397 409.826 106.397H415.742C415.983 106.397 416.103 106.518 416.103 106.759V121.68L422.184 115.665C422.359 115.49 422.578 115.402 422.841 115.402H426.982C427.245 115.402 427.289 115.49 427.114 115.665L419.784 122.995L427.311 131.737C427.464 131.912 427.409 132 427.147 132H423.005C422.742 132 422.534 131.912 422.381 131.737L416.103 124.506V131.606C416.103 131.869 415.983 132 415.742 132H412.225C411.962 132 411.831 131.869 411.831 131.606V109.618H409.826C409.607 109.618 409.497 109.519 409.497 109.322V106.693ZM430.578 127.662C430.666 127.574 430.742 127.53 430.808 127.53C430.896 127.53 430.994 127.585 431.104 127.695C432.046 128.593 433.35 129.042 435.015 129.042C435.869 129.042 436.549 128.889 437.053 128.582C437.579 128.275 437.841 127.859 437.841 127.333C437.841 126.785 437.546 126.369 436.954 126.084C436.362 125.777 435.596 125.492 434.653 125.23C433.032 124.769 431.63 124.2 430.447 123.52C429.263 122.841 428.672 121.691 428.672 120.07C428.672 118.536 429.23 117.298 430.348 116.356C431.465 115.392 432.901 114.909 434.653 114.909C435.946 114.909 437.173 115.161 438.334 115.665C439.496 116.169 440.416 116.772 441.095 117.473V119.938C441.095 120.157 440.997 120.267 440.799 120.267H438.17C437.973 120.267 437.874 120.157 437.874 119.938V119.149C436.888 118.601 435.935 118.328 435.015 118.328C434.401 118.328 433.887 118.459 433.47 118.722C433.076 118.963 432.879 119.335 432.879 119.839C432.879 120.475 433.196 120.957 433.832 121.286C434.489 121.592 435.333 121.899 436.362 122.206C437.852 122.622 439.178 123.159 440.339 123.816C441.522 124.474 442.114 125.613 442.114 127.234C442.114 128.834 441.49 130.105 440.241 131.047C438.992 131.989 437.316 132.46 435.212 132.46C433.81 132.46 432.506 132.252 431.301 131.836C430.096 131.397 429.154 130.795 428.475 130.028C428.277 129.853 428.288 129.677 428.507 129.502L430.578 127.662Z" fill="#5A5A5A"/>
</svg>
