<svg width="73" height="73" viewBox="0 0 73 73" fill="none" xmlns="http://www.w3.org/2000/svg">
<g filter="url(#filter0_ii_29052_60420)">
<rect y="73" width="73" height="73" rx="12" transform="rotate(-90 0 73)" fill="black"/>
<g clip-path="url(#clip0_29052_60420)">
<path d="M20.9913 39.6961C20.9914 39.613 20.9761 39.5306 20.9463 39.4531C20.8818 39.2825 20.7522 39.1446 20.586 39.0696C20.4198 38.9946 20.2307 38.9887 20.0601 39.0532L15.4443 40.7999C15.3599 40.8318 15.2825 40.8801 15.2167 40.942C15.1509 41.0038 15.0979 41.078 15.0608 41.1604C15.0237 41.2427 15.0031 41.3315 15.0003 41.4218C14.9975 41.5121 15.0125 41.602 15.0445 41.6864C15.0765 41.7709 15.1247 41.8483 15.1866 41.9141C15.2485 41.9799 15.3227 42.0328 15.405 42.07C15.4873 42.1071 15.5761 42.1276 15.6664 42.1304C15.7567 42.1332 15.8466 42.1182 15.9311 42.0863L20.5469 40.3393C20.6775 40.2898 20.7899 40.2018 20.8693 40.0869C20.9487 39.972 20.9912 39.8357 20.9913 39.6961Z" fill="#8C8C8C"/>
<path d="M20.9836 34.2872C20.9835 34.148 20.9412 34.0121 20.8622 33.8974C20.7833 33.7828 20.6715 33.6947 20.5414 33.645L15.9317 31.8799C15.8472 31.8466 15.7569 31.8304 15.666 31.8322C15.5752 31.834 15.4856 31.8538 15.4025 31.8904C15.3194 31.927 15.2443 31.9798 15.1817 32.0456C15.119 32.1114 15.0701 32.189 15.0376 32.2738C15.0051 32.3587 14.9898 32.4491 14.9925 32.5399C14.9952 32.6307 15.0158 32.7201 15.0533 32.8029C15.0907 32.8857 15.1442 32.9602 15.2106 33.0222C15.2771 33.0842 15.3551 33.1324 15.4403 33.164L20.05 34.9291C20.1542 34.9688 20.2664 34.9827 20.3771 34.9694C20.4878 34.9562 20.5936 34.9163 20.6854 34.8531C20.7773 34.7899 20.8524 34.7054 20.9043 34.6068C20.9563 34.5081 20.9835 34.3986 20.9836 34.2872Z" fill="#8C8C8C"/>
<path d="M35.5963 25.9644C35.5964 25.8439 35.5647 25.7255 35.5043 25.6212L33.4281 22.0256C33.3795 21.9415 33.3137 21.8687 33.235 21.8118C33.1562 21.755 33.0663 21.7155 32.9712 21.696L26.9824 20.4633C26.8038 20.4266 26.6179 20.4623 26.4656 20.5626C26.3134 20.6628 26.2071 20.8195 26.1704 20.9981C26.1336 21.1767 26.1693 21.3626 26.2696 21.5149C26.3699 21.6672 26.5265 21.7734 26.7051 21.8102L32.3915 22.9804L34.3133 26.3087C34.389 26.4399 34.5058 26.5424 34.6457 26.6004C34.7856 26.6583 34.9408 26.6685 35.087 26.6292C35.2333 26.5899 35.3625 26.5035 35.4546 26.3833C35.5467 26.2631 35.5965 26.1158 35.5963 25.9644Z" fill="#8C8C8C"/>
<path d="M42.9949 24.4457V18.756C42.9949 18.6444 42.9677 18.5345 42.9157 18.4358C42.8637 18.337 42.7885 18.2525 42.6964 18.1894L40.5007 16.6814C40.4263 16.6284 40.3422 16.5907 40.2531 16.5706C40.164 16.5505 40.0719 16.5483 39.982 16.5642C39.892 16.5801 39.8062 16.6137 39.7294 16.6631C39.6526 16.7126 39.5865 16.7768 39.5348 16.8521C39.4831 16.9273 39.4469 17.0121 39.4284 17.1015C39.4098 17.1909 39.4093 17.2832 39.4268 17.3728C39.4442 17.4624 39.4794 17.5476 39.5302 17.6235C39.5809 17.6994 39.6463 17.7644 39.7225 17.8148L41.62 19.1179V24.446C41.62 24.6284 41.6924 24.8032 41.8214 24.9322C41.9503 25.0611 42.1252 25.1335 42.3075 25.1335C42.4898 25.1335 42.6647 25.0611 42.7936 24.9322C42.9226 24.8032 42.9949 24.628 42.9949 24.4457Z" fill="#8C8C8C"/>
<path d="M58.9961 21.137C58.9961 21.0291 58.9706 20.9226 58.9218 20.8263C58.873 20.73 58.8022 20.6465 58.7152 20.5826C58.6281 20.5187 58.5273 20.4762 58.4208 20.4585C58.3142 20.4408 58.2051 20.4484 58.102 20.4807L50.5516 22.8558C50.4494 22.888 50.356 22.9437 50.2791 23.0184C50.2022 23.0931 50.1438 23.1848 50.1085 23.2861L49.0615 26.3017C49.0017 26.474 49.0127 26.663 49.0923 26.8271C49.1718 26.9913 49.3133 27.1171 49.4856 27.1769C49.6579 27.2368 49.8469 27.2257 50.0111 27.1461C50.1752 27.0666 50.301 26.9251 50.3609 26.7528L51.2944 24.0639L58.5145 21.7927C58.6541 21.7488 58.776 21.6616 58.8626 21.5437C58.9492 21.4258 58.996 21.2833 58.9961 21.137Z" fill="#8C8C8C"/>
<path d="M35.5963 48.037C35.5965 47.8855 35.5467 47.7383 35.4546 47.6181C35.3625 47.4978 35.2333 47.4114 35.087 47.3721C34.9408 47.3329 34.7856 47.343 34.6457 47.401C34.5058 47.4589 34.389 47.5614 34.3133 47.6926L32.3915 51.0206L26.7051 52.1908C26.6167 52.209 26.5327 52.2445 26.458 52.2951C26.3833 52.3458 26.3192 52.4107 26.2696 52.4861C26.2199 52.5615 26.1856 52.646 26.1686 52.7346C26.1516 52.8233 26.1522 52.9144 26.1704 53.0029C26.1886 53.0913 26.224 53.1753 26.2747 53.25C26.3253 53.3248 26.3902 53.3888 26.4656 53.4384C26.541 53.4881 26.6255 53.5224 26.7142 53.5394C26.8028 53.5565 26.894 53.5559 26.9824 53.5376L32.9712 52.305C33.0663 52.2853 33.1562 52.2458 33.2349 52.189C33.3136 52.1322 33.3795 52.0594 33.4281 51.9754L35.5043 48.3797C35.5646 48.2756 35.5964 48.1573 35.5963 48.037Z" fill="#8C8C8C"/>
<path d="M42.9962 55.2452V49.5552C42.9962 49.3728 42.9238 49.198 42.7949 49.069C42.6659 48.9401 42.4911 48.8677 42.3087 48.8677C42.1264 48.8677 41.9515 48.9401 41.8226 49.069C41.6937 49.198 41.6212 49.3728 41.6212 49.5552V54.8833L39.7237 56.1858C39.6473 56.2361 39.5817 56.3011 39.5308 56.377C39.4798 56.4529 39.4445 56.5382 39.4269 56.6279C39.4093 56.7177 39.4098 56.81 39.4283 56.8995C39.4469 56.9891 39.4831 57.074 39.5348 57.1494C39.5866 57.2248 39.6528 57.289 39.7298 57.3385C39.8067 57.3879 39.8927 57.4216 39.9827 57.4374C40.0728 57.4532 40.1651 57.4508 40.2542 57.4305C40.3434 57.4102 40.4276 57.3724 40.5019 57.3191L42.6977 55.8118C42.7896 55.7487 42.8649 55.6641 42.9169 55.5654C42.9689 55.4667 42.9961 55.3568 42.9962 55.2452Z" fill="#8C8C8C"/>
<path d="M58.9962 52.8644C58.9961 52.7181 58.9494 52.5757 58.8629 52.4577C58.7763 52.3398 58.6545 52.2525 58.5149 52.2085L51.2941 49.9372L50.3609 47.2483C50.301 47.076 50.1752 46.9345 50.0111 46.855C49.8469 46.7754 49.6579 46.7644 49.4856 46.8242C49.3133 46.884 49.1718 47.0098 49.0923 47.174C49.0127 47.3381 49.0017 47.5271 49.0615 47.6994L50.1085 50.7147C50.1437 50.816 50.2021 50.9077 50.279 50.9824C50.356 51.0571 50.4493 51.1128 50.5516 51.145L58.1021 53.5204C58.2051 53.5526 58.3143 53.5602 58.4208 53.5425C58.5272 53.5249 58.6281 53.4824 58.7151 53.4185C58.8022 53.3547 58.873 53.2713 58.9218 53.175C58.9707 53.0788 58.996 52.9724 58.9962 52.8644Z" fill="#8C8C8C"/>
<path d="M25.6375 42.9677C26.7077 42.9684 27.758 42.6785 28.6763 42.1289V39.1864C27.758 39.736 26.7077 40.0259 25.6375 40.0252C24.306 40.0237 23.0129 39.5789 21.9623 38.761C20.9116 37.9431 20.1631 36.7987 19.835 35.5083C19.716 35.992 19.656 36.4883 19.6563 36.9864C19.6563 38.5728 20.2864 40.0941 21.4081 41.2158C22.5298 42.3375 24.0512 42.9677 25.6375 42.9677Z" fill="#8C8C8C"/>
<path d="M25.6306 40.0259C26.7008 40.0266 27.7511 39.7367 28.6694 39.1871L28.6831 31.8446C27.761 31.2923 26.7055 31.0023 25.6306 31.0059C24.39 31.005 23.18 31.3904 22.1685 32.1087C21.157 32.827 20.3942 33.8424 19.9863 35.014C19.9244 35.179 19.8762 35.344 19.8281 35.509C20.1563 36.7994 20.9047 37.9439 21.9554 38.7617C23.0061 39.5796 24.2991 40.0244 25.6306 40.0259Z" fill="#8C8C8C"/>
<path d="M41.7838 49.5611C49.7175 49.5611 56.1525 43.9373 56.1525 37.0005C56.1534 36.5128 56.1189 36.0257 56.0494 35.543C55.2175 41.7855 49.1469 46.6255 41.7838 46.6255C34.4275 46.6255 28.3569 41.7855 27.525 35.543C27.4555 36.0257 27.421 36.5128 27.4219 37.0005C27.4219 43.9373 33.8569 49.5611 41.7838 49.5611Z" fill="url(#paint0_linear_29052_60420)" fill-opacity="0.5"/>
<path d="M41.7822 46.6256C49.1453 46.6256 55.2159 41.7856 56.0478 35.5431C56.0272 35.3574 55.9997 35.1718 55.9653 34.9862C55.8966 34.6699 55.8209 34.3606 55.7384 34.0443C54.2328 28.5306 48.5472 24.4399 41.7822 24.4399C35.0241 24.4399 29.3384 28.5306 27.8328 34.0443C27.7503 34.3606 27.6747 34.6699 27.6059 34.9862C27.5716 35.1718 27.5441 35.3574 27.5234 35.5431C28.3553 41.7856 34.4259 46.6256 41.7822 46.6256Z" fill="url(#paint1_linear_29052_60420)"/>
<path d="M56.151 36.9976C56.151 36.8152 56.0786 36.6404 55.9497 36.5114C55.8207 36.3825 55.6459 36.3101 55.4635 36.3101H33.4453C33.355 36.3101 33.2656 36.3278 33.1822 36.3624C33.0988 36.3969 33.023 36.4476 32.9592 36.5114C32.8953 36.5753 32.8447 36.6511 32.8101 36.7345C32.7756 36.8179 32.7578 36.9073 32.7578 36.9976C32.7578 37.0878 32.7756 37.1772 32.8101 37.2607C32.8447 37.3441 32.8953 37.4199 32.9592 37.4837C33.023 37.5475 33.0988 37.5982 33.1822 37.6327C33.2656 37.6673 33.355 37.6851 33.4453 37.6851H55.4635C55.6459 37.6851 55.8207 37.6126 55.9497 37.4837C56.0786 37.3548 56.151 37.1799 56.151 36.9976Z" fill="#8C8C8C"/>
</g>
</g>
<defs>
<filter id="filter0_ii_29052_60420" x="-3" y="-2" width="79" height="77" filterUnits="userSpaceOnUse" color-interpolation-filters="sRGB">
<feFlood flood-opacity="0" result="BackgroundImageFix"/>
<feBlend mode="normal" in="SourceGraphic" in2="BackgroundImageFix" result="shape"/>
<feColorMatrix in="SourceAlpha" type="matrix" values="0 0 0 0 0 0 0 0 0 0 0 0 0 0 0 0 0 0 127 0" result="hardAlpha"/>
<feOffset dx="-3" dy="-2"/>
<feGaussianBlur stdDeviation="16"/>
<feComposite in2="hardAlpha" operator="arithmetic" k2="-1" k3="1"/>
<feColorMatrix type="matrix" values="0 0 0 0 1 0 0 0 0 1 0 0 0 0 1 0 0 0 0.12 0"/>
<feBlend mode="normal" in2="shape" result="effect1_innerShadow_29052_60420"/>
<feColorMatrix in="SourceAlpha" type="matrix" values="0 0 0 0 0 0 0 0 0 0 0 0 0 0 0 0 0 0 127 0" result="hardAlpha"/>
<feOffset dx="3" dy="2"/>
<feGaussianBlur stdDeviation="16"/>
<feComposite in2="hardAlpha" operator="arithmetic" k2="-1" k3="1"/>
<feColorMatrix type="matrix" values="0 0 0 0 1 0 0 0 0 1 0 0 0 0 1 0 0 0 0.12 0"/>
<feBlend mode="normal" in2="effect1_innerShadow_29052_60420" result="effect2_innerShadow_29052_60420"/>
</filter>
<linearGradient id="paint0_linear_29052_60420" x1="41.7872" y1="35.543" x2="41.7872" y2="49.5611" gradientUnits="userSpaceOnUse">
<stop stop-color="#FF00FF"/>
<stop offset="1" stop-color="#FF00FF"/>
</linearGradient>
<linearGradient id="paint1_linear_29052_60420" x1="41.7856" y1="24.4399" x2="41.7856" y2="46.6256" gradientUnits="userSpaceOnUse">
<stop stop-color="#FF00FF"/>
<stop offset="1" stop-color="#5C015C"/>
</linearGradient>
<clipPath id="clip0_29052_60420">
<rect width="44" height="44" fill="white" transform="matrix(0 1 1 0 15 15)"/>
</clipPath>
</defs>
</svg>
