<svg width="43" height="43" viewBox="0 0 43 43" fill="none" xmlns="http://www.w3.org/2000/svg">
<g filter="url(#filter0_ii_3597_78711)">
<rect width="42.544" height="42.544" rx="6.99353" fill="black"/>
<g clip-path="url(#clip0_3597_78711)">
<path d="M20.2869 13.1079C20.3354 13.108 20.3834 13.0991 20.4286 13.0817C20.528 13.0441 20.6083 12.9686 20.652 12.8717C20.6957 12.7749 20.6992 12.6646 20.6616 12.5652L19.6437 9.87516C19.625 9.82593 19.5969 9.78086 19.5608 9.74251C19.5248 9.70416 19.4816 9.67328 19.4336 9.65164C19.3856 9.63001 19.3338 9.61803 19.2812 9.6164C19.2286 9.61477 19.1762 9.62352 19.127 9.64215C19.0777 9.66077 19.0327 9.68891 18.9943 9.72496C18.956 9.76101 18.9251 9.80425 18.9035 9.85223C18.8818 9.90021 18.8698 9.95198 18.8682 10.0046C18.8666 10.0572 18.8753 10.1096 18.894 10.1588L19.9121 12.8489C19.9409 12.925 19.9922 12.9905 20.0592 13.0368C20.1261 13.0831 20.2056 13.1079 20.2869 13.1079Z" fill="#BFBFBF"/>
<path d="M23.4363 13.105C23.5175 13.105 23.5967 13.0803 23.6635 13.0343C23.7303 12.9883 23.7816 12.9231 23.8106 12.8474L24.8393 10.1608C24.8587 10.1116 24.8682 10.0589 24.8671 10.006C24.8661 9.95306 24.8545 9.90086 24.8332 9.85241C24.8118 9.80395 24.7811 9.76021 24.7427 9.72371C24.7044 9.68721 24.6592 9.65867 24.6097 9.63975C24.5603 9.62082 24.5076 9.61189 24.4546 9.61346C24.4017 9.61503 24.3496 9.62707 24.3014 9.64889C24.2531 9.67071 24.2097 9.70188 24.1736 9.74059C24.1375 9.7793 24.1094 9.82479 24.0909 9.87442L23.0622 12.561C23.0391 12.6217 23.031 12.6871 23.0387 12.7516C23.0464 12.8161 23.0697 12.8777 23.1065 12.9313C23.1433 12.9848 23.1926 13.0286 23.2501 13.0588C23.3076 13.0891 23.3714 13.105 23.4363 13.105Z" fill="#BFBFBF"/>
<path d="M28.2858 21.6227C28.356 21.6228 28.425 21.6043 28.4858 21.5691L30.5813 20.3591C30.6303 20.3308 30.6728 20.2924 30.7059 20.2465C30.739 20.2006 30.762 20.1483 30.7734 20.0928L31.4918 16.6026C31.5132 16.4985 31.4924 16.3902 31.434 16.3014C31.3755 16.2127 31.2842 16.1508 31.1801 16.1293C31.076 16.1079 30.9677 16.1287 30.8789 16.1871C30.7902 16.2456 30.7283 16.3369 30.7069 16.441L30.0249 19.7549L28.0851 20.875C28.0087 20.9191 27.9489 20.9872 27.9151 21.0687C27.8814 21.1503 27.8755 21.2407 27.8983 21.3259C27.9212 21.4111 27.9716 21.4864 28.0417 21.5401C28.1117 21.5938 28.1975 21.6228 28.2858 21.6227Z" fill="#BFBFBF"/>
<path d="M29.174 25.9316H32.4899C32.555 25.9316 32.619 25.9158 32.6766 25.8855C32.7341 25.8552 32.7834 25.8113 32.8202 25.7577L33.699 24.478C33.7299 24.4347 33.7519 24.3856 33.7636 24.3337C33.7753 24.2818 33.7766 24.2281 33.7673 24.1757C33.7581 24.1233 33.7385 24.0733 33.7097 24.0285C33.6809 23.9838 33.6434 23.9452 33.5996 23.9151C33.5557 23.885 33.5063 23.8639 33.4542 23.8531C33.4021 23.8423 33.3483 23.8419 33.2961 23.8521C33.2439 23.8623 33.1942 23.8828 33.15 23.9124C33.1057 23.942 33.0678 23.9801 33.0385 24.0245L32.279 25.1303H29.1738C29.0676 25.1303 28.9657 25.1725 28.8905 25.2477C28.8154 25.3228 28.7732 25.4247 28.7732 25.531C28.7732 25.6373 28.8154 25.7392 28.8905 25.8143C28.9657 25.8895 29.0678 25.9316 29.174 25.9316Z" fill="#BFBFBF"/>
<path d="M31.0991 35.2593C31.1621 35.2593 31.2241 35.2444 31.2802 35.216C31.3364 35.1875 31.385 35.1463 31.4222 35.0955C31.4595 35.0448 31.4843 34.986 31.4946 34.924C31.5049 34.8619 31.5005 34.7983 31.4816 34.7382L30.0975 30.3379C30.0787 30.2783 30.0462 30.2239 30.0027 30.1791C29.9591 30.1342 29.9057 30.1002 29.8467 30.0797L28.0892 29.4694C27.9888 29.4346 27.8786 29.441 27.783 29.4874C27.6873 29.5337 27.614 29.6162 27.5791 29.7166C27.5443 29.817 27.5507 29.9272 27.5971 30.0229C27.6434 30.1185 27.7259 30.1918 27.8263 30.2267L29.3934 30.7708L30.717 34.9786C30.7426 35.06 30.7935 35.131 30.8622 35.1815C30.9309 35.2319 31.0139 35.2592 31.0991 35.2593Z" fill="#BFBFBF"/>
<path d="M15.427 21.6227C15.5152 21.6228 15.601 21.5938 15.6711 21.5401C15.7412 21.4864 15.7915 21.4111 15.8144 21.3259C15.8373 21.2407 15.8314 21.1503 15.7976 21.0687C15.7639 20.9872 15.7041 20.9191 15.6277 20.875L13.6881 19.7549L13.0061 16.441C12.9955 16.3894 12.9748 16.3405 12.9453 16.2969C12.9158 16.2534 12.878 16.2161 12.834 16.1871C12.7901 16.1582 12.7409 16.1382 12.6892 16.1283C12.6375 16.1184 12.5844 16.1187 12.5329 16.1293C12.4813 16.1399 12.4324 16.1606 12.3888 16.1901C12.3453 16.2196 12.308 16.2575 12.279 16.3014C12.2501 16.3453 12.2301 16.3946 12.2202 16.4462C12.2102 16.4979 12.2106 16.551 12.2212 16.6026L12.9396 20.0928C12.951 20.1482 12.9741 20.2006 13.0072 20.2465C13.0403 20.2924 13.0827 20.3307 13.1317 20.3591L15.2272 21.5691C15.2879 21.6042 15.3568 21.6227 15.427 21.6227Z" fill="#BFBFBF"/>
<path d="M11.2285 25.9324H14.5446C14.6509 25.9324 14.7528 25.8902 14.828 25.815C14.9031 25.7399 14.9453 25.638 14.9453 25.5317C14.9453 25.4255 14.9031 25.3235 14.828 25.2484C14.7528 25.1733 14.6509 25.1311 14.5446 25.1311H11.4394L10.6803 24.0252C10.651 23.9807 10.6132 23.9425 10.5689 23.9128C10.5247 23.883 10.475 23.8625 10.4227 23.8522C10.3704 23.842 10.3166 23.8422 10.2644 23.853C10.2122 23.8638 10.1627 23.8849 10.1188 23.9151C10.0749 23.9453 10.0374 23.9839 10.0086 24.0287C9.97975 24.0735 9.96016 24.1236 9.95095 24.1761C9.94174 24.2286 9.94309 24.2824 9.95492 24.3344C9.96675 24.3863 9.98883 24.4354 10.0199 24.4787L10.8983 25.7584C10.9351 25.812 10.9844 25.8558 11.0419 25.8862C11.0995 25.9165 11.1635 25.9323 11.2285 25.9324Z" fill="#BFBFBF"/>
<path d="M12.6139 35.2593C12.6991 35.2593 12.7821 35.2321 12.8509 35.1816C12.9196 35.1312 12.9705 35.0602 12.9961 34.9789L14.3198 30.7706L15.8869 30.2267C15.9873 30.1918 16.0698 30.1185 16.1161 30.0229C16.1625 29.9272 16.1689 29.817 16.1341 29.7166C16.0992 29.6162 16.0259 29.5337 15.9302 29.4874C15.8346 29.441 15.7244 29.4346 15.624 29.4694L13.8667 30.0797C13.8077 30.1002 13.7542 30.1342 13.7107 30.179C13.6672 30.2239 13.6347 30.2783 13.6159 30.3379L12.2316 34.7383C12.2128 34.7983 12.2083 34.8619 12.2187 34.924C12.229 34.986 12.2537 35.0448 12.2909 35.0955C12.3281 35.1463 12.3767 35.1875 12.4328 35.216C12.4889 35.2445 12.551 35.2592 12.6139 35.2593Z" fill="#BFBFBF"/>
<path d="M18.3793 15.8149C18.3789 16.4386 18.5478 17.0507 18.8681 17.5859H20.583C20.2627 17.0507 20.0937 16.4386 20.0942 15.8149C20.095 15.039 20.3542 14.2854 20.8309 13.673C21.3075 13.0607 21.9745 12.6245 22.7266 12.4333C22.4447 12.3639 22.1554 12.3289 21.8651 12.3291C20.9406 12.3291 20.054 12.6964 19.4003 13.3501C18.7465 14.0038 18.3793 14.8904 18.3793 15.8149Z" fill="#BFBFBF"/>
<path d="M20.0947 15.8143C20.0943 16.438 20.2633 17.0501 20.5836 17.5852L24.8627 17.5933C25.1846 17.0559 25.3537 16.4407 25.3515 15.8143C25.3521 15.0913 25.1274 14.386 24.7088 13.7965C24.2902 13.207 23.6984 12.7625 23.0156 12.5248C22.9195 12.4887 22.8233 12.4607 22.7271 12.4326C21.9751 12.6239 21.3081 13.06 20.8315 13.6724C20.3548 14.2847 20.0956 15.0383 20.0947 15.8143Z" fill="#BFBFBF"/>
<path d="M14.5334 25.2265C14.5334 29.8502 17.8109 33.6005 21.8537 33.6005C22.1379 33.601 22.4218 33.5809 22.7031 33.5404C19.065 33.0556 16.2443 29.5177 16.2443 25.2265C16.2443 20.9393 19.065 17.4014 22.7031 16.9166C22.4218 16.876 22.1379 16.856 21.8537 16.8565C17.8109 16.8565 14.5334 20.6067 14.5334 25.2265Z" fill="#426ACC"/>
<path d="M16.25 25.2269C16.25 29.5181 19.0708 33.056 22.7088 33.5408C22.817 33.5288 22.9252 33.5128 23.0334 33.4928C23.2177 33.4527 23.398 33.4086 23.5823 33.3605C26.7957 32.4831 29.1797 29.1695 29.1797 25.2269C29.1797 21.2883 26.7957 17.9748 23.5823 17.0973C23.398 17.0492 23.2177 17.0051 23.0334 16.9651C22.9252 16.945 22.817 16.929 22.7088 16.917C19.0708 17.4018 16.25 20.9397 16.25 25.2269Z" fill="#426ACC"/>
<path d="M21.8571 33.6002C21.9634 33.6002 22.0653 33.558 22.1405 33.4829C22.2156 33.4077 22.2578 33.3058 22.2578 33.1996V20.3675C22.2578 20.3149 22.2474 20.2627 22.2273 20.2141C22.2072 20.1655 22.1777 20.1214 22.1405 20.0842C22.1033 20.0469 22.0591 20.0174 22.0105 19.9973C21.9619 19.9772 21.9098 19.9668 21.8571 19.9668C21.8045 19.9668 21.7524 19.9772 21.7038 19.9973C21.6552 20.0174 21.611 20.0469 21.5738 20.0842C21.5366 20.1214 21.5071 20.1655 21.487 20.2141C21.4668 20.2627 21.4565 20.3149 21.4565 20.3675V33.1996C21.4565 33.3058 21.4987 33.4077 21.5738 33.4829C21.649 33.558 21.7509 33.6002 21.8571 33.6002Z" fill="#BFBFBF"/>
</g>
</g>
<defs>
<filter id="filter0_ii_3597_78711" x="-1.74838" y="-1.16559" width="46.0436" height="44.8751" filterUnits="userSpaceOnUse" color-interpolation-filters="sRGB">
<feFlood flood-opacity="0" result="BackgroundImageFix"/>
<feBlend mode="normal" in="SourceGraphic" in2="BackgroundImageFix" result="shape"/>
<feColorMatrix in="SourceAlpha" type="matrix" values="0 0 0 0 0 0 0 0 0 0 0 0 0 0 0 0 0 0 127 0" result="hardAlpha"/>
<feOffset dx="-1.74838" dy="-1.16559"/>
<feGaussianBlur stdDeviation="6.99353"/>
<feComposite in2="hardAlpha" operator="arithmetic" k2="-1" k3="1"/>
<feColorMatrix type="matrix" values="0 0 0 0 0.576471 0 0 0 0 0.662745 0 0 0 0 0.886275 0 0 0 0.25 0"/>
<feBlend mode="normal" in2="shape" result="effect1_innerShadow_3597_78711"/>
<feColorMatrix in="SourceAlpha" type="matrix" values="0 0 0 0 0 0 0 0 0 0 0 0 0 0 0 0 0 0 127 0" result="hardAlpha"/>
<feOffset dx="1.74838" dy="1.16559"/>
<feGaussianBlur stdDeviation="6.99353"/>
<feComposite in2="hardAlpha" operator="arithmetic" k2="-1" k3="1"/>
<feColorMatrix type="matrix" values="0 0 0 0 0.576471 0 0 0 0 0.662745 0 0 0 0 0.886275 0 0 0 0.25 0"/>
<feBlend mode="normal" in2="effect1_innerShadow_3597_78711" result="effect2_innerShadow_3597_78711"/>
</filter>
<clipPath id="clip0_3597_78711">
<rect width="25.643" height="25.643" fill="white" transform="matrix(-1 0 0 1 34.6797 9.61621)"/>
</clipPath>
</defs>
</svg>
