<svg width="1920" height="1622" viewBox="0 0 1920 1622" fill="none" xmlns="http://www.w3.org/2000/svg">
<g opacity="0.2">
<path d="M-459.494 1353.47C-333.727 1346.42 -200.358 1335 -58.2985 1308.6C83.4665 1282.2 235.73 1238.88 340.885 1186.7C466.447 1124.36 514.134 1055.98 660.62 997.663C755.455 959.922 871.541 934.539 981.286 908.657C1091.31 882.705 1210.3 851.005 1285.35 810.131C1419.88 736.849 1345.76 671.867 1493.62 599.782C1591.25 552.235 1738.04 524.839 1865.99 489.376C2027.84 444.485 2173.5 380.217 2251.89 319.064C2330.28 257.911 2339.67 201.117 2277.19 168.479" stroke="#1C2226" stroke-miterlimit="10"/>
<path d="M-442.974 1355.47C-317.855 1348.21 -184.642 1336.25 -43.5444 1309.58C41.5737 1293.53 130.545 1271.37 210.627 1244.96C262.942 1227.73 311.469 1208.61 352.851 1188.25C478.255 1126.39 528.75 1058.54 671.466 1000.45C722.213 979.813 778.395 962.689 837.363 947.048C887.279 933.803 938.98 921.639 989.778 909.414C1061.02 892.311 1136.64 872.985 1201.68 850.729C1237.69 838.412 1270.51 825.229 1297.73 811.063C1351.43 783.215 1375.38 756.621 1393.19 730.21C1419.16 692.106 1433.06 654.094 1502.41 613.947C1509.74 609.649 1517.95 605.344 1526.73 600.966C1623.4 553.153 1763.55 525.26 1883.69 490.335C2001.36 456.045 2108.23 410.891 2185.61 363.703C2207.96 350.053 2227.62 336.287 2244.64 322.541C2275.03 297.813 2295.53 273.572 2305.93 251.187C2321.74 217.813 2315.43 188.576 2285.04 168.008" stroke="#23292E" stroke-miterlimit="10"/>
<path d="M-426.717 1357.6C-301.989 1350.01 -169.209 1337.56 -28.7584 1310.7C56.0261 1294.52 144.134 1272.43 223.666 1246.16C275.705 1229 323.997 1210.09 365.399 1189.79C490.665 1128.48 543.397 1061.23 682.638 1003.38C732.757 982.604 787.368 965.149 845.63 949.104C895.134 935.451 947.013 922.875 998.047 910.443C1069.76 892.926 1145.93 873.459 1211.91 851.401C1248.26 839.218 1281.45 826.306 1309.87 812.199C1365.18 784.818 1392.49 758.609 1413.61 732.447C1444.41 694.716 1464.67 656.245 1535.04 615.543C1542.64 611.174 1550.56 606.871 1559.34 602.493C1655.34 554.411 1788.31 526.162 1900.6 491.64C2010.45 457.889 2108.55 414.033 2180.5 367.503C2201.42 354.001 2220.2 340.241 2236.33 326.502C2265.53 301.715 2286.22 277.13 2298.24 254.185C2316.19 220.042 2315.43 189.6 2292.11 167.952" stroke="#2A2F37" stroke-miterlimit="10"/>
<path d="M-410.485 1359.66C-286.405 1351.87 -153.781 1338.88 -13.9976 1311.74C70.1588 1295.43 157.422 1273.48 236.404 1247.36C287.894 1230.34 335.93 1211.57 377.371 1191.41C502.755 1130.51 557.999 1063.79 693.785 1006.23C742.981 985.329 796.317 967.542 854.167 951.089C903.259 937.029 955.059 924.18 1006.56 911.333C1078.75 893.402 1155.74 873.724 1222.39 851.935C1259.35 839.815 1293.17 827.035 1322.27 813.265C1379.46 786.28 1409.6 760.665 1434.3 734.613C1470.18 697.117 1496.84 658.323 1567.94 617.068C1575.54 612.699 1583.44 608.328 1592.2 603.882C1687.52 555.463 1813.58 526.788 1917.77 492.875C2020.09 459.592 2108.86 417.176 2175.92 371.094C2195.41 357.739 2213.01 343.989 2228.55 330.254C2256.53 305.34 2277.44 280.479 2290.79 257.045C2311.16 222.063 2315.69 190.485 2299.45 167.825" stroke="#31363F" stroke-miterlimit="10"/>
<path d="M-394.245 1361.73C-270.557 1353.6 -138.365 1340.14 0.495817 1312.87C84.0437 1296.49 170.718 1274.55 249.151 1248.57C300.365 1231.62 348.146 1212.98 389.371 1193.1C514.872 1132.61 572.354 1066.49 704.664 1009.16C753.233 988.129 805.018 970.08 862.142 953.154C910.841 938.755 962.799 925.426 1014.8 912.233C1087.45 893.888 1165.01 874.137 1232.86 852.407C1270.17 840.49 1304.6 827.774 1334.67 814.27C1393.74 787.681 1426.67 762.524 1455 736.785C1495.71 699.663 1528.73 660.41 1601.13 618.529C1608.71 614.092 1616.88 609.651 1625.36 605.275C1719.74 556.658 1839.16 527.487 1935.53 494.044C2030.02 461.3 2109.75 420.253 2171.65 374.689C2189.68 361.414 2206.14 347.809 2221.08 334.011C2247.86 309.037 2268.94 283.765 2283.92 259.84C2306.71 224.017 2316.24 191.376 2307.35 167.564" stroke="#383C47" stroke-miterlimit="10"/>
<path d="M-377.992 1363.86C-254.677 1355.46 -122.915 1341.52 15.2777 1313.98C98.217 1297.55 184.008 1275.61 262.185 1249.76C313.125 1232.88 360.65 1214.39 401.639 1194.71C526.983 1134.71 587.252 1069.04 715.832 1012.09C763.753 990.851 813.987 972.54 870.699 955.207C918.987 940.4 971.122 926.659 1023.35 913.26C1096.2 894.571 1174.87 874.537 1243.38 853.076C1281.3 841.223 1316.1 828.778 1346.84 815.543C1407.8 789.35 1443.8 764.648 1475.45 739.158C1520.97 702.341 1560.64 662.626 1633.79 620.261C1641.65 615.754 1649.52 611.314 1657.99 606.871C1751.7 557.985 1864.19 528.319 1952.47 495.486C2039.41 463.141 2109.82 423.602 2166.85 378.555C2183.45 365.428 2198.74 351.832 2213.08 338.038C2238.66 313.005 2259.95 287.389 2276.28 263.043C2301.23 226.52 2316.3 192.604 2314.47 167.712" stroke="#3F4350" stroke-miterlimit="10"/>
<path d="M-361.77 1365.93C-239.103 1357.33 -107.518 1342.77 30.0275 1315.04C112.358 1298.53 197.56 1276.6 274.913 1250.97C325.303 1234.23 372.573 1215.87 413.601 1196.33C539.062 1136.74 601.569 1071.67 726.693 1015.02C773.966 993.581 822.65 975.008 878.95 957.267C926.845 942.121 978.863 927.971 1031.59 914.225C1104.91 895.122 1184.12 874.948 1253.56 853.617C1291.81 841.898 1327.24 829.584 1358.94 816.615C1421.5 790.889 1460.87 766.572 1495.84 741.331C1546.46 704.817 1592.22 664.713 1666.39 621.793C1674.24 617.285 1682.39 612.776 1690.84 608.264C1783.86 559.041 1889.45 528.949 1969.89 496.586C2049.01 464.781 2110.63 426.472 2162.24 382.082C2177.41 369.103 2191.81 355.513 2205.27 341.726C2229.64 316.565 2251.14 290.674 2269.08 265.768C2296.45 228.406 2316.8 193.355 2322.04 167.383" stroke="#464958" stroke-miterlimit="10"/>
<path d="M-345.238 1367.99C-222.963 1359.05 -91.809 1344.02 44.8139 1316.15C126.517 1299.52 210.874 1277.73 287.952 1252.17C338.067 1235.5 385.082 1217.28 425.894 1198.02C551.217 1138.97 616.197 1074.29 737.591 1018.01C784.216 996.374 831.369 977.608 886.943 959.393C934.427 943.84 986.64 929.346 1039.58 915.325C1113.37 895.808 1193.43 875.49 1263.52 854.359C1302.38 842.704 1338.45 830.591 1370.8 817.823C1435.25 792.493 1477.44 768.769 1515.98 743.638C1571.41 707.429 1623.55 666.935 1699.02 623.389C1706.85 618.813 1715.01 614.303 1723.45 609.791C1815.8 560.3 1914.46 529.714 1986.81 497.96C2058.38 466.554 2110.69 429.754 2157.42 385.811C2171.13 372.912 2184.39 359.468 2197.23 345.548C2220.39 320.329 2241.8 294.096 2261.37 268.699C2290.87 230.567 2316.76 194.242 2329.09 167.258" stroke="#4D5060" stroke-miterlimit="10"/>
<path d="M-329.003 1370.06C-207.101 1360.85 -76.3791 1345.34 59.5765 1317.21C140.946 1300.44 224.439 1278.72 300.692 1253.37C350.552 1236.84 397.017 1218.77 438.143 1199.57C563.583 1140.93 630.781 1076.78 748.74 1020.87C794.737 999.101 840.594 979.934 895.481 961.383C942.573 945.491 994.944 930.516 1048.37 916.15C1122.64 896.218 1203.25 875.76 1274.55 854.756C1313.74 843.235 1350.45 831.255 1383.75 818.752C1450.09 793.818 1495.36 770.551 1537.22 745.667C1597.76 709.762 1656.26 668.808 1732.47 624.778C1740.31 620.202 1748.44 615.624 1756.86 611.043C1848.25 561.286 1940.53 530.064 2004.54 499.058C2068.82 467.982 2111.55 432.76 2153.41 389.334C2165.69 376.582 2177.77 363.147 2190.02 349.232C2211.99 323.954 2233.59 297.377 2254.77 271.42C2286.69 232.449 2317.86 194.989 2337.26 166.925" stroke="#545669" stroke-miterlimit="10"/>
<path d="M-312.771 1372.12C-191.536 1362.64 -60.6953 1346.52 74.3377 1318.25C155.098 1301.42 238.003 1279.71 313.706 1254.5C363.016 1238.11 409.52 1220.17 450.391 1201.11C575.949 1142.88 645.384 1079.34 759.867 1023.65C805.217 1001.69 849.524 982.257 903.979 963.23C950.659 946.931 1002.93 931.615 1056.85 916.903C1131.59 896.557 1212.75 875.957 1284.99 855.152C1324.8 843.695 1362.15 831.914 1395.84 819.751C1464.07 795.213 1512.42 772.401 1557.6 747.766C1622.94 712.166 1687.82 670.821 1765.06 626.235C1773.17 621.589 1781.28 616.943 1789.43 612.433C1880.15 562.407 1965.48 530.622 2021.7 500.224C2078.4 469.479 2111.82 435.765 2148.53 392.926C2159.38 380.322 2170.58 366.894 2181.94 352.985C2202.72 327.647 2224.51 300.727 2247.03 274.281C2281.37 234.471 2317.82 195.875 2344.29 166.73" stroke="#5B5D71" stroke-miterlimit="10"/>
<path d="M-296.533 1374.26C-175.671 1364.51 -45.2623 1347.91 88.8285 1319.45C168.961 1302.48 251.002 1280.85 326.45 1255.78C375.485 1239.46 421.733 1221.66 462.388 1202.87C587.788 1145.12 659.442 1082.1 770.764 1026.72C815.191 1004.62 858.222 984.862 911.991 965.498C958.258 948.792 1010.73 933.132 1064.87 918.144C1140.07 897.385 1222.06 876.573 1294.97 856.037C1335.1 844.714 1373.1 833.134 1407.74 821.168C1477.85 797.027 1529.01 774.74 1577.78 750.283C1648.23 714.986 1719.47 673.183 1797.74 628.11C1805.84 623.395 1813.95 618.749 1822.36 614.1C1912.39 563.737 1991.07 531.388 2038.92 501.669C2088.06 471.324 2112.18 439.118 2144 396.727C2153.4 384.202 2163.44 370.851 2174.21 356.948C2193.77 331.482 2215.76 304.219 2239.91 277.281C2276.38 236.701 2318.39 196.901 2351.93 166.675" stroke="#626379" stroke-miterlimit="10"/>
<path d="M-280.281 1376.32C-159.812 1366.23 -29.8338 1349.15 103.609 1320.49C183.133 1303.46 264.585 1281.83 339.208 1256.97C387.968 1240.73 433.687 1223.13 474.381 1204.49C599.899 1147.15 673.75 1084.59 781.656 1029.64C825.435 1007.35 866.916 987.324 920.253 967.484C966.128 950.438 1018.76 934.299 1073.11 919.036C1148.52 897.932 1231.34 876.978 1305.17 856.571C1345.92 845.312 1384.27 833.934 1419.87 822.235C1491.87 798.49 1546.11 776.659 1598.19 752.449C1673.73 717.387 1751.1 675.332 1830.37 629.635C1838.46 624.921 1846.85 620.204 1854.96 615.558C1944.33 564.926 2016.04 531.946 2056.11 502.902C2097.38 472.891 2112.49 442.191 2139.19 400.455C2147.15 388.078 2156.03 374.804 2166.2 360.837C2184.55 335.312 2206.74 307.705 2232.23 280.278C2271.12 238.859 2318.41 197.923 2359.02 166.617" stroke="#696A82" stroke-miterlimit="10"/>
<path d="M-264.023 1378.45C-144.201 1368.16 -14.3801 1350.54 118.396 1321.61C197.311 1304.52 277.899 1282.96 352.247 1258.17C400.733 1242 446.196 1224.54 486.654 1206.1C612.034 1149.31 688.359 1087.15 792.809 1032.5C835.941 1010 875.87 989.717 928.796 969.47C974.259 952.017 1026.79 935.536 1081.93 919.925C1157.81 898.408 1241.46 877.241 1316.23 857.032C1357.59 845.837 1396.58 834.66 1432.85 823.23C1507.01 799.81 1564.05 778.505 1619.46 754.544C1700.1 719.785 1783.82 677.27 1863.85 631.089C1872.21 626.304 1880.31 621.589 1888.4 616.875C1976.83 566.045 2041.56 532.434 2073.86 504.065C2107.56 474.386 2113.37 445.262 2135.18 403.974C2141.69 391.676 2149.69 378.41 2158.99 364.517C2176.15 338.933 2198.54 310.982 2225.64 282.996C2266.94 240.737 2319.51 198.666 2367.19 166.28" stroke="#70708A" stroke-miterlimit="10"/>
<path d="M-247.532 1380.45C-128.102 1369.82 1.28714 1351.73 133.14 1322.67C211.428 1305.44 291.446 1283.96 364.97 1259.38C412.905 1243.35 458.113 1226.03 498.63 1207.8C624.127 1151.41 702.395 1089.85 803.685 1035.5C846.149 1012.74 884.567 992.326 936.766 971.606C981.818 953.745 1034.52 936.852 1089.88 920.966C1166.23 899.034 1250.43 877.727 1326.15 857.716C1367.83 846.655 1407.46 835.61 1444.4 824.448C1520.45 801.493 1580.56 780.575 1639.29 756.862C1724.73 722.408 1814.84 679.503 1896.16 632.696C1904.51 627.843 1912.6 623.128 1920.69 618.413C2008.43 567.247 2066.22 533.073 2090.47 505.45C2116.29 476.105 2113.1 448.487 2130.04 407.715C2135.11 395.565 2141.96 382.376 2150.65 368.419C2166.59 342.708 2189.17 314.414 2217.64 286.074C2261.09 243.047 2319.22 199.77 2373.98 166.372" stroke="#777792" stroke-miterlimit="10"/>
<path d="M-231.29 1382.52C-112.233 1371.62 16.7057 1352.98 147.911 1323.72C225.865 1306.36 305 1284.88 377.994 1260.51C425.654 1244.55 470.607 1227.37 511.162 1209.27C636.502 1153.37 716.969 1092.27 815.117 1038.29C856.658 1015.39 893.801 994.649 945.588 973.521C990.247 955.321 1043.13 938.017 1098.68 921.786C1175.5 899.441 1260.55 877.99 1336.91 858.179C1379.21 847.182 1419.48 836.337 1457.09 825.444C1535.03 802.885 1598.22 782.422 1660.28 759.026C1750.83 724.875 1847.03 681.581 1929.37 634.219C1937.71 629.366 1946.06 624.513 1953.86 619.8C2040.93 568.365 2091.48 533.631 2108.21 506.545C2126.18 477.601 2113.97 451.489 2125.76 411.304C2129.41 399.302 2135.07 386.121 2143.17 372.17C2157.92 346.399 2180.7 317.761 2210.78 288.862C2256.64 244.995 2320.05 200.583 2381.88 166.104" stroke="#7E7E9B" stroke-miterlimit="10"/>
<path d="M-215.039 1384.65C-96.6491 1373.48 32.1525 1354.36 162.691 1324.83C240.036 1307.41 318.308 1286.01 391.006 1261.64C438.392 1245.75 483.089 1228.71 523.409 1210.82C648.866 1155.33 731.531 1094.69 826.243 1041.08C867.137 1017.98 903.004 996.904 954.105 975.439C998.352 956.832 1051.14 939.186 1107.2 922.678C1184.49 899.918 1270.09 878.327 1347.39 858.714C1390.04 847.919 1430.95 837.207 1469.49 826.512C1549.32 804.348 1615.32 784.412 1680.97 761.194C1776.62 727.346 1879.18 683.592 1962.26 635.746C1970.89 630.822 1978.94 625.971 1987.01 621.188C2073.13 569.487 2116.72 534.189 2125.68 507.778C2135.5 479.24 2114.55 454.563 2121.48 414.893C2123.67 402.971 2128.2 389.936 2135.67 375.853C2149.2 349.954 2172.19 321.041 2203.61 291.653C2251.89 246.946 2320.58 201.399 2389.75 165.769" stroke="#8584A3" stroke-miterlimit="10"/>
<path d="M-198.799 1386.71C-80.7821 1375.27 47.5685 1355.61 177.459 1325.88C254.196 1308.4 331.878 1287 403.752 1262.85C450.588 1247.09 495.03 1230.2 535.409 1212.51C660.709 1157.5 745.572 1097.32 837.142 1044.07C877.114 1020.84 911.705 999.438 962.099 977.568C1005.93 958.553 1058.9 940.495 1115.18 923.712C1192.94 900.538 1279.36 878.735 1357.59 859.252C1400.85 848.521 1442.12 838.079 1481.61 827.582C1563.34 805.884 1632.4 786.334 1701.37 763.364C1802.11 729.751 1910.77 685.678 1995.15 637.205C2003.78 632.281 2012.1 627.36 2019.88 622.579C2105.33 570.609 2141.42 534.89 2143.13 508.945C2144.83 480.879 2114.87 457.708 2116.91 418.487C2117.66 406.712 2121.01 393.686 2127.9 379.607C2140.23 353.649 2163.13 324.395 2196.17 294.515C2246.59 249.04 2320.84 202.287 2397.08 165.577" stroke="#8C8BAC" stroke-miterlimit="10"/>
<path d="M-182.562 1388.78C-64.9371 1377 63.0015 1356.93 191.95 1327.01C268.059 1309.39 344.897 1288.14 416.496 1264.05C463.076 1248.44 507.263 1231.68 547.386 1214.13C672.823 1159.59 759.59 1099.88 847.999 1046.93C887.304 1023.44 920.363 1001.84 970.346 979.559C1013.77 960.137 1066.93 941.736 1123.68 924.538C1201.64 901.021 1288.88 879.006 1368.06 859.721C1411.65 849.125 1453.77 838.539 1493.73 828.655C1577.47 807.83 1649.48 788.258 1721.77 765.536C1827.34 732.297 1942.63 687.694 2027.76 638.737C2036.37 633.745 2044.69 628.823 2052.45 623.974C2137.21 571.667 2166.08 535.456 2160.02 510.187C2153.58 482.593 2114.87 460.789 2112.06 422.152C2111.11 410.596 2113.57 397.577 2119.85 383.434C2130.98 357.417 2154.08 327.819 2188.73 297.379C2241.56 251.064 2321.1 203.176 2404.41 165.386" stroke="#9391B4" stroke-miterlimit="10"/>
<path d="M-166.326 1390.92C-49.349 1378.94 78.4135 1358.25 206.714 1328.12C282.214 1310.44 358.444 1289.13 429.238 1265.32C475.543 1249.78 519.475 1233.16 559.382 1215.88C684.936 1161.76 773.351 1102.65 858.895 1050C897.276 1026.37 929.06 1004.44 978.611 981.685C1021.64 961.925 1074.68 943.113 1131.95 925.639C1210.38 901.707 1298.46 879.549 1378.29 860.464C1422.49 849.931 1465.04 839.822 1505.86 829.862C1591.38 809.024 1666.6 790.385 1742.18 767.844C1852.86 734.907 1974.24 689.915 2060.39 640.403C2069.27 635.34 2077.3 630.421 2085.06 625.572C2169.15 572.997 2190.53 536.364 2176.92 511.563C2162.36 484.442 2114.91 464.073 2107.21 425.884C2104.8 414.407 2106.39 401.395 2111.8 387.327C2121.71 361.182 2145.02 331.309 2181.02 300.38C2236.28 253.294 2320.8 204.273 2411.46 165.332" stroke="#9A98BC" stroke-miterlimit="10"/>
<path d="M-149.816 1392.91C-33.2311 1380.59 94.1195 1359.5 221.753 1329.1C296.645 1311.36 372.285 1290.05 442.529 1266.38C488.285 1250.98 531.961 1234.5 571.907 1217.36C697.304 1163.72 787.918 1105.07 870.319 1052.78C907.759 1028.96 938.287 1006.76 987.151 983.673C1029.77 963.505 1082.99 944.282 1140.47 926.532C1219.37 902.186 1308.01 879.887 1388.77 861C1433.3 850.602 1476.78 840.622 1518.27 830.931C1605.69 810.557 1683.98 792.305 1762.88 770.012C1878.63 737.311 2006.14 692.067 2093.57 641.86C2102.45 636.798 2110.74 631.74 2118.48 626.822C2201.62 574.049 2215.77 536.924 2194.93 512.589C2171.96 486.011 2115.75 467.009 2103.18 429.336C2099.34 418.007 2099.77 405.072 2104.57 390.941C2113.29 364.737 2136.78 334.451 2174.4 303.032C2231.81 255.176 2321.88 204.95 2419.61 164.928" stroke="#A19EC5" stroke-miterlimit="10"/>
<path d="M-133.56 1395.04C-17.3481 1382.45 109.551 1360.82 236.262 1330.29C310.801 1312.34 385.322 1291.25 455.291 1267.65C500.772 1252.32 544.192 1235.98 584.178 1218.98C709.692 1165.74 801.954 1107.7 881.47 1055.64C917.987 1031.69 947.239 1009.16 995.672 985.591C1037.88 965.016 1091.28 945.381 1148.99 927.423C1228.38 902.732 1317.83 880.153 1399.25 861.535C1444.4 851.2 1488.24 841.491 1530.68 831.998C1619.98 812.02 1701.07 794.294 1783.57 772.179C1904.16 739.851 2038.3 694.078 2126.47 643.387C2135.33 638.256 2143.62 633.198 2151.36 628.28C2233.82 575.17 2240.49 537.692 2212.12 513.893C2181.05 487.856 2116.08 470.221 2098.65 433.064C2093.36 421.815 2092.64 409.026 2096.83 394.83C2104.36 368.567 2128.04 337.938 2167 306.029C2226.82 257.334 2322.18 205.973 2426.97 164.871" stroke="#A8A5CD" stroke-miterlimit="10"/>
<path d="M-117.309 1397.11C-1.74446 1384.32 124.979 1362.07 251.042 1331.35C324.972 1313.33 398.905 1292.24 468.049 1268.86C513.255 1253.6 556.145 1237.46 596.189 1220.67C721.566 1167.98 816.007 1110.33 892.381 1058.64C927.956 1034.49 955.951 1011.69 1003.97 987.719C1045.77 966.736 1099.09 946.828 1157.55 928.386C1237.41 903.28 1327.42 880.629 1410.05 862.07C1455.8 851.799 1500.02 842.361 1543.12 833.136C1634.33 813.623 1718.5 796.353 1804.3 774.417C1930.01 742.461 2070.22 696.23 2159.41 644.984C2168.55 639.783 2176.56 634.795 2184.26 629.741C2266.05 576.362 2265.22 538.463 2229.61 515.129C2190.41 489.566 2116.69 473.298 2094.11 436.727C2087.38 425.626 2085.49 412.846 2089.09 398.655C2095.4 372.264 2119.3 341.36 2159.87 308.891C2222.11 259.356 2322.75 206.86 2434.61 164.677" stroke="#AFABD5" stroke-miterlimit="10"/>
<path d="M-101.085 1399.17C14.0869 1386.05 140.398 1363.39 265.795 1332.39C339.116 1314.32 412.165 1293.23 481.054 1269.99C525.71 1254.87 568.62 1238.8 608.428 1222.21C733.922 1169.94 830.012 1112.89 903.52 1061.49C938.447 1037.14 964.892 1014.09 1012.21 989.707C1053.59 968.317 1107.08 947.997 1165.76 929.279C1246.1 903.759 1336.93 880.896 1420.23 862.606C1466.31 852.469 1511.46 843.161 1555.22 834.205C1648.33 815.156 1735.57 798.273 1824.68 776.586C1955.5 744.932 2102.07 698.243 2192.28 646.441C2201.42 641.24 2209.69 636.113 2217.11 631.13C2298.22 577.414 2290.19 539.091 2246.76 516.296C2199.18 491.344 2116.7 476.443 2089.5 440.25C2081.34 429.297 2078.57 416.523 2081.29 402.339C2086.4 375.889 2110.47 344.573 2152.42 311.751C2216.79 261.448 2322.99 207.745 2441.92 164.483" stroke="#B6B2DE" stroke-miterlimit="10"/>
<path d="M-84.8285 1401.31C29.6957 1387.98 155.831 1364.71 280.305 1333.58C353.017 1315.44 425.477 1294.36 493.542 1271.33C537.923 1256.28 580.578 1240.35 620.15 1223.97C745.486 1172.18 843.499 1115.66 914.121 1064.49C947.831 1040.01 973.295 1016.62 1020.2 991.836C1061.19 970.106 1114.57 949.377 1173.75 930.382C1254.29 904.518 1345.95 881.443 1430.18 863.352C1476.88 853.279 1522.39 844.241 1567.08 835.415C1662.1 816.83 1752.12 800.405 1844.82 778.895C1980.45 747.547 2133.4 700.467 2224.64 648.11C2233.75 642.841 2242.02 637.714 2249.7 632.592C2329.87 578.678 2314.61 539.863 2263.67 517.604C2207.95 493.125 2116.46 479.729 2084.67 443.982C2074.79 433.179 2071.13 420.412 2073.24 406.164C2077.15 379.655 2101.42 347.995 2144.98 314.614C2211.77 263.471 2323.25 208.633 2449.27 164.358" stroke="#BDB8E6" stroke-miterlimit="10"/>
<path d="M-68.5988 1403.37C45.533 1389.7 171.256 1366.03 295.063 1334.63C367.147 1316.36 439.038 1295.35 506.553 1272.46C550.659 1257.48 592.803 1241.83 632.414 1225.59C757.868 1174.2 857.51 1118.22 925.285 1067.41C958.072 1042.81 982.26 1019.08 1028.48 993.961C1069.06 971.824 1122.63 950.751 1182.01 931.412C1263.02 905.134 1355.52 881.916 1440.41 864.025C1487.43 854.086 1533.58 845.18 1579.23 836.621C1676.13 818.432 1769.24 802.462 1865.27 781.27C2006 750.225 2165.04 702.755 2257.3 649.844C2266.41 644.574 2274.94 639.309 2282.34 634.257C2361.82 580.006 2339.11 540.906 2280.9 519.045C2217.08 495.106 2116.81 483.01 2079.87 447.849C2068.55 437.194 2063.74 424.504 2065.24 410.192C2067.93 383.556 2092.42 351.62 2137.31 317.75C2206.52 265.768 2323.28 209.795 2456.37 164.44" stroke="#C4BFEE" stroke-miterlimit="10"/>
<path d="M-52.0829 1405.43C61.6762 1391.5 186.949 1367.27 310.107 1335.68C381.583 1317.34 452.61 1296.41 519.85 1273.59C563.701 1258.75 605.57 1243.17 644.946 1227.13C770.242 1176.23 871.533 1120.85 936.696 1070.2C968.542 1045.39 991.493 1021.48 1037.26 995.809C1077.42 973.265 1131.18 951.78 1191.05 932.096C1272.53 905.404 1365.58 882.044 1451.66 864.212C1499.3 854.337 1545.82 845.703 1592.13 837.411C1690.68 819.826 1787.11 804.104 1886.46 783.16C2032.28 752.35 2197.7 704.49 2290.98 651.023C2300.37 645.682 2308.6 640.419 2316 635.368C2394.81 580.849 2364.6 541.326 2298.87 520.002C2226.68 496.743 2117.64 485.945 2076.09 451.163C2063.34 440.655 2057.62 427.903 2058.26 413.667C2059.75 386.971 2084.44 354.692 2130.94 320.262C2202.29 267.51 2324.61 210.332 2464.76 163.897" stroke="#CBC5F7" stroke-miterlimit="10"/>
<path d="M-35.8451 1407.5C143.04 1384.99 351.338 1336.39 532.594 1274.79C713.85 1213.19 865.611 1139.3 947.299 1073.2C978.202 1048.19 999.897 1024.01 1045.25 997.936C1138.96 943.918 1310.72 895.53 1461.62 864.955C1612.24 834.45 1755.71 816.043 1906.63 785.535C2057.27 755.099 2229.05 706.779 2323.35 652.757C2433.09 589.791 2395.81 544.165 2315.79 521.376C2235.48 498.59 2117.7 489.227 2071 455.031C2030.28 425.168 2049.22 376.991 2122.99 323.4C2196.75 269.809 2324.35 211.495 2471.58 163.979" stroke="#D2CCFF" stroke-miterlimit="10"/>
<path d="M10.8092 1398.32C188.419 1375.48 394.085 1326.97 572.514 1265.8C750.943 1204.64 900.858 1131.51 979.855 1066.32C1010.64 1040.9 1030.2 1016.46 1073.76 990.333C1162.15 937.314 1327.93 889.657 1473.76 858.915C1619.32 828.243 1759.56 808.902 1908.56 777.863C2059.52 746.466 2232.34 698.686 2329.6 644.71C2442.09 582.064 2411.78 535.016 2334.14 511.252C2256.5 487.487 2135.91 478.625 2085.68 446.508C2042.3 418.718 2058.95 372.817 2126.96 321.801C2194.97 270.785 2314.95 214.72 2456.57 168.273" stroke="#CDC9FE" stroke-miterlimit="10"/>
<path d="M57.7259 1388.99C233.765 1365.82 437.096 1317.4 612.992 1256.66C788.888 1195.93 936.642 1123.5 1012.67 1059.29C1043.32 1033.39 1060.5 1008.9 1102.28 982.72C1185.1 930.839 1345.14 883.772 1485.63 852.934C1626.38 821.958 1763.43 801.752 1910.52 770.247C2061.77 737.822 2235.95 690.647 2336.16 636.649C2451.68 574.322 2427.76 525.857 2353.08 501.112C2278.4 476.366 2154.99 467.936 2100.97 438.038C2054.68 412.46 2069.26 368.627 2131.52 320.187C2194.05 271.676 2306.14 217.929 2442.17 172.551" stroke="#C7C6FE" stroke-miterlimit="10"/>
<path d="M104.373 1379.81C279.117 1356.24 479.817 1307.9 653.199 1247.67C826.582 1187.43 971.882 1115.71 1045.22 1052.4C1075.74 1026.03 1090.54 1001.49 1130.79 975.115C1208.3 924.3 1362.08 878.034 1497.76 846.891C1633.45 815.748 1767.29 794.676 1912.74 762.569C2064.01 729.186 2239.81 682.546 2342.69 628.595C2461.25 566.519 2443.72 516.705 2372.01 490.979C2300.3 465.254 2173.8 457.394 2115.95 429.578C2067.32 406.139 2079.02 364.586 2135.78 318.583C2192.55 272.648 2297.04 221.217 2427.45 176.84" stroke="#C2C3FD" stroke-miterlimit="10"/>
<path d="M151.302 1370.56C324.495 1346.72 523.114 1298.33 693.669 1238.53C864.224 1178.72 1007.36 1107.7 1078.04 1045.38C1108.41 1018.53 1120.86 994.005 1159.56 967.367C1231.79 917.688 1379.54 872.015 1510.14 840.637C1640.74 809.259 1771.39 787.323 1915.2 754.68C2067.06 720.266 2243.63 674.236 2349.75 620.261C2471.33 558.435 2460.22 507.341 2391.45 480.566C2322.41 453.862 2193.42 446.569 2131.74 420.835C2080.48 399.537 2089.84 360.123 2140.84 316.695C2191.85 273.268 2288.73 224.153 2413.53 180.777" stroke="#BDC0FD" stroke-miterlimit="10"/>
<path d="M197.931 1361.31C369.829 1337.07 565.837 1288.84 733.584 1229.53C901.332 1170.23 1042.31 1099.91 1110.31 1038.56C1140.55 1011.23 1150.9 986.591 1187.81 959.898C1254.76 911.354 1396.48 866.275 1522.02 834.73C1647.55 803.185 1775.24 780.177 1917.16 747.139C2069.32 711.696 2246.95 666.274 2356.03 612.344C2480.36 550.84 2476.2 498.255 2409.85 470.641C2343.78 442.956 2211.98 436.164 2146.19 412.582C2092.57 393.355 2099.34 356.218 2144.59 315.366C2189.84 274.515 2279.11 227.647 2398.03 185.411" stroke="#B8BDFC" stroke-miterlimit="10"/>
<path d="M244.863 1352.05C415.191 1327.49 608.862 1279.34 774.058 1220.4C939.253 1161.46 1077.52 1091.98 1143.13 1031.54C1173.23 1003.73 1181.22 979.108 1216.31 952.223C1278.27 904.812 1413.41 860.467 1534.14 828.617C1654.59 796.838 1779.07 772.964 1919.37 739.391C2071.81 702.851 2250.54 658.173 2362.84 604.151C2490.19 542.897 2492.43 488.963 2429.03 460.3C2365.62 431.637 2231.6 425.341 2161.71 403.912C2106.03 386.753 2109.62 351.898 2149.39 313.552C2189.15 275.205 2270.55 230.724 2383.86 189.488" stroke="#B2BAFC" stroke-miterlimit="10"/>
<path d="M291.522 1342.87C460.554 1317.9 651.614 1269.92 814.276 1211.4C976.939 1152.89 1112.48 1084.18 1175.69 1024.65C1205.65 996.37 1211.56 971.693 1244.84 944.686C1301.84 898.475 1430.64 854.658 1546.02 822.712C1661.68 790.696 1782.93 765.821 1921.33 731.783C2074.06 694.215 2254.12 650.074 2369.11 596.168C2499.21 535.235 2508.15 479.95 2447.69 450.238C2387.23 420.526 2250.74 414.865 2176.7 395.451C2118.96 380.361 2119.66 347.787 2153.65 311.947C2187.67 276.176 2261.17 234.013 2369.16 193.777" stroke="#ADB6FB" stroke-miterlimit="10"/>
<path d="M338.425 1333.54C505.907 1308.31 694.611 1260.34 854.466 1202.33C1014.32 1144.32 1147.41 1076.32 1208.22 1017.69C1238.05 988.932 1241.62 964.341 1273.33 937.003C1325.63 891.924 1447.82 848.705 1558.14 816.592C1668.71 784.341 1787.57 760.374 1923.53 724.028C2075.95 683.315 2257.68 641.898 2375.91 587.967C2508.75 527.355 2524.37 470.651 2466.6 440.029C2408.83 409.407 2270.37 404.103 2191.69 386.983C2131.86 373.893 2129.67 343.598 2157.93 310.403C2186.17 277.139 2252.09 237.361 2354.46 198.125" stroke="#A8B3FB" stroke-miterlimit="10"/>
<path d="M385.083 1324.36C551.269 1298.74 737.637 1250.85 894.664 1193.27C1051.99 1135.69 1182.34 1068.46 1240.78 1010.81C1270.47 981.573 1271.96 956.93 1301.87 929.469C1349.47 885.52 1464.79 843.038 1570.28 810.552C1675.79 778.134 1791.99 753.161 1925.76 716.353C2078.41 674.406 2261.26 633.802 2382.46 579.917C2518.32 519.556 2540.34 461.502 2485.54 429.9C2430.74 398.297 2290.06 393.488 2206.97 378.524C2145.36 367.431 2139.73 339.558 2162.49 308.799C2185.25 278.041 2243.28 240.581 2340.05 202.414" stroke="#A3B0FA" stroke-miterlimit="10"/>
<path d="M432.005 1315.11C596.896 1289.08 780.653 1241.35 935.148 1184.2C1089.64 1127.05 1217.29 1060.66 1273.6 1003.85C1302.88 974.209 1302.59 949.511 1330.37 921.861C1373.31 879.111 1481.99 837.158 1582.41 804.505C1682.84 771.853 1795.24 743.898 1927.98 708.672C2082.1 667.74 2264.86 625.769 2389.27 571.79C2527.89 511.75 2556.86 452.207 2504.74 419.694C2452.63 387.182 2310.28 382.728 2222.23 369.99C2159.1 360.825 2150.01 335.305 2167.02 307.122C2184.03 278.939 2234.43 243.726 2325.62 206.629" stroke="#9DADFA" stroke-miterlimit="10"/>
<path d="M478.64 1305.86C641.96 1279.5 823.361 1231.79 975.342 1175.13C1127.32 1118.48 1252.22 1052.8 1306.14 996.897C1335.28 966.774 1333.2 942.021 1358.87 914.182C1397.38 872.492 1498.89 831.278 1594.53 798.389C1689.89 765.569 1799.05 736.613 1929.91 700.991C2084.31 658.962 2268.14 617.667 2395.54 563.802C2536.88 504.015 2572.57 443.189 2523.4 409.627C2474.23 376.066 2329.96 372.106 2237.23 361.594C2172.57 354.288 2160.07 331.257 2171.32 305.649C2182.57 280.042 2225.38 247.145 2310.95 211.049" stroke="#98AAF9" stroke-miterlimit="10"/>
<path d="M525.583 1296.61C687.627 1269.92 866.398 1222.3 1015.55 1166.08C1164.7 1109.86 1286.87 1044.95 1338.69 989.949C1367.42 959.418 1363.55 934.611 1387.39 906.581C1421.8 866.017 1516.13 825.474 1606.41 792.42C1696.68 759.366 1802.88 729.338 1931.85 693.319C2086.79 650.055 2271.44 609.574 2401.8 555.755C2545.9 496.29 2588.26 434.044 2541.76 399.504C2495.26 364.964 2349.89 361.286 2251.64 353.142C2186.02 347.623 2169.23 327.156 2175.01 304.054C2180.78 280.951 2215.69 250.374 2295.66 215.346" stroke="#93A7F9" stroke-miterlimit="10"/>
<path d="M572.212 1287.36C732.687 1260.33 909.121 1212.8 1055.74 1157.01C1202.36 1101.22 1321.53 1037.15 1370.95 983.065C1399.52 951.988 1393.89 927.194 1415.61 898.975C1445.89 859.469 1533.04 819.596 1618.25 786.376C1703.73 753.085 1806.67 721.987 1933.78 685.641C2088.99 641.279 2274.45 601.545 2408.33 547.631C2555.17 488.486 2604.2 424.821 2560.67 389.3C2517.14 353.78 2370.38 350.386 2266.9 344.609C2200.02 340.878 2179.54 322.971 2179.54 302.376C2179.54 281.781 2206.85 253.519 2281.23 219.56" stroke="#8EA4F9" stroke-miterlimit="10"/>
<path d="M619.14 1278.1C778.319 1250.68 952.417 1203.23 1096.23 1147.94C1240.04 1092.65 1356.46 1029.29 1403.8 976.175C1431.96 944.69 1425.09 919.7 1444.16 891.501C1470.32 853.053 1550 813.922 1630.4 780.397C1710.81 746.871 1810.78 714.7 1936.03 678.026C2091.77 632.43 2278.05 593.51 2414.89 539.642C2564.46 480.75 2620.49 415.731 2579.63 379.232C2538.76 342.733 2391.16 339.483 2282.18 336.142C2214.59 334.059 2189.85 318.785 2184.11 300.834C2178.36 282.814 2198.07 256.868 2266.81 223.842" stroke="#88A1F8" stroke-miterlimit="10"/>
<path d="M665.795 1268.92C823.423 1241.23 995.165 1193.8 1136.43 1138.87C1277.69 1083.94 1390.84 1021.57 1436.33 969.219C1464.08 937.327 1455.72 912.28 1472.65 883.824C1494.99 846.431 1567.21 808.042 1642.52 774.281C1717.84 740.52 1814.85 707.278 1938.23 670.276C2094.5 623.444 2281.59 585.27 2421.69 531.446C2574.01 472.875 2636.71 406.436 2598.54 369.028C2560.65 331.548 2412.17 328.373 2297.17 327.679C2228.58 327.245 2199.89 314.67 2188.38 299.226C2176.87 283.782 2188.96 260.084 2252.11 228.127" stroke="#839EF8" stroke-miterlimit="10"/>
<path d="M712.699 1259.6C869.032 1231.51 1038.16 1184.24 1176.62 1129.81C1315.07 1075.38 1425.47 1013.71 1468.87 962.266C1496.18 929.899 1486.61 904.724 1501.14 876.15C1519.63 839.745 1584.39 802.096 1654.64 768.169C1724.89 734.242 1818.9 699.791 1940.43 662.529C2096.94 614.463 2285.15 577.103 2428.21 523.324C2583.26 465.006 2652.66 397.216 2617.45 358.827C2582.23 320.369 2433.17 317.198 2312.41 319.079C2243.36 320.155 2209.9 310.489 2192.89 297.482C2175.9 284.544 2180.12 263.232 2237.38 232.347" stroke="#7E9BF7" stroke-miterlimit="10"/>
<path d="M759.346 1250.41C914.109 1222 1080.9 1174.81 1216.82 1120.81C1352.74 1066.81 1459.87 1006.06 1501.42 955.38C1528.32 922.605 1517.51 897.235 1529.66 868.61C1544.3 833.192 1601.33 796.356 1666.51 762.262C1731.68 728.1 1822.45 692.647 1942.4 654.987C2099.16 605.756 2288.46 569.14 2434.77 515.336C2592.56 457.339 2668.66 388.198 2636.38 348.692C2604.1 309.185 2454.43 305.951 2327.41 310.685C2257.64 313.34 2219.93 306.375 2197.18 296.012C2174.44 285.649 2171.04 266.585 2222.7 236.769" stroke="#7898F7" stroke-miterlimit="10"/>
<path d="M805.985 1241.23C959.452 1212.41 1123.64 1165.38 1257 1111.75C1390.37 1058.11 1494.49 998.197 1533.96 948.494C1560.43 915.244 1548.69 889.744 1557.89 861.073C1568.97 826.64 1618.26 790.615 1678.36 756.287C1738.47 721.958 1826.23 685.297 1944.31 647.309C2101.59 596.774 2291.74 561.041 2441 507.283C2601.53 449.539 2684.59 378.976 2655 338.56C2625.42 298.143 2475.65 294.567 2342.38 302.223C2272.41 306.248 2229.95 302.262 2201.43 294.406C2173.19 286.48 2161.91 269.803 2207.98 241.055" stroke="#7395F6" stroke-miterlimit="10"/>
<path d="M852.907 1231.91C1005.1 1202.76 1166.63 1155.75 1297.49 1102.61C1428.06 1049.54 1529.14 990.339 1566.78 941.472C1592.84 907.814 1580.14 882.048 1586.69 853.397C1594.2 819.881 1635.47 784.739 1690.77 750.105C1746.06 715.471 1830.57 677.74 1946.81 639.493C2104.32 587.724 2295.29 552.806 2448.09 499.021C2611.34 441.529 2701.11 369.616 2674.21 328.289C2647.58 286.892 2497.7 282.906 2357.91 293.554C2287.45 298.951 2240.23 297.944 2206.24 292.593C2172.24 287.242 2153.37 272.881 2193.81 245.135" stroke="#6E92F6" stroke-miterlimit="10"/>
<path d="M899.55 1222.73C1050.45 1193.18 1209.64 1146.25 1337.69 1093.62C1465.72 1040.91 1563.51 982.62 1599.33 934.588C1624.68 900.525 1611.59 874.419 1615.19 845.791C1619.4 813.122 1652.67 778.861 1702.9 744.061C1753.13 709.261 1834.36 670.391 1948.75 631.885C2106.48 578.814 2298.59 544.777 2454.35 491.037C2620.33 433.799 2716.79 360.534 2692.86 318.227C2668.92 275.919 2519.16 271.317 2372.63 285.233C2301.68 292.001 2250 293.97 2210.25 291.195C2170.5 288.42 2144.01 276.307 2178.86 249.629" stroke="#698EF5" stroke-miterlimit="10"/>
<path d="M946.489 1213.47C1095.82 1183.59 1252.68 1136.75 1377.89 1084.55C1503.11 1032.34 1597.91 974.893 1631.87 927.627C1656.82 893.157 1642.76 866.785 1643.71 838.177C1644.62 806.354 1669.9 773.045 1715.05 738.009C1760.19 702.974 1838.15 662.967 1950.98 624.198C2108.95 569.895 2302.16 536.601 2461.18 482.905C2629.89 425.92 2733.06 351.372 2712.08 308.016C2691.09 264.66 2541.42 259.372 2388.18 276.623C2316.71 284.696 2260.58 289.641 2215.07 289.442C2169.84 289.172 2135.46 279.377 2164.71 253.768" stroke="#638BF5" stroke-miterlimit="10"/>
<path d="M993.113 1204.22C1140.87 1174.01 1295.39 1127.26 1418.08 1075.48C1540.77 1023.71 1631.99 967.177 1664.42 920.744C1688.66 885.869 1674.49 859.087 1671.94 830.643C1669.55 799.666 1686.82 767.239 1726.9 732.037C1766.98 696.835 1841.93 655.619 1952.92 616.591C2110.83 561.057 2305.45 528.573 2467.44 474.923C2638.88 418.19 2748.75 342.291 2730.45 298.025C2712.13 253.691 2562.55 247.65 2402.63 268.373C2330.63 277.682 2269.8 285.81 2218.8 288.048C2167.79 290.285 2125.55 282.945 2149.46 258.267" stroke="#5E88F4" stroke-miterlimit="10"/>
<path d="M1040.06 1194.96C1186.54 1164.42 1338.44 1117.76 1458.31 1066.48C1578.19 1015.21 1666.39 959.455 1697 913.857C1720.55 878.645 1705.96 851.456 1700.47 823.034C1694.77 792.835 1703.77 761.429 1738.78 726.061C1773.78 690.624 1845.45 648.27 1954.88 608.912C2113 552.075 2308.46 520.475 2473.71 466.869C2647.88 410.389 2764.72 333.068 2749.09 287.823C2733.47 242.579 2583.9 235.58 2417.59 259.773C2345.07 270.318 2279.8 281.49 2223.06 286.372C2166.3 291.185 2116.44 286.092 2134.76 262.483" stroke="#5985F4" stroke-miterlimit="10"/>
<path d="M1086.68 1185.78C1231.59 1154.91 1381.15 1108.34 1498.47 1057.42C1615.82 1006.58 1700.74 951.736 1729.5 906.905C1752.34 871.288 1737.64 843.689 1728.95 815.429C1719.95 786.076 1720.95 755.621 1750.87 719.949C1780.8 684.346 1849.19 640.854 1957.05 601.166C2115.1 543.03 2311.97 512.24 2480.48 458.677C2657.37 402.45 2780.93 323.846 2768.25 277.552C2755.57 231.259 2606.04 223.371 2433.12 251.241C2360.06 263.021 2290.37 277.306 2227.85 284.695C2165.34 292.084 2107.88 289.307 2120.56 266.631" stroke="#5482F3" stroke-miterlimit="10"/>
<path d="M1133.61 1176.46C1277.22 1145.19 1424.44 1098.7 1538.96 1048.28C1653.48 997.871 1735.12 943.946 1762.33 899.88C1784.48 863.925 1769.63 835.781 1757.74 807.682C1745.69 779.036 1738.16 749.672 1763.28 713.764C1788.4 677.856 1853.24 633.296 1959.55 593.346C2117.54 533.979 2315.81 503.931 2487.3 450.482C2666.9 394.439 2797.17 314.552 2787.45 267.278C2777.74 220.004 2627.6 211.026 2448.36 242.571C2374.47 255.589 2300.36 272.987 2232.37 282.881C2164.38 292.774 2099.02 292.316 2106.11 270.709" stroke="#4E7FF3" stroke-miterlimit="10"/>
<path d="M1180.28 1167.28C1322.35 1135.74 1467.19 1089.2 1579.2 1039.29C1691.18 989.305 1769.25 936.296 1794.92 893.062C1816.38 856.703 1801.4 828.149 1786.04 800.282C1770.67 772.414 1755.15 744.001 1775.2 707.926C1795.26 671.851 1856.53 626.155 1961.56 585.873C2119.47 525.206 2319.17 496.037 2493.9 442.563C2676.25 386.842 2813.2 305.535 2806.17 257.351C2799.15 209.167 2648.68 199.028 2463.42 234.314C2388.42 248.572 2310.48 269.079 2236.73 281.548C2162.99 294.017 2090.01 295.807 2091.5 275.269" stroke="#497CF2" stroke-miterlimit="10"/>
</g>
</svg>
