<svg width="1920" height="1622" viewBox="0 0 1920 1622" fill="none" xmlns="http://www.w3.org/2000/svg">
<g opacity="0.1">
<path d="M-575.487 267.703C-449.719 274.754 -316.35 286.174 -174.291 312.577C-32.5257 338.977 119.738 382.289 224.893 434.478C350.454 496.813 398.142 565.189 544.628 623.51C639.463 661.252 755.549 686.635 865.294 712.516C975.314 738.468 1094.31 770.168 1169.36 811.043C1303.88 884.325 1229.77 949.307 1377.63 1021.39C1475.26 1068.94 1622.05 1096.33 1750 1131.8C1911.85 1176.69 2057.51 1240.96 2135.9 1302.11C2214.28 1363.26 2223.68 1420.06 2161.2 1452.69" stroke="#1C2226" stroke-miterlimit="10"/>
<path d="M-558.974 265.709C-433.855 272.961 -300.642 284.927 -159.544 311.596C-74.4263 327.642 14.5451 349.806 94.6271 376.214C146.942 393.446 195.469 412.565 236.851 432.929C362.255 494.783 412.75 562.634 555.466 620.721C606.213 641.362 662.395 658.486 721.363 674.127C771.279 687.372 822.98 699.536 873.778 711.761C945.018 728.864 1020.64 748.19 1085.68 770.446C1121.69 782.763 1154.51 795.946 1181.73 810.112C1235.43 837.96 1259.38 864.554 1277.19 890.965C1303.16 929.069 1317.06 967.081 1386.41 1007.23C1393.74 1011.53 1401.95 1015.83 1410.73 1020.21C1507.4 1068.02 1647.55 1095.92 1767.69 1130.84C1885.36 1165.13 1992.23 1210.28 2069.61 1257.47C2091.96 1271.12 2111.62 1284.89 2128.64 1298.63C2159.03 1323.36 2179.53 1347.6 2189.93 1369.99C2205.74 1403.36 2199.43 1432.6 2169.04 1453.17" stroke="#23292E" stroke-miterlimit="10"/>
<path d="M-542.717 263.579C-417.989 271.169 -285.209 283.611 -144.758 310.48C-59.9739 326.66 28.1337 348.75 107.666 375.017C159.705 392.178 207.997 411.09 249.399 431.385C374.665 492.692 427.397 559.943 566.638 617.798C616.757 638.571 671.368 656.026 729.63 672.072C779.134 685.724 831.013 698.3 882.047 710.733C953.758 728.25 1029.93 747.717 1095.91 769.774C1132.26 781.958 1165.45 794.869 1193.87 808.976C1249.18 836.358 1276.49 862.567 1297.61 888.729C1328.41 926.46 1348.67 964.931 1419.04 1005.63C1426.64 1010 1434.56 1014.3 1443.34 1018.68C1539.34 1066.76 1672.31 1095.01 1784.6 1129.54C1894.45 1163.29 1992.55 1207.14 2064.5 1253.67C2085.42 1267.17 2104.2 1280.93 2120.33 1294.67C2149.53 1319.46 2170.22 1344.05 2182.24 1366.99C2200.19 1401.13 2199.43 1431.58 2176.11 1453.22" stroke="#2A2F37" stroke-miterlimit="10"/>
<path d="M-526.485 261.513C-402.405 269.304 -269.781 282.292 -129.998 309.429C-45.8412 325.741 41.422 347.688 120.404 373.813C171.894 390.834 219.93 409.607 261.371 429.766C386.755 490.662 441.999 557.386 577.785 614.941C626.981 635.844 680.317 653.631 738.167 670.084C787.259 684.144 839.059 696.993 890.564 709.839C962.747 727.77 1039.74 747.449 1106.39 769.238C1143.35 781.358 1177.17 794.137 1206.27 807.907C1263.46 834.893 1293.6 860.508 1318.3 886.56C1354.18 924.056 1380.84 962.85 1451.94 1004.1C1459.54 1008.47 1467.44 1012.84 1476.2 1017.29C1571.52 1065.71 1697.58 1094.38 1801.77 1128.3C1904.09 1161.58 1992.86 1204 2059.92 1250.08C2079.41 1263.43 2097.01 1277.18 2112.55 1290.92C2140.53 1315.83 2161.44 1340.69 2174.79 1364.13C2195.16 1399.11 2199.69 1430.69 2183.45 1453.35" stroke="#31363F" stroke-miterlimit="10"/>
<path d="M-510.245 259.444C-386.557 267.574 -254.365 281.038 -115.504 308.305C-31.9563 324.681 54.718 346.623 133.151 372.608C184.365 389.558 232.146 408.192 273.371 428.076C398.872 488.562 456.354 554.687 588.664 612.01C637.233 633.045 689.018 651.094 746.142 668.021C794.841 682.42 846.799 695.749 898.796 708.941C971.45 727.287 1049.01 747.038 1116.86 768.768C1154.17 780.685 1188.6 793.401 1218.67 806.905C1277.74 833.494 1310.67 858.651 1339 884.389C1379.71 921.512 1412.73 960.765 1485.13 1002.65C1492.71 1007.08 1500.88 1011.52 1509.36 1015.9C1603.74 1064.52 1723.16 1093.69 1819.53 1127.13C1914.02 1159.87 1993.75 1200.92 2055.65 1246.49C2073.68 1259.76 2090.14 1273.37 2105.08 1287.16C2131.86 1312.14 2152.94 1337.41 2167.92 1361.34C2190.71 1397.16 2200.24 1429.8 2191.35 1453.61" stroke="#383C47" stroke-miterlimit="10"/>
<path d="M-493.992 257.314C-370.677 265.715 -238.915 279.654 -100.722 307.19C-17.783 323.63 68.0078 345.565 146.185 371.411C197.125 388.29 244.65 406.785 285.639 426.462C410.983 486.469 471.252 552.136 599.832 609.089C647.753 630.324 697.987 648.635 754.699 665.968C802.987 680.775 855.122 694.516 907.354 707.915C980.205 726.604 1058.87 746.638 1127.38 768.099C1165.3 779.952 1200.1 792.397 1230.84 805.632C1291.8 831.825 1327.8 856.527 1359.45 882.017C1404.97 918.834 1444.64 958.549 1517.79 1000.91C1525.65 1005.42 1533.52 1009.86 1541.99 1014.3C1635.7 1063.19 1748.19 1092.86 1836.47 1125.69C1923.41 1158.03 1993.82 1197.57 2050.85 1242.62C2067.45 1255.75 2082.74 1269.34 2097.08 1283.14C2122.66 1308.17 2143.95 1333.79 2160.28 1358.13C2185.23 1394.66 2200.3 1428.57 2198.47 1453.46" stroke="#3F4350" stroke-miterlimit="10"/>
<path d="M-477.762 255.246C-355.095 263.847 -223.51 278.401 -85.9647 306.137C-3.63386 322.641 81.568 344.571 158.921 370.205C209.311 386.944 256.581 405.3 297.609 424.84C423.07 484.438 485.577 549.506 610.701 606.158C657.974 627.594 706.658 646.166 762.958 663.908C810.853 679.053 862.87 693.204 915.594 706.949C988.916 726.052 1068.13 746.227 1137.57 767.558C1175.82 779.277 1211.25 791.59 1242.94 804.559C1305.51 830.285 1344.88 854.602 1379.84 879.844C1430.47 916.358 1476.23 956.461 1550.39 999.382C1558.25 1003.89 1566.4 1008.4 1574.85 1012.91C1667.87 1062.13 1773.45 1092.23 1853.89 1124.59C1933.02 1156.39 1994.64 1194.7 2046.25 1239.09C2061.42 1252.07 2075.82 1265.66 2089.28 1279.45C2113.65 1304.61 2135.15 1330.5 2153.09 1355.41C2180.45 1392.77 2200.8 1427.82 2206.05 1453.79" stroke="#464958" stroke-miterlimit="10"/>
<path d="M-461.238 253.185C-338.963 262.126 -207.809 277.155 -71.1861 305.021C10.5166 321.657 94.8741 343.444 171.952 369.008C222.067 385.675 269.082 403.893 309.894 423.158C435.217 482.207 500.197 546.884 621.591 603.165C668.216 624.801 715.369 643.567 770.943 661.782C818.427 677.335 870.64 691.829 923.58 705.85C997.374 725.367 1077.43 745.685 1147.52 766.816C1186.38 778.471 1222.45 790.584 1254.8 803.352C1319.25 828.683 1361.44 852.406 1399.98 877.538C1455.41 913.746 1507.55 954.24 1583.02 997.786C1590.85 1002.36 1599.01 1006.87 1607.45 1011.38C1699.8 1060.88 1798.46 1091.46 1870.81 1123.22C1942.38 1154.62 1994.69 1191.42 2041.42 1235.36C2055.13 1248.26 2068.39 1261.71 2081.23 1275.63C2104.39 1300.85 2125.8 1327.08 2145.37 1352.48C2174.87 1390.61 2200.76 1426.93 2213.09 1453.92" stroke="#4D5060" stroke-miterlimit="10"/>
<path d="M-445.003 251.119C-323.101 260.33 -192.379 275.835 -56.4235 303.97C24.9455 320.739 108.439 342.452 184.692 367.804C234.552 384.333 281.017 402.409 322.143 421.608C447.583 480.247 514.781 544.394 632.74 600.307C678.737 622.075 724.594 641.242 779.481 659.793C826.573 675.685 878.944 690.66 932.375 705.026C1006.64 724.958 1087.25 745.416 1158.55 766.42C1197.74 777.941 1234.45 789.921 1267.75 802.424C1334.09 827.358 1379.36 850.625 1421.22 875.509C1481.76 911.414 1540.26 952.368 1616.47 996.398C1624.31 1000.97 1632.44 1005.55 1640.86 1010.13C1732.25 1059.89 1824.53 1091.11 1888.54 1122.12C1952.82 1153.19 1995.55 1188.42 2037.41 1231.84C2049.69 1244.59 2061.77 1258.03 2074.02 1271.94C2095.99 1297.22 2117.59 1323.8 2138.77 1349.76C2170.69 1388.73 2201.86 1426.19 2221.26 1454.25" stroke="#545669" stroke-miterlimit="10"/>
<path d="M-428.771 249.055C-307.536 258.534 -176.695 274.656 -41.6623 302.921C39.0983 319.754 122.003 341.462 197.706 366.673C247.016 383.061 293.52 401.001 334.391 420.061C459.949 478.291 529.384 541.838 643.867 597.52C689.217 619.488 733.524 638.917 787.979 657.944C834.659 674.243 886.932 689.559 940.854 704.271C1015.59 724.617 1096.75 745.217 1168.99 766.022C1208.8 777.479 1246.15 789.26 1279.84 801.423C1348.07 825.961 1396.42 848.773 1441.6 873.408C1506.94 909.008 1571.82 950.353 1649.06 994.939C1657.17 999.585 1665.28 1004.23 1673.43 1008.74C1764.15 1058.77 1849.48 1090.55 1905.7 1120.95C1962.4 1151.7 1995.82 1185.41 2032.53 1228.25C2043.38 1240.85 2054.58 1254.28 2065.94 1268.19C2086.72 1293.53 2108.51 1320.45 2131.03 1346.89C2165.37 1386.7 2201.82 1425.3 2228.29 1454.44" stroke="#5B5D71" stroke-miterlimit="10"/>
<path d="M-412.533 246.918C-291.671 256.669 -161.262 273.266 -27.1715 301.729C52.961 318.695 135.002 340.327 210.45 365.4C259.485 381.717 305.733 399.518 346.388 418.303C471.788 476.052 543.442 539.07 654.764 594.453C699.191 616.551 742.222 636.312 795.991 655.676C842.258 672.383 894.728 688.042 948.866 703.03C1024.07 723.79 1106.06 744.601 1178.97 765.138C1219.1 776.461 1257.1 788.041 1291.74 800.006C1361.85 824.148 1413.01 846.434 1461.78 870.892C1532.23 906.189 1603.47 947.992 1681.74 993.065C1689.84 997.78 1697.95 1002.43 1706.36 1007.07C1796.39 1057.44 1875.07 1089.79 1922.92 1119.51C1972.06 1149.85 1996.18 1182.06 2028 1224.45C2037.4 1236.97 2047.44 1250.32 2058.21 1264.23C2077.77 1289.69 2099.76 1316.96 2123.91 1343.89C2160.38 1384.47 2202.39 1424.27 2235.93 1454.5" stroke="#626379" stroke-miterlimit="10"/>
<path d="M-396.281 244.855C-275.812 254.945 -145.834 272.018 -12.3906 300.681C67.1333 317.71 148.585 339.339 223.208 364.199C271.968 380.446 317.687 398.038 358.381 416.686C483.899 474.026 557.75 536.581 665.656 591.528C709.435 613.827 750.916 633.849 804.253 653.689C850.128 670.735 902.756 686.874 957.11 702.138C1032.52 723.241 1115.34 744.195 1189.17 764.602C1229.92 775.862 1268.27 787.239 1303.87 798.938C1375.87 822.684 1430.11 844.514 1482.19 868.724C1557.73 903.786 1635.1 945.841 1714.37 991.538C1722.46 996.252 1730.85 1000.97 1738.96 1005.62C1828.33 1056.25 1900.04 1089.23 1940.11 1118.27C1981.38 1148.28 1996.49 1178.98 2023.19 1220.72C2031.15 1233.1 2040.03 1246.37 2050.2 1260.34C2068.55 1285.86 2090.74 1313.47 2116.23 1340.9C2155.12 1382.31 2202.41 1423.25 2243.02 1454.56" stroke="#696A82" stroke-miterlimit="10"/>
<path d="M-380.023 242.721C-260.201 253.011 -130.38 270.631 2.39587 299.562C81.3113 316.655 161.899 338.209 236.247 362.999C284.733 379.175 330.196 396.628 370.654 415.069C496.034 471.861 572.359 534.024 676.809 588.671C719.941 611.17 759.87 631.454 812.796 651.701C858.259 669.154 910.789 685.635 965.929 701.247C1041.81 722.764 1125.46 743.93 1200.23 764.139C1241.59 775.335 1280.58 786.512 1316.85 797.942C1391.01 821.362 1448.05 842.667 1503.46 866.628C1584.1 901.387 1667.82 943.902 1747.85 990.083C1756.21 994.868 1764.31 999.582 1772.4 1004.3C1860.83 1055.13 1925.56 1088.74 1957.86 1117.11C1991.56 1146.79 1997.37 1175.91 2019.18 1217.2C2025.69 1229.5 2033.69 1242.76 2042.99 1256.65C2060.15 1282.24 2082.54 1310.19 2109.64 1338.18C2150.94 1380.43 2203.51 1422.51 2251.19 1454.89" stroke="#70708A" stroke-miterlimit="10"/>
<path d="M-363.532 240.723C-244.102 251.352 -114.713 269.447 17.1405 298.508C95.4278 315.734 175.446 337.214 248.97 361.793C296.905 377.828 342.113 395.142 382.63 413.379C508.127 469.76 586.395 531.323 687.685 585.672C730.149 608.439 768.567 628.849 820.766 649.569C865.818 667.43 918.524 684.323 973.881 700.209C1050.23 722.141 1134.43 743.448 1210.15 763.459C1251.83 774.52 1291.46 785.565 1328.4 796.727C1404.45 819.683 1464.56 840.6 1523.29 864.313C1608.73 898.767 1698.84 941.672 1780.16 988.479C1788.51 993.332 1796.6 998.047 1804.69 1002.76C1892.43 1053.93 1950.22 1088.1 1974.47 1115.72C2000.29 1145.07 1997.1 1172.69 2014.04 1213.46C2019.11 1225.61 2025.96 1238.8 2034.65 1252.76C2050.59 1278.47 2073.17 1306.76 2101.64 1335.1C2145.09 1378.13 2203.22 1421.41 2257.98 1454.8" stroke="#777792" stroke-miterlimit="10"/>
<path d="M-347.29 238.659C-228.233 249.559 -99.2943 268.198 31.9114 297.459C109.865 314.819 189 336.293 261.994 360.662C309.654 376.626 354.607 393.802 395.162 411.902C520.502 467.803 600.969 528.904 699.117 582.887C740.658 605.784 777.801 626.526 829.588 647.654C874.247 665.853 927.131 683.158 982.684 699.388C1059.5 721.734 1144.55 743.185 1220.91 762.995C1263.21 773.992 1303.48 784.837 1341.09 795.73C1419.03 818.29 1482.22 838.752 1544.28 862.148C1634.83 896.299 1731.03 939.593 1813.37 986.955C1821.71 991.809 1830.06 996.662 1837.86 1001.37C1924.93 1052.81 1975.48 1087.54 1992.21 1114.63C2010.18 1143.57 1997.97 1169.69 2009.76 1209.87C2013.41 1221.87 2019.07 1235.05 2027.17 1249C2041.92 1274.78 2064.7 1303.41 2094.78 1332.31C2140.64 1376.18 2204.05 1420.59 2265.88 1455.07" stroke="#7E7E9B" stroke-miterlimit="10"/>
<path d="M-331.031 236.528C-212.641 247.696 -83.8397 266.813 46.6988 296.343C124.044 313.766 202.315 335.165 275.014 359.532C322.4 375.426 367.097 392.463 407.417 410.356C532.874 465.847 615.539 526.486 710.251 580.1C751.145 603.198 787.011 624.272 838.113 645.737C882.36 664.344 935.146 681.99 991.209 698.498C1068.5 721.258 1154.09 742.849 1231.4 762.462C1274.05 773.257 1314.95 783.969 1353.5 794.664C1433.32 816.828 1499.32 836.764 1564.97 859.982C1660.63 893.83 1763.19 937.584 1846.27 985.43C1854.9 990.354 1862.95 995.205 1871.02 999.988C1957.13 1051.69 2000.73 1086.99 2009.68 1113.4C2019.51 1141.94 1998.56 1166.61 2005.49 1206.28C2007.68 1218.2 2012.2 1231.24 2019.68 1245.32C2033.21 1271.22 2056.2 1300.14 2087.62 1329.52C2135.89 1374.23 2204.59 1419.78 2273.76 1455.41" stroke="#8584A3" stroke-miterlimit="10"/>
<path d="M-314.799 234.461C-196.782 245.901 -68.4315 265.561 61.4593 295.292C138.196 312.779 215.878 334.173 287.752 358.329C334.588 374.082 379.03 390.98 419.409 408.668C544.709 463.679 629.572 523.855 721.142 577.104C761.114 600.331 795.705 621.738 846.099 643.608C889.934 662.622 942.897 680.68 999.177 697.463C1076.94 720.637 1163.36 742.44 1241.59 761.923C1284.85 772.654 1326.12 783.096 1365.61 793.593C1447.34 815.292 1516.4 834.842 1585.37 857.811C1686.11 891.424 1794.77 935.498 1879.15 983.97C1887.78 988.894 1896.1 993.816 1903.88 998.596C1989.33 1050.57 2025.42 1086.29 2027.13 1112.23C2028.83 1140.3 1998.87 1163.47 2000.91 1202.69C2001.66 1214.46 2005.01 1227.49 2011.9 1241.57C2024.23 1267.53 2047.13 1296.78 2080.17 1326.66C2130.59 1372.14 2204.84 1418.89 2281.08 1455.6" stroke="#8C8BAC" stroke-miterlimit="10"/>
<path d="M-298.562 232.393C-180.937 244.171 -52.9985 264.239 75.9501 294.168C152.059 311.787 228.897 333.038 300.496 357.123C347.076 372.737 391.263 389.496 431.386 407.046C556.823 461.579 643.59 521.291 731.999 574.242C771.304 597.737 804.363 619.338 854.346 641.615C897.769 661.037 950.929 679.438 1007.68 696.636C1085.64 720.153 1172.88 742.168 1252.06 761.453C1295.65 772.049 1337.77 782.635 1377.73 792.519C1461.47 813.344 1533.48 832.916 1605.77 855.638C1711.34 888.877 1826.63 933.48 1911.76 982.437C1920.37 987.43 1928.69 992.351 1936.45 997.2C2021.21 1049.51 2050.08 1085.72 2044.02 1110.99C2037.58 1138.58 1998.87 1160.39 1996.06 1199.02C1995.11 1210.58 1997.57 1223.6 2003.85 1237.74C2014.98 1263.76 2038.08 1293.36 2072.73 1323.79C2125.56 1370.11 2205.1 1418 2288.41 1455.79" stroke="#9391B4" stroke-miterlimit="10"/>
<path d="M-282.326 230.259C-165.349 242.238 -37.5865 262.92 90.7144 293.049C166.214 310.732 242.444 332.047 313.238 355.852C359.543 371.395 403.475 388.016 443.382 405.29C568.936 459.414 657.351 518.522 742.895 571.177C781.276 594.803 813.06 616.736 862.611 639.489C905.642 659.249 958.684 678.061 1015.95 695.536C1094.38 719.467 1182.46 741.625 1262.29 760.71C1306.49 771.243 1349.04 781.352 1389.86 791.312C1475.38 812.15 1550.6 830.789 1626.18 853.33C1736.86 886.267 1858.24 931.259 1944.39 980.771C1953.27 985.834 1961.3 990.753 1969.06 995.602C2053.15 1048.18 2074.53 1084.81 2060.92 1109.61C2046.36 1136.73 1998.91 1157.1 1991.21 1195.29C1988.8 1206.77 1990.39 1219.78 1995.8 1233.85C2005.71 1259.99 2029.02 1289.87 2065.02 1320.79C2120.28 1367.88 2204.8 1416.9 2295.46 1455.84" stroke="#9A98BC" stroke-miterlimit="10"/>
<path d="M-265.816 228.264C-149.231 240.582 -21.8805 261.672 105.753 292.069C180.645 309.816 256.285 331.126 326.529 354.79C372.285 370.193 415.961 386.674 455.907 403.811C581.304 457.455 671.918 516.102 754.319 568.391C791.759 592.214 822.287 614.411 871.151 637.501C913.77 657.669 966.989 676.892 1024.47 694.643C1103.37 718.988 1192.01 741.287 1272.77 760.174C1317.3 770.572 1360.78 780.552 1402.27 790.243C1489.69 810.617 1567.98 828.869 1646.88 851.162C1762.63 883.863 1890.14 929.108 1977.57 979.314C1986.45 984.376 1994.74 989.435 2002.48 994.352C2085.62 1047.13 2099.77 1084.25 2078.93 1108.59C2055.96 1135.16 1999.75 1154.17 1987.18 1191.84C1983.34 1203.17 1983.77 1216.1 1988.57 1230.23C1997.29 1256.44 2020.78 1286.72 2058.4 1318.14C2115.81 1366 2205.88 1416.22 2303.61 1456.25" stroke="#A19EC5" stroke-miterlimit="10"/>
<path d="M-249.56 226.131C-133.348 238.72 -6.44866 260.354 120.262 290.881C194.801 308.83 269.322 329.927 339.291 353.52C384.772 368.852 428.192 385.195 468.178 402.196C593.692 455.43 685.954 513.473 765.47 565.535C801.987 589.488 831.239 612.017 879.672 635.583C921.879 656.159 975.275 675.793 1032.99 693.751C1112.38 718.442 1201.83 741.022 1283.25 759.639C1328.4 769.974 1372.24 779.683 1414.68 789.176C1503.98 809.154 1585.07 826.88 1667.57 848.995C1788.16 881.323 1922.3 927.097 2010.47 977.787C2019.33 982.918 2027.62 987.977 2035.36 992.894C2117.82 1046 2124.49 1083.48 2096.12 1107.28C2065.05 1133.32 2000.08 1150.95 1982.65 1188.11C1977.36 1199.36 1976.64 1212.15 1980.83 1226.34C1988.36 1252.61 2012.04 1283.24 2051 1315.14C2110.82 1363.84 2206.18 1415.2 2310.97 1456.3" stroke="#A8A5CD" stroke-miterlimit="10"/>
<path d="M-233.309 224.067C-117.744 236.857 8.97895 259.105 135.042 289.832C208.972 307.845 282.905 328.937 352.049 352.319C397.255 367.581 440.145 383.714 480.189 400.51C605.566 453.196 700.007 510.845 776.381 562.541C811.956 586.692 839.951 609.485 887.972 633.458C929.768 654.441 983.086 674.349 1041.55 692.791C1121.41 717.897 1211.42 740.549 1294.05 759.107C1339.8 769.378 1384.02 778.817 1427.12 788.041C1518.33 807.555 1602.5 824.825 1688.3 846.76C1814.01 878.717 1954.22 924.947 2043.41 976.193C2052.55 981.395 2060.56 986.383 2068.26 991.436C2150.05 1044.82 2149.22 1082.71 2113.61 1106.05C2074.41 1131.61 2000.69 1147.88 1978.11 1184.45C1971.38 1195.55 1969.49 1208.33 1973.09 1222.52C1979.4 1248.91 2003.3 1279.82 2043.87 1312.29C2106.11 1361.82 2206.75 1414.32 2318.61 1456.5" stroke="#AFABD5" stroke-miterlimit="10"/>
<path d="M-217.085 222.001C-101.913 235.129 24.3985 257.785 149.795 288.781C223.116 306.858 296.165 327.943 365.054 351.186C409.71 366.306 452.62 382.372 492.428 398.96C617.922 451.237 714.012 508.283 787.52 559.683C822.447 584.034 848.892 607.09 896.206 631.467C937.59 652.858 991.085 673.178 1049.76 691.895C1130.1 717.415 1220.93 740.279 1304.23 758.568C1350.31 768.705 1395.46 778.014 1439.22 786.969C1532.33 806.019 1619.57 822.902 1708.68 844.589C1839.5 876.242 1986.07 922.932 2076.28 974.733C2085.42 979.935 2093.69 985.061 2101.11 990.044C2182.22 1043.76 2174.19 1082.08 2130.76 1104.88C2083.18 1129.83 2000.7 1144.73 1973.5 1180.92C1965.34 1191.88 1962.57 1204.65 1965.29 1218.84C1970.4 1245.29 1994.47 1276.6 2036.42 1309.42C2100.79 1359.73 2206.99 1413.43 2325.92 1456.69" stroke="#B6B2DE" stroke-miterlimit="10"/>
<path d="M-200.828 219.867C-86.3043 233.196 39.831 256.466 164.305 287.592C237.017 305.732 309.477 326.813 377.542 349.844C421.923 364.895 464.578 380.821 504.15 397.203C629.486 448.999 727.499 505.512 798.121 556.685C831.831 581.164 857.295 604.554 904.198 629.339C945.189 651.069 998.566 671.798 1057.75 690.793C1138.29 716.657 1229.95 739.732 1314.18 757.823C1360.88 767.896 1406.39 776.934 1451.08 785.76C1546.1 804.345 1636.12 820.77 1728.82 842.28C1864.45 873.628 2017.4 920.708 2108.64 973.065C2117.75 978.334 2126.02 983.461 2133.7 988.583C2213.87 1042.5 2198.61 1081.31 2147.67 1103.57C2091.95 1128.05 2000.46 1141.45 1968.67 1177.19C1958.79 1188 1955.13 1200.76 1957.24 1215.01C1961.15 1241.52 1985.42 1273.18 2028.98 1306.56C2095.77 1357.7 2207.25 1412.54 2333.27 1456.82" stroke="#BDB8E6" stroke-miterlimit="10"/>
<path d="M-184.599 217.802C-70.467 231.47 55.2564 255.147 179.063 286.542C251.147 304.815 323.038 325.822 390.553 348.713C434.659 363.692 476.803 379.341 516.414 395.586C641.868 446.973 741.51 502.951 809.285 553.76C842.072 578.369 866.26 602.091 912.476 627.213C953.055 649.35 1006.63 670.423 1066.01 689.762C1147.02 716.04 1239.52 739.258 1324.41 757.149C1371.43 767.088 1417.58 775.994 1463.23 784.553C1560.13 802.742 1653.24 818.712 1749.27 839.905C1890 870.95 2049.04 918.419 2141.3 971.33C2150.41 976.6 2158.94 981.866 2166.34 986.917C2245.82 1041.17 2223.11 1080.27 2164.9 1102.13C2101.08 1126.07 2000.81 1138.16 1963.87 1173.32C1952.55 1183.98 1947.74 1196.67 1949.24 1210.98C1951.93 1237.62 1976.42 1269.55 2021.31 1303.42C2090.52 1355.41 2207.28 1411.38 2340.37 1456.73" stroke="#C4BFEE" stroke-miterlimit="10"/>
<path d="M-168.083 215.739C-54.3238 229.678 70.9485 253.899 194.107 285.494C265.583 303.83 336.61 324.763 403.85 347.583C447.701 362.424 489.57 378.002 528.946 394.04C654.242 444.946 755.533 500.322 820.696 550.974C852.542 575.781 875.493 599.699 921.258 625.365C961.425 647.909 1015.18 669.394 1075.05 689.079C1156.53 715.77 1249.58 739.13 1335.66 756.962C1383.3 766.837 1429.82 775.472 1476.13 783.763C1574.68 801.348 1671.11 817.07 1770.46 838.014C1916.28 868.824 2081.7 916.685 2174.98 970.151C2184.37 975.492 2192.6 980.755 2200 985.806C2278.81 1040.33 2248.6 1079.85 2182.87 1101.17C2110.68 1124.43 2001.64 1135.23 1960.09 1170.01C1947.34 1180.52 1941.62 1193.27 1942.26 1207.51C1943.75 1234.2 1968.44 1266.48 2014.94 1300.91C2086.29 1353.66 2208.61 1410.84 2348.76 1457.28" stroke="#CBC5F7" stroke-miterlimit="10"/>
<path d="M-151.837 213.674C27.0481 236.185 235.345 284.783 416.602 346.381C597.858 407.978 749.619 481.872 831.307 547.976C862.21 572.981 883.905 597.163 929.258 623.237C1022.97 677.254 1194.73 725.642 1345.63 756.217C1496.25 786.722 1639.72 805.13 1790.64 835.637C1941.28 866.074 2113.06 914.393 2207.36 968.415C2317.1 1031.38 2279.82 1077.01 2199.8 1099.8C2119.49 1122.58 2001.71 1131.95 1955.01 1166.14C1914.28 1196 1933.23 1244.18 2007 1297.77C2080.76 1351.36 2208.36 1409.68 2355.58 1457.19" stroke="#D2CCFF" stroke-miterlimit="10"/>
<path d="M-105.183 222.853C72.4265 245.696 278.093 294.206 456.522 355.372C634.951 416.537 784.866 489.663 863.863 554.858C894.649 580.273 914.204 604.712 957.771 630.84C1046.16 683.859 1211.94 731.517 1357.77 762.259C1503.33 792.93 1643.57 812.271 1792.57 843.311C1943.52 874.708 2116.35 922.488 2213.61 976.464C2326.1 1039.11 2295.79 1086.16 2218.15 1109.92C2140.5 1133.69 2019.91 1142.55 1969.68 1174.67C1926.3 1202.46 1942.95 1248.36 2010.96 1299.37C2078.97 1350.39 2198.96 1406.45 2340.58 1452.9" stroke="#CDC9FE" stroke-miterlimit="10"/>
<path d="M-58.2741 232.181C117.765 255.354 321.096 303.778 496.992 364.513C672.888 425.249 820.642 497.674 896.674 561.888C927.323 587.781 944.503 612.271 986.283 638.454C1069.1 690.335 1229.14 737.402 1369.63 768.24C1510.38 799.216 1647.43 819.423 1794.52 850.927C1945.77 883.352 2119.95 930.527 2220.16 984.526C2335.68 1046.85 2311.76 1095.32 2237.08 1120.06C2162.4 1144.81 2038.99 1153.24 1984.97 1183.14C1938.68 1208.71 1953.26 1252.55 2015.52 1300.99C2078.05 1349.5 2190.14 1403.25 2326.17 1448.62" stroke="#C7C6FE" stroke-miterlimit="10"/>
<path d="M-11.6269 241.362C163.117 264.936 363.817 313.271 537.199 373.508C710.582 433.746 855.882 505.468 929.224 568.772C959.736 595.143 974.54 619.683 1014.79 646.059C1092.3 696.874 1246.08 743.14 1381.76 774.283C1517.45 805.426 1651.29 826.498 1796.74 858.605C1948.01 891.988 2123.81 938.628 2226.69 992.579C2345.25 1054.65 2327.72 1104.47 2256.01 1130.19C2184.3 1155.92 2057.8 1163.78 1999.95 1191.6C1951.32 1215.03 1963.02 1256.59 2019.78 1302.59C2076.55 1348.53 2181.04 1399.96 2311.45 1444.33" stroke="#C2C3FD" stroke-miterlimit="10"/>
<path d="M35.3017 250.618C208.495 274.453 407.114 322.841 577.669 382.646C748.224 442.451 891.364 513.473 962.035 575.799C992.41 602.647 1004.86 627.169 1043.56 653.808C1115.79 703.487 1263.54 749.16 1394.14 780.538C1524.74 811.916 1655.39 833.852 1799.2 866.494C1951.06 900.908 2127.63 946.938 2233.75 1000.91C2355.33 1062.74 2344.22 1113.83 2275.45 1140.61C2206.41 1167.31 2077.42 1174.61 2015.74 1200.34C1964.48 1221.64 1973.84 1261.05 2024.84 1304.48C2075.85 1347.91 2172.73 1397.02 2297.53 1440.4" stroke="#BDC0FD" stroke-miterlimit="10"/>
<path d="M81.9389 259.868C253.837 284.104 449.844 332.335 617.592 391.64C785.34 450.944 926.319 521.266 994.32 582.613C1024.56 609.939 1034.91 634.582 1071.82 661.275C1138.77 709.819 1280.49 754.898 1406.02 786.443C1531.56 817.988 1659.24 840.996 1801.17 874.034C1953.33 909.477 2130.96 954.899 2240.04 1008.83C2364.37 1070.33 2360.21 1122.92 2293.86 1150.53C2227.79 1178.22 2095.98 1185.01 2030.2 1208.59C1976.58 1227.82 1983.35 1264.95 2028.6 1305.81C2073.85 1346.66 2163.11 1393.53 2282.04 1435.76" stroke="#B8BDFC" stroke-miterlimit="10"/>
<path d="M128.863 269.122C299.191 293.688 492.862 341.833 658.058 400.776C823.253 459.719 961.522 529.198 1027.13 589.638C1057.23 617.442 1065.22 642.067 1100.31 668.951C1162.27 716.362 1297.41 760.707 1418.14 792.557C1538.59 824.336 1663.07 848.21 1803.37 881.783C1955.81 918.323 2134.54 963.001 2246.84 1017.02C2374.19 1078.28 2376.43 1132.21 2313.03 1160.87C2249.62 1189.54 2115.6 1195.83 2045.71 1217.26C1990.03 1234.42 1993.62 1269.28 2033.39 1307.62C2073.15 1345.97 2154.55 1390.45 2267.86 1431.69" stroke="#B2BAFC" stroke-miterlimit="10"/>
<path d="M175.522 278.305C344.554 303.271 535.614 351.259 698.276 409.772C860.939 468.286 996.479 536.991 1059.69 596.523C1089.65 624.805 1095.56 649.482 1128.84 676.49C1185.84 722.7 1314.64 766.517 1430.02 798.463C1545.68 830.48 1666.93 855.355 1805.33 889.392C1958.06 926.961 2138.12 971.102 2253.11 1025.01C2383.21 1085.94 2392.15 1141.23 2331.69 1170.94C2271.23 1200.65 2134.74 1206.31 2060.7 1225.72C2002.96 1240.81 2003.66 1273.39 2037.65 1309.23C2071.67 1345 2145.17 1387.16 2253.16 1427.4" stroke="#ADB6FB" stroke-miterlimit="10"/>
<path d="M222.425 287.63C389.907 312.858 578.611 360.828 738.466 418.841C898.32 476.854 1031.41 544.857 1092.22 603.481C1122.05 632.241 1125.62 656.832 1157.33 684.169C1209.63 729.249 1331.82 772.468 1442.14 804.58C1552.71 836.832 1671.57 860.799 1807.53 897.144C1959.95 937.858 2141.68 979.274 2259.91 1033.21C2392.75 1093.82 2408.37 1150.52 2350.6 1181.14C2292.83 1211.77 2154.37 1217.07 2075.69 1234.19C2015.86 1247.28 2013.67 1277.57 2041.93 1310.77C2070.17 1344.03 2136.09 1383.81 2238.46 1423.05" stroke="#A8B3FB" stroke-miterlimit="10"/>
<path d="M269.083 296.81C435.269 322.439 621.637 370.322 778.664 427.903C935.986 485.486 1066.34 552.715 1124.78 610.363C1154.47 639.601 1155.96 664.244 1185.87 691.705C1233.47 735.654 1348.79 778.136 1454.28 810.623C1559.79 843.04 1675.99 868.014 1809.76 904.821C1962.41 946.768 2145.26 987.372 2266.46 1041.26C2402.32 1101.62 2424.34 1159.67 2369.54 1191.27C2314.74 1222.88 2174.06 1227.69 2090.97 1242.65C2029.36 1253.74 2023.73 1281.62 2046.49 1312.37C2069.25 1343.13 2127.28 1380.59 2224.05 1418.76" stroke="#A3B0FA" stroke-miterlimit="10"/>
<path d="M316.005 306.062C480.896 332.092 664.653 379.819 819.148 436.969C973.642 494.12 1101.29 560.507 1157.6 617.318C1186.88 646.963 1186.59 671.662 1214.37 699.311C1257.31 742.061 1365.99 784.014 1466.41 816.667C1566.84 849.319 1679.24 877.274 1811.98 912.5C1966.1 953.432 2148.86 995.404 2273.27 1049.38C2411.89 1109.42 2440.86 1168.97 2388.74 1201.48C2336.63 1233.99 2194.28 1238.44 2106.23 1251.18C2043.1 1260.35 2034.01 1285.87 2051.02 1314.05C2068.03 1342.23 2118.43 1377.45 2209.62 1414.54" stroke="#9DADFA" stroke-miterlimit="10"/>
<path d="M362.648 315.318C525.968 341.678 707.369 389.387 859.35 446.039C1011.33 502.692 1136.23 568.374 1190.15 624.277C1219.29 654.4 1217.21 679.153 1242.87 706.992C1281.39 748.682 1382.9 789.896 1478.54 822.785C1573.9 855.605 1683.06 884.561 1813.92 920.183C1968.32 962.212 2152.15 1003.51 2279.55 1057.37C2420.89 1117.16 2456.58 1177.99 2407.41 1211.55C2358.24 1245.11 2213.97 1249.07 2121.24 1259.58C2056.58 1266.89 2044.08 1289.92 2055.33 1315.52C2066.58 1341.13 2109.39 1374.03 2194.96 1410.13" stroke="#98AAF9" stroke-miterlimit="10"/>
<path d="M409.583 324.565C571.627 351.257 750.398 398.878 899.551 455.098C1048.7 511.318 1170.87 576.227 1222.69 631.224C1251.42 661.755 1247.55 686.563 1271.39 714.593C1305.8 755.157 1400.13 795.7 1490.41 828.754C1580.68 861.808 1686.88 891.836 1815.85 927.854C1970.79 971.118 2155.44 1011.6 2285.8 1065.42C2429.9 1124.88 2472.26 1187.13 2425.76 1221.67C2379.26 1256.21 2233.89 1259.89 2135.64 1268.03C2070.02 1273.55 2053.23 1294.02 2059.01 1317.12C2064.78 1340.22 2099.69 1370.8 2179.66 1405.83" stroke="#93A7F9" stroke-miterlimit="10"/>
<path d="M456.212 333.82C616.687 360.842 793.121 408.376 939.742 464.167C1086.36 519.957 1205.53 584.022 1254.95 638.111C1283.52 669.188 1277.89 693.982 1299.61 722.201C1329.89 761.707 1417.04 801.58 1502.25 834.8C1587.73 868.091 1690.67 899.189 1817.78 935.535C1972.99 979.897 2158.45 1019.63 2292.33 1073.55C2439.17 1132.69 2488.2 1196.36 2444.67 1231.88C2401.14 1267.4 2254.38 1270.79 2150.9 1276.57C2084.02 1280.3 2063.54 1298.2 2063.54 1318.8C2063.54 1339.39 2090.85 1367.66 2165.23 1401.62" stroke="#8EA4F9" stroke-miterlimit="10"/>
<path d="M503.14 343.074C662.319 370.497 836.417 417.944 980.23 473.234C1124.04 528.524 1240.46 591.884 1287.8 644.999C1315.96 676.484 1309.09 701.474 1328.16 729.673C1354.32 768.121 1434 807.252 1514.4 840.777C1594.81 874.303 1694.78 906.474 1820.03 943.148C1975.77 988.744 2162.05 1027.66 2298.89 1081.53C2448.46 1140.42 2504.49 1205.44 2463.63 1241.94C2422.76 1278.44 2275.16 1281.69 2166.18 1285.03C2098.59 1287.11 2073.85 1302.39 2068.11 1320.34C2062.36 1338.36 2082.07 1364.31 2150.81 1397.33" stroke="#88A1F8" stroke-miterlimit="10"/>
<path d="M549.795 352.258C707.423 379.943 879.165 427.373 1020.43 482.301C1161.69 537.23 1274.84 599.606 1320.33 651.955C1348.08 683.847 1339.72 708.894 1356.65 737.35C1378.99 774.742 1451.21 813.132 1526.52 846.893C1601.84 880.653 1698.85 913.896 1822.23 950.897C1978.5 997.73 2165.59 1035.9 2305.69 1089.73C2458.01 1148.3 2520.71 1214.74 2482.54 1252.15C2444.65 1289.63 2296.17 1292.8 2181.17 1293.5C2112.58 1293.93 2083.89 1306.5 2072.38 1321.95C2060.87 1337.39 2072.96 1361.09 2136.11 1393.05" stroke="#839EF8" stroke-miterlimit="10"/>
<path d="M596.699 361.58C753.032 389.665 922.163 436.938 1060.62 491.366C1199.07 545.794 1309.47 607.466 1352.87 658.909C1380.18 691.276 1370.61 716.451 1385.14 745.025C1403.63 781.43 1468.39 819.079 1538.64 853.006C1608.89 886.933 1702.9 921.384 1824.43 958.646C1980.94 1006.71 2169.15 1044.07 2312.21 1097.85C2467.26 1156.17 2536.66 1223.96 2501.45 1262.35C2466.23 1300.81 2317.17 1303.98 2196.41 1302.1C2127.36 1301.02 2093.9 1310.69 2076.89 1323.69C2059.9 1336.63 2064.12 1357.94 2121.38 1388.83" stroke="#7E9BF7" stroke-miterlimit="10"/>
<path d="M643.346 370.763C798.109 399.178 964.903 446.365 1100.82 500.363C1236.74 554.361 1343.87 615.118 1385.42 665.794C1412.32 698.569 1401.51 723.939 1413.66 752.564C1428.3 787.982 1485.33 824.818 1550.51 858.912C1615.68 893.074 1706.45 928.527 1826.4 966.187C1983.16 1015.42 2172.46 1052.03 2318.77 1105.84C2476.56 1163.83 2552.66 1232.98 2520.38 1272.48C2488.1 1311.99 2338.43 1315.22 2211.41 1310.49C2141.64 1307.83 2103.93 1314.8 2081.18 1325.16C2058.44 1335.52 2055.04 1354.59 2106.7 1384.41" stroke="#7898F7" stroke-miterlimit="10"/>
<path d="M689.993 379.946C843.46 408.762 1007.64 455.792 1141.01 509.429C1274.38 563.065 1378.5 622.978 1417.96 672.68C1444.44 705.931 1432.7 731.431 1441.9 760.102C1452.98 794.534 1502.27 830.559 1562.37 864.888C1622.47 899.216 1710.24 935.878 1828.32 973.865C1985.6 1024.4 2175.74 1060.13 2325.01 1113.89C2485.53 1171.64 2568.6 1242.2 2539.01 1282.61C2509.42 1323.03 2359.66 1326.61 2226.39 1318.95C2156.42 1314.93 2113.96 1318.91 2085.44 1326.77C2057.2 1334.69 2045.92 1351.37 2091.98 1380.12" stroke="#7395F6" stroke-miterlimit="10"/>
<path d="M736.907 389.268C889.099 418.416 1050.63 465.426 1181.49 518.564C1312.06 571.632 1413.14 630.837 1450.78 679.705C1476.84 713.362 1464.14 739.129 1470.69 767.779C1478.2 801.295 1519.47 836.438 1574.77 871.072C1630.06 905.706 1714.57 943.437 1830.81 981.684C1988.32 1033.45 2179.29 1068.37 2332.09 1122.16C2495.34 1179.65 2585.1 1251.56 2558.21 1292.89C2531.58 1334.28 2381.7 1338.27 2241.91 1327.62C2171.45 1322.23 2124.23 1323.23 2090.24 1328.58C2056.24 1333.93 2037.37 1348.3 2077.81 1376.04" stroke="#6E92F6" stroke-miterlimit="10"/>
<path d="M783.558 398.449C934.454 427.998 1093.65 474.921 1221.7 527.559C1349.72 580.265 1447.52 638.556 1483.33 686.588C1508.69 720.651 1495.6 746.757 1499.2 775.385C1503.41 808.054 1536.68 842.315 1586.91 877.115C1637.13 911.915 1718.37 950.785 1832.76 989.291C1990.49 1042.36 2182.59 1076.4 2338.36 1130.14C2504.34 1187.38 2600.8 1260.64 2576.86 1302.95C2552.93 1345.26 2403.16 1349.86 2256.64 1335.94C2185.68 1329.17 2134.01 1327.21 2094.26 1329.98C2054.51 1332.76 2028.02 1344.87 2062.87 1371.55" stroke="#698EF5" stroke-miterlimit="10"/>
<path d="M830.489 407.707C979.816 437.586 1136.68 484.423 1261.89 536.629C1387.11 588.834 1481.91 646.281 1515.87 693.547C1540.82 728.017 1526.76 754.389 1527.71 782.997C1528.62 814.82 1553.9 848.13 1599.05 883.165C1644.19 918.2 1722.15 958.207 1834.98 996.976C1992.95 1051.28 2186.16 1084.57 2345.18 1138.27C2513.89 1195.25 2617.06 1269.8 2596.08 1313.16C2575.09 1356.51 2425.42 1361.8 2272.18 1344.55C2200.71 1336.48 2144.58 1331.53 2099.07 1331.73C2053.84 1332 2019.46 1341.8 2048.71 1367.41" stroke="#638BF5" stroke-miterlimit="10"/>
<path d="M877.113 416.955C1024.87 447.165 1179.39 493.915 1302.08 545.691C1424.77 597.467 1515.99 653.997 1548.42 700.43C1572.66 735.305 1558.49 762.087 1555.94 790.531C1553.55 821.508 1570.82 853.935 1610.9 889.137C1650.98 924.339 1725.93 965.555 1836.92 1004.58C1994.83 1060.12 2189.45 1092.6 2351.44 1146.25C2522.88 1202.98 2632.75 1278.88 2614.45 1323.15C2596.13 1367.48 2446.55 1373.52 2286.63 1352.8C2214.63 1343.49 2153.8 1335.36 2102.8 1333.13C2051.79 1330.89 2009.55 1338.23 2033.46 1362.91" stroke="#5E88F4" stroke-miterlimit="10"/>
<path d="M924.07 426.21C1070.55 456.751 1222.44 503.414 1342.32 554.689C1462.2 605.964 1550.4 661.719 1581 707.317C1604.55 742.529 1589.97 769.718 1584.48 798.139C1578.78 828.338 1587.78 859.744 1622.79 895.113C1657.79 930.549 1729.46 972.903 1838.88 1012.26C1997.01 1069.1 2192.47 1100.7 2357.72 1154.3C2531.89 1210.78 2648.73 1288.11 2633.1 1333.35C2617.47 1378.59 2467.91 1385.59 2301.6 1361.4C2229.07 1350.86 2163.81 1339.68 2107.07 1334.8C2050.31 1329.99 2000.45 1335.08 2018.76 1358.69" stroke="#5985F4" stroke-miterlimit="10"/>
<path d="M970.689 435.39C1115.6 466.262 1265.16 512.838 1382.48 563.752C1499.83 614.597 1584.74 669.437 1613.51 714.268C1636.35 749.885 1621.65 777.484 1612.96 805.744C1603.95 835.097 1604.96 865.552 1634.87 901.224C1664.81 936.827 1733.2 980.319 1841.05 1020.01C1999.1 1078.14 2195.98 1108.93 2364.49 1162.5C2541.38 1218.72 2664.93 1297.33 2652.25 1343.62C2639.57 1389.91 2490.05 1397.8 2317.12 1369.93C2244.06 1358.15 2174.38 1343.87 2111.86 1336.48C2049.35 1329.09 1991.89 1331.87 2004.57 1354.54" stroke="#5482F3" stroke-miterlimit="10"/>
<path d="M1017.61 444.713C1161.22 475.985 1308.44 522.475 1422.96 572.888C1537.48 623.301 1619.12 677.226 1646.33 721.293C1668.48 757.247 1653.63 785.392 1641.74 813.491C1629.69 842.136 1622.16 871.5 1647.28 907.409C1672.4 943.317 1737.24 987.877 1843.55 1027.83C2001.54 1087.19 2199.81 1117.24 2371.3 1170.69C2550.9 1226.73 2681.17 1306.62 2671.45 1353.89C2661.74 1401.17 2511.6 1410.15 2332.36 1378.6C2258.47 1365.58 2184.36 1348.19 2116.37 1338.29C2048.38 1328.4 1983.02 1328.86 1990.11 1350.46" stroke="#4E7FF3" stroke-miterlimit="10"/>
<path d="M1064.29 453.899C1206.36 485.433 1351.2 531.973 1463.21 581.888C1575.19 631.871 1653.25 684.88 1678.93 728.114C1700.38 764.473 1685.41 793.027 1670.04 820.894C1654.68 848.762 1639.15 877.175 1659.21 913.25C1679.27 949.325 1740.54 995.021 1845.57 1035.3C2003.48 1095.97 2203.18 1125.14 2377.91 1178.61C2560.26 1234.33 2697.21 1315.64 2690.18 1363.82C2683.16 1412.01 2532.69 1422.15 2347.43 1386.86C2272.43 1372.6 2194.49 1352.1 2120.74 1339.63C2046.99 1327.16 1974.02 1325.37 1975.51 1345.91" stroke="#497CF2" stroke-miterlimit="10"/>
</g>
</svg>
