<svg width="924" height="1939" viewBox="0 0 924 1939" fill="none" xmlns="http://www.w3.org/2000/svg">
<g opacity="0.2">
<path d="M-273.197 230.233C-207.129 249.758 -142.278 274.704 -92.0186 316.59C-41.9326 358.447 -7.90443 419.491 -13.8452 485.612C-20.9623 564.584 -82.7426 642.661 -72.0131 719.301C-65.0459 768.902 -29.0078 807.226 2.57027 845.484C34.2199 883.845 63.6544 929.241 54.6211 980.333C38.4075 1071.93 -91.8944 1134.79 -98.535 1226.37C-102.851 1286.78 -51.0683 1330.19 -21.2393 1380.48C16.446 1444.13 18.8256 1527.09 -15.0078 1600.31C-48.8413 1673.54 -118.267 1735.52 -198.853 1764.7" stroke="#1C2226" stroke-miterlimit="10"/>
<path d="M-260.662 229.656C-195.247 249.335 -131.212 274.853 -81.8806 316.935C-52.0655 342.275 -28.0275 374.564 -14.9249 410.572C-6.34018 434.074 -2.51927 459.247 -4.62697 485.08C-11.2039 563.52 -70.6067 641.298 -61.8273 717.329C-58.6876 744.349 -47.643 768.103 -32.967 790.526C-20.5511 809.512 -5.63625 827.504 8.65605 845.477C28.7551 870.637 48.5416 898.604 58.1151 928.719C63.4246 945.387 65.6733 962.683 63.2688 980.506C58.6529 1015.56 37.8655 1046.44 13.6376 1076.54C-21.1552 1119.99 -63.0632 1162.2 -74.5477 1211.97C-75.8365 1217.29 -76.6047 1222.7 -77.1277 1228.24C-82.3718 1288.85 -35.2231 1332.16 -9.36595 1381.13C15.847 1429.18 20.2345 1487.9 4.25048 1546C-0.390444 1562.81 -6.79714 1579.48 -14.7657 1595.89C-29.2275 1625.37 -48.9778 1653.39 -72.3247 1678.46C-106.952 1715.86 -149.376 1746.71 -194.775 1765.95" stroke="#23292E" stroke-miterlimit="10"/>
<path d="M-248.094 228.906C-183.362 248.912 -120.214 274.901 -71.5362 317.136C-42.0985 342.59 -18.4791 374.716 -5.51964 410.52C2.99347 433.92 6.94671 458.847 4.94096 484.609C-0.993865 562.446 -58.2642 639.793 -51.2614 715.244C-48.6728 742.347 -39.0056 766.307 -25.2884 789.098C-13.6579 808.483 0.818812 826.936 14.9788 845.154C34.8131 870.804 54.7428 898.975 65.1428 928.966C70.8298 945.522 73.6598 962.561 72.0514 980.434C69.017 1015.14 50.7502 1045.92 28.8391 1076.07C-2.56539 1119.58 -41.2672 1162.88 -52.8732 1213.35C-54.0905 1218.77 -55.0322 1224.15 -55.5553 1229.69C-61.5543 1290.52 -19.1823 1333.53 2.49911 1381.33C23.7402 1428.06 24.5833 1484.55 6.21972 1541.43C0.915021 1557.94 -6.0123 1574.52 -14.5015 1590.83C-29.7594 1620.27 -49.8461 1648.68 -72.9674 1674.5C-107.328 1712.93 -148.014 1745.6 -190.605 1766.68" stroke="#2A2F37" stroke-miterlimit="10"/>
<path d="M-235.642 228.226C-171.563 248.386 -109.231 274.948 -61.308 317.409C-32.4213 342.945 -9.11861 374.836 3.69768 410.437C12.0676 433.633 16.0513 458.387 14.2495 484.006C8.92639 561.413 -46.14 638.43 -40.8119 713.231C-38.9477 740.385 -30.4845 764.582 -17.5526 787.772C-6.70733 807.556 7.36147 826.295 21.2568 845.003C40.8265 871.144 60.9709 899.621 72.1258 929.386C78.2618 945.931 81.6428 962.888 80.8913 980.464C79.5098 1014.92 63.7226 1045.33 44.0979 1075.7C16.0514 1119.44 -19.2404 1163.7 -31.1415 1214.83C-32.3587 1220.25 -33.4024 1225.7 -34.0275 1231.31C-40.8834 1292.45 -3.21641 1335.26 14.4216 1381.63C31.7624 1427.14 28.9178 1481.2 8.21582 1537.13C2.24734 1553.35 -5.37408 1569.81 -14.2103 1586.06C-30.3663 1615.51 -50.6874 1644.24 -73.6547 1670.72C-107.677 1710.28 -146.697 1744.67 -186.377 1767.51" stroke="#31363F" stroke-miterlimit="10"/>
<path d="M-223.171 227.544C-159.775 248.031 -98.3304 275.063 -51.1318 317.577C-22.6941 343.123 0.261473 374.954 12.9346 410.351C21.233 433.445 25.247 458.025 23.6795 483.327C18.9682 560.305 -33.9658 636.89 -30.4142 711.112C-29.1011 738.349 -21.9135 762.68 -10.0424 786.31C0.119569 806.422 13.6483 825.692 27.3808 844.819C46.6859 871.45 67.0754 900.059 79.0265 929.874C85.6419 946.235 89.4718 963.182 89.6488 980.562C89.9204 1014.77 76.4086 1044.96 59.3762 1075.33C34.7181 1119.13 2.63243 1164.49 -9.31857 1216.41C-10.6378 1221.9 -11.6099 1227.46 -12.3065 1232.97C-19.9889 1294.22 13.0444 1336.94 26.6086 1382.06C39.9776 1426.25 33.5171 1477.97 10.4052 1532.86C3.67094 1548.85 -4.44081 1565.05 -13.7261 1581.31C-30.6782 1610.72 -51.4374 1639.9 -74.0772 1667.06C-107.761 1707.76 -145.187 1743.77 -181.986 1768.54" stroke="#383C47" stroke-miterlimit="10"/>
<path d="M-210.615 226.793C-147.8 247.537 -87.2427 275.04 -40.7989 317.779C-12.8103 343.336 9.62466 375.076 22.3282 410.299C30.555 433.291 34.5994 457.698 33.1642 482.755C28.993 559.201 -21.6653 635.559 -19.86 709.027C-19.1998 736.419 -13.2877 760.884 -2.20187 784.913C7.17476 805.424 20.2652 825.154 33.8654 844.526C52.8341 871.545 73.51 900.563 86.216 930.152C93.2804 946.502 97.6918 963.192 98.6237 980.347C100.548 1014.31 89.4856 1044.3 74.7699 1074.72C53.3982 1118.65 24.6922 1165.13 12.5481 1217.65C11.3005 1223.24 10.1548 1228.76 9.35624 1234.35C0.918942 1295.83 29.1453 1338.42 38.666 1382.12C48.0328 1425.16 37.9866 1474.38 12.6381 1528.25C5.24014 1543.94 -3.56572 1560.02 -13.1981 1576.22C-30.9463 1605.57 -52.0418 1635.15 -74.4257 1662.89C-107.741 1704.54 -143.532 1742.46 -177.521 1769.06" stroke="#3F4350" stroke-miterlimit="10"/>
<path d="M-198.158 226.11C-135.996 247.008 -76.3563 275.155 -30.5655 318.048C-3.0259 343.616 19.062 375.295 31.5508 410.212C39.6344 433.001 43.7092 457.234 42.4779 482.148C38.9185 558.165 -9.60746 634.091 -9.47678 706.908C-9.46955 734.454 -4.833 759.053 5.46753 783.482C14.1608 804.32 26.6395 824.48 40.0771 844.271C58.7811 871.78 79.6001 901.001 93.0306 930.538C100.473 946.776 105.435 963.384 107.295 980.343C110.801 1013.96 102.259 1043.85 89.8603 1074.32C71.9486 1118.4 46.3771 1165.89 34.1115 1219.09C32.8639 1224.69 31.7898 1230.31 30.8892 1235.97C21.5951 1297.75 45.1163 1340.14 50.5632 1382.59C55.9582 1424.31 42.2655 1471.37 14.5374 1524.02C6.47567 1539.42 -2.85082 1555.4 -13.0038 1571.51C-31.6501 1600.89 -52.9798 1630.78 -75.1381 1659.27C-108.115 1702.06 -142.24 1741.7 -173.42 1770.13" stroke="#464958" stroke-miterlimit="10"/>
<path d="M-185.526 225.461C-124.048 246.686 -65.2953 275.304 -20.229 318.249C6.75958 343.899 28.5308 375.344 40.9479 410.159C48.96 432.846 53.0652 456.905 52.0682 481.502C49.1509 556.916 2.62503 632.656 1.0095 704.721C0.363779 732.42 3.82677 757.082 13.0665 781.951C20.9745 803.189 33.117 823.737 46.3202 843.844C64.7596 871.844 85.8953 901.299 99.9788 930.682C107.87 946.909 113.485 963.363 115.998 980.168C121.157 1013.53 115.095 1043.06 104.982 1073.75C90.357 1117.96 68.0935 1166.47 55.7779 1220.47C54.4284 1226.14 53.3543 1231.76 52.4538 1237.42C42.4047 1299.42 61.1189 1341.69 62.5224 1382.71C63.9151 1423.29 46.6367 1467.84 16.5703 1519.55C7.74277 1534.72 -2.07393 1550.44 -12.7779 1566.63C-32.2203 1595.96 -54.0599 1626.21 -75.8906 1655.39C-108.601 1699.21 -141.09 1740.74 -169.359 1770.93" stroke="#4D5060" stroke-miterlimit="10"/>
<path d="M-173.06 224.78C-112.164 246.261 -54.2979 275.349 -9.98654 318.52C16.6246 344.283 37.9771 375.565 50.1796 410.074C58.222 432.587 62.184 456.443 61.4625 480.999C59.157 555.983 14.6615 631.363 11.4733 702.705C10.2766 730.487 12.4337 755.457 20.8166 780.623C28.0413 802.188 39.6435 823.268 52.684 843.794C70.8588 872.284 92.1376 901.943 107.119 931.304C115.387 947.418 121.554 963.79 124.996 980.4C131.807 1013.52 128.194 1042.84 120.398 1073.58C109.233 1117.95 90.1757 1167.56 77.6671 1222.16C76.3175 1227.82 75.1415 1233.52 74.139 1239.25C63.1614 1301.45 77.2116 1343.79 74.6021 1383.22C72.0642 1422.75 51.1286 1464.69 18.8257 1515.38C9.33441 1530.26 -1.17651 1545.86 -12.2276 1561.99C-32.4661 1591.27 -54.6419 1621.9 -76.2471 1651.84C-108.619 1696.79 -139.442 1740.04 -164.902 1772.07" stroke="#545669" stroke-miterlimit="10"/>
<path d="M-160.602 224.1C-100.461 245.807 -43.3393 275.57 0.247488 318.792C26.4096 344.567 47.415 375.788 59.4743 410.093C67.3736 432.402 71.5395 456.114 70.8484 480.497C69.1546 555.052 26.7916 630 21.8268 700.763C19.9771 728.699 20.8587 753.803 28.3543 779.44C34.7937 801.404 45.8861 822.841 58.7639 843.786C76.674 872.766 98.096 902.63 113.904 931.868C122.621 947.97 129.441 964.188 133.566 980.471C142.031 1013.34 140.866 1042.47 135.387 1073.26C127.509 1117.76 111.759 1168.39 99.1291 1223.68C97.8511 1229.45 96.5731 1235.22 95.4991 1240.84C83.7666 1303.26 92.9079 1345.56 86.4285 1383.59C79.7863 1422.04 55.2651 1461.48 20.6542 1511.05C10.4991 1525.64 -0.532382 1541.14 -12.104 1557.18C-33.1387 1586.41 -55.6508 1617.44 -77.102 1648.02C-109.136 1694.1 -138.293 1739.08 -160.944 1772.94" stroke="#5B5D71" stroke-miterlimit="10"/>
<path d="M-148.049 223.346C-88.4885 245.308 -32.2542 275.542 10.5062 318.888C36.1172 344.745 56.7041 375.803 68.7937 409.935C76.6214 432.142 80.8177 455.681 80.3609 479.747C79.2073 553.771 38.8747 628.359 32.4088 698.501C29.8346 726.489 29.5122 751.83 36.151 777.764C41.8051 800.127 52.5613 821.953 65.2047 843.214C82.8501 872.684 104.487 902.853 121.05 931.866C130.145 947.856 137.617 963.92 142.569 980.079C152.686 1012.7 153.9 1041.53 150.809 1072.47C146.39 1117.13 133.847 1168.86 121.197 1224.77C119.817 1230.61 118.539 1236.38 117.435 1242.18C104.845 1304.9 109.251 1347.16 98.6568 1383.67C88.0125 1420.98 59.9056 1457.91 22.9562 1506.53C12.0354 1520.9 0.41172 1536.21 -11.507 1552.19C-33.4398 1581.44 -56.288 1612.85 -77.4117 1644.12C-109.179 1691.23 -136.598 1738.03 -156.44 1773.73" stroke="#626379" stroke-miterlimit="10"/>
<path d="M-135.58 222.669C-76.7028 244.959 -21.3557 275.664 20.7517 319.164C45.9137 345.032 66.1534 376.029 78.0284 409.855C85.7845 431.96 89.9396 455.224 89.6867 479.146C89.1449 552.74 50.7407 627.04 42.8041 696.389C39.5769 724.53 37.979 750.006 43.7305 776.41C48.7013 799.101 58.9173 821.458 71.3265 843.036C88.6356 872.895 110.589 903.298 127.877 932.259C137.421 948.238 145.372 964.117 151.252 980.081C163.023 1012.46 166.685 1041.09 165.912 1072.08C164.851 1116.96 155.646 1169.54 142.773 1226.22C141.393 1232.06 140.186 1237.93 138.908 1243.7C125.564 1306.65 124.959 1348.93 110.597 1383.98C95.6745 1420.18 64.1555 1454.63 25 1502.06C13.4155 1516.13 1.19953 1531.25 -11.1683 1547.24C-33.8971 1576.44 -57.0817 1608.24 -78.0514 1640.17C-109.48 1688.41 -135.234 1736.93 -152.267 1774.46" stroke="#696A82" stroke-miterlimit="10"/>
<path d="M-123.02 221.916C-64.7958 244.36 -10.2644 275.638 31.0881 319.363C55.8011 345.242 75.6222 376.077 87.4255 409.8C95.11 431.804 99.2955 454.893 99.1749 478.571C99.2753 551.562 62.8712 625.675 53.2599 694.373C49.3798 722.669 46.5064 748.279 51.4726 775.082C55.658 798.172 65.3643 820.887 77.7843 842.914C94.8288 873.263 116.997 903.972 135.111 932.809C145.104 948.778 153.709 964.503 160.343 980.241C173.839 1012.47 179.879 1040.81 181.422 1071.84C183.821 1116.88 177.822 1170.56 164.756 1227.84C163.447 1233.78 162.067 1239.62 160.688 1245.46C146.517 1308.53 140.901 1350.83 122.77 1384.41C103.744 1419.53 68.7413 1451.41 27.2475 1497.9C14.8972 1511.74 2.16063 1526.77 -10.6258 1542.6C-34.1508 1571.75 -57.6715 1603.94 -78.4157 1636.61C-109.506 1685.99 -133.594 1736.24 -147.818 1775.6" stroke="#70708A" stroke-miterlimit="10"/>
<path d="M-110.489 221.333C-52.948 244.105 0.696144 275.853 41.3241 319.63C65.4861 345.591 85.062 376.294 96.6506 409.712C104.192 431.511 108.408 454.427 108.593 477.89C109.305 550.452 74.8601 624.103 63.7477 692.18C59.1127 720.701 55.1676 746.303 59.073 773.547C62.4732 797.036 71.7412 820.21 83.9269 842.554C100.707 873.393 123.018 904.306 141.959 933.02C152.329 948.875 161.485 964.518 168.874 980.031C184.125 1011.94 192.512 1040.15 196.372 1071.23C202.057 1116.41 199.366 1171.11 186.25 1229.18C184.84 1235.19 183.46 1241.03 182.08 1246.87C167.052 1310.24 156.527 1352.49 134.557 1384.5C111.253 1418.52 72.8385 1447.92 29.1082 1493.39C16.0941 1506.94 2.76542 1521.78 -10.4701 1537.61C-34.8931 1566.78 -58.7502 1599.36 -79.1365 1632.55C-109.96 1682.96 -132.31 1735.03 -143.623 1776.15" stroke="#777792" stroke-miterlimit="10"/>
<path d="M-98.0228 220.657C-41.0636 243.684 11.5913 275.974 51.5662 319.906C75.3508 345.979 94.4061 376.591 105.954 409.733C113.423 431.431 117.67 454.174 118.059 477.493C119.311 549.523 86.7943 622.886 74.2828 690.271C68.9233 718.844 63.7743 744.682 66.8944 772.325C69.6112 796.142 78.441 819.776 90.2905 842.509C106.806 873.838 129.434 904.985 149.027 933.544C159.847 949.389 169.655 964.878 177.8 980.166C194.703 1011.83 205.539 1039.84 211.818 1070.9C220.963 1116.23 221.407 1171.93 208.169 1230.69C206.759 1236.71 205.349 1242.72 203.795 1248.53C188.013 1312.12 172.405 1354.28 146.637 1385.01C119.157 1417.85 77.3302 1444.78 31.2918 1489.12C17.614 1502.38 3.59113 1517.09 -9.99143 1532.87C-35.2106 1561.99 -59.4039 1594.96 -79.5646 1628.9C-110.05 1680.44 -130.734 1734.23 -139.238 1777.19" stroke="#7E7E9B" stroke-miterlimit="10"/>
<path d="M-85.4677 219.904C-29.2634 243.157 22.6778 275.948 61.8978 320.106C85.2334 346.19 103.87 376.639 115.244 409.751C122.642 431.346 126.919 453.915 127.44 476.99C129.304 548.591 98.7161 621.665 84.6319 688.328C78.6194 717.055 72.2664 743.129 74.5297 771.069C76.4612 795.285 84.7812 819.277 96.57 842.356C112.82 874.176 135.592 905.527 156.012 933.963C167.31 949.623 177.67 965.03 186.641 980.194C205.198 1011.61 218.411 1039.32 227.078 1070.53C239.683 1116.02 243.333 1172.82 229.903 1232.17C228.564 1238.29 226.98 1244.27 225.498 1250.18C208.787 1313.97 188.27 1356.08 158.734 1385.34C126.905 1416.97 81.7377 1441.52 33.4629 1484.85C19.0193 1497.89 4.50623 1512.34 -9.62733 1528.19C-35.7446 1557.34 -60.1721 1590.62 -80.1789 1625.22C-110.326 1677.89 -129.344 1733.4 -134.967 1778.29" stroke="#8584A3" stroke-miterlimit="10"/>
<path d="M-73.0014 219.224C-17.3785 242.733 33.5735 276.067 72.1406 320.378C95.0271 346.473 113.317 376.861 124.476 409.667C131.731 431.059 136.038 453.454 136.865 476.314C139.269 547.384 110.61 620.169 95.1265 686.14C88.3894 714.919 80.8325 741.23 82.1369 769.539C83.2832 794.153 91.165 818.606 102.719 842.002C118.705 874.311 141.691 905.969 162.836 934.352C174.583 950.002 185.524 965.153 195.322 980.193C215.633 1011.29 231.194 1038.88 242.178 1070.13C258.141 1115.85 265.028 1173.58 251.547 1233.73C250.208 1239.84 248.696 1245.93 247.04 1251.81C229.575 1315.82 204.005 1357.67 170.743 1385.74C134.666 1416.09 86.0868 1438.17 35.4736 1480.55C20.3662 1493.29 5.15894 1507.62 -9.32169 1523.42C-36.235 1552.51 -61.1724 1586.15 -80.8516 1621.43C-110.732 1675.13 -128.013 1732.47 -130.827 1779.2" stroke="#8C8BAC" stroke-miterlimit="10"/>
<path d="M-60.5381 218.543C-5.59857 242.379 44.5681 276.112 82.3087 320.547C104.644 346.724 122.617 376.878 133.705 409.582C140.99 430.8 145.327 453.022 146.185 475.708C149.303 546.277 122.398 618.744 105.414 684.094C97.922 713.099 89.1915 739.472 89.7107 768.18C90.0716 793.194 97.6172 818.035 108.907 841.921C124.556 874.619 147.757 906.582 169.728 934.842C181.853 950.379 193.111 965.764 204 980.19C226.678 1010.54 243.974 1038.43 257.274 1069.73C276.626 1115.51 286.79 1174.43 273.117 1235.18C271.676 1241.36 270.164 1247.45 268.406 1253.4C250.083 1317.71 219.534 1359.4 182.503 1386.01C142.179 1415.08 90.1573 1434.86 37.4096 1476.15C21.5669 1488.49 5.83903 1502.73 -9.09063 1518.54C-36.8001 1547.58 -62.0738 1581.61 -81.5274 1617.64C-111.069 1672.48 -126.684 1731.54 -126.689 1780.1" stroke="#9391B4" stroke-miterlimit="10"/>
<path d="M-47.983 217.79C6.30358 241.78 55.5526 276.157 92.6403 320.746C114.527 346.934 132.051 377.099 143.025 409.425C150.239 430.541 154.607 452.59 155.699 474.959C159.429 545.098 134.309 617.073 115.997 681.833C107.781 710.89 97.8464 737.5 97.4783 766.678C97.1559 792.02 104.09 817.29 115.319 841.523C130.703 874.711 154.221 906.909 176.845 935.015C189.419 950.541 201.564 965.455 212.872 980.044C236.591 1010.58 257.05 1037.77 272.565 1069.19C295.377 1115.13 308.675 1175.05 294.88 1236.48C293.511 1242.77 291.825 1248.83 290.068 1254.78C270.99 1319.31 235.388 1360.75 194.457 1386.13C149.886 1413.93 94.5236 1431.33 39.4375 1471.68C22.829 1483.79 6.58059 1497.94 -8.76774 1513.59C-37.3753 1542.65 -62.8832 1577 -82.1829 1613.68C-111.284 1669.58 -125.407 1730.33 -122.531 1780.83" stroke="#9A98BC" stroke-miterlimit="10"/>
<path d="M-35.4475 217.211C18.1558 241.529 66.6196 276.305 102.952 321.119C124.39 347.318 141.567 377.422 152.398 409.545C159.469 430.457 163.867 452.332 165.163 474.558C169.433 544.166 146.242 615.852 126.531 679.92C117.488 709.1 106.451 735.875 105.226 765.351C104.119 791.091 110.614 816.821 121.609 841.371C136.729 875.05 160.39 907.451 183.84 935.433C196.792 950.847 209.661 965.709 221.724 980.072C247.198 1010.29 270.004 1037.35 287.836 1068.82C314.006 1114.99 330.643 1175.76 316.696 1238.06C315.326 1244.35 313.61 1250.58 311.751 1256.61C291.847 1321.27 251.264 1362.54 206.607 1386.74C157.717 1413.15 98.9115 1428.25 41.589 1467.58C24.3167 1479.4 7.47595 1493.36 -8.32142 1509.01C-37.7251 1538.03 -63.6712 1572.84 -82.6433 1610.2C-111.478 1667.13 -123.863 1729.71 -118.178 1782.04" stroke="#A19EC5" stroke-miterlimit="10"/>
<path d="M-22.8871 216.459C30.1348 241.033 77.6093 276.351 113.218 321.217C134.176 347.601 150.964 377.368 161.724 409.389C168.723 430.199 173.152 451.901 174.652 473.984C179.533 543.162 158.127 614.356 136.987 677.905C127.219 707.138 114.979 734.149 112.867 764.095C110.974 790.235 117.031 816.424 127.893 841.22C142.851 875.317 166.624 908.095 190.83 935.852C204.23 951.255 217.681 965.861 230.57 980.101C257.697 1010.07 282.881 1036.83 303.101 1068.45C332.659 1114.68 352.574 1176.65 338.434 1239.55C336.963 1245.91 335.247 1252.13 333.387 1258.16C312.626 1323.11 267.093 1364.06 218.638 1386.97C165.602 1412.03 103.355 1424.83 43.7956 1463.14C25.7576 1474.74 8.42664 1488.43 -7.81976 1504.09C-38.0195 1533.06 -64.302 1568.25 -83.1201 1606.28C-111.616 1664.33 -122.336 1728.64 -113.842 1782.8" stroke="#A8A5CD" stroke-miterlimit="10"/>
<path d="M-10.4218 215.779C41.9472 240.507 88.5041 276.469 123.459 321.489C143.968 347.884 160.41 377.591 170.955 409.306C177.883 430.014 182.27 451.44 184.076 473.308C189.599 541.883 170.02 612.86 147.48 675.718C136.886 705.074 123.544 732.249 120.647 762.595C117.968 789.134 123.618 815.61 134.287 840.997C148.98 875.585 172.998 908.496 198 936.302C211.85 951.694 225.882 966.045 239.526 980.059C268.408 1009.71 296.041 1036.28 318.476 1068.02C351.596 1114.32 374.543 1177.36 360.281 1240.96C358.882 1247.42 357.094 1253.54 355.031 1259.71C333.515 1324.89 282.93 1365.58 230.747 1387.3C173.464 1411.08 107.774 1421.58 45.9073 1458.77C27.2055 1470.07 9.1804 1483.64 -7.41308 1499.25C-38.5109 1528.23 -65.0276 1563.74 -83.6202 1602.52C-111.778 1661.71 -120.832 1727.74 -109.528 1783.73" stroke="#AFABD5" stroke-miterlimit="10"/>
<path d="M2.03759 215.099C53.7232 240.154 99.4948 276.516 133.695 321.762C153.755 348.167 169.676 377.782 180.252 409.324C187.036 429.828 191.525 451.183 193.463 472.806C199.599 540.951 181.805 611.436 157.938 673.703C146.691 703.213 132.073 730.524 128.216 761.238C124.753 788.176 129.964 815.112 140.399 840.816C154.827 875.893 179.061 909.11 204.817 936.692C219.044 951.971 233.801 966.269 248.2 980.057C278.837 1009.39 308.817 1035.83 333.568 1067.62C370.148 1114.08 396.302 1178.22 381.919 1242.51C380.519 1248.97 378.701 1255.27 376.566 1261.33C354.193 1326.81 298.73 1367.27 242.575 1387.67C181.076 1409.99 111.943 1418.19 47.8091 1454.54C28.4436 1465.55 9.89786 1479.03 -7.21624 1494.54C-39.1102 1523.48 -66.0651 1559.45 -84.2998 1598.74C-112.191 1658.96 -119.507 1726.81 -105.395 1784.63" stroke="#B6B2DE" stroke-miterlimit="10"/>
<path d="M14.6043 214.349C65.6369 239.559 110.491 276.564 143.967 321.862C163.578 348.278 179.151 377.833 189.512 409.069C196.225 429.471 200.745 450.652 202.815 472.03C209.491 539.644 193.554 609.738 168.257 671.487C156.112 701.019 140.464 728.596 135.822 759.709C131.675 786.974 136.275 814.34 146.649 840.391C160.741 875.857 185.189 909.38 211.772 936.838C226.448 952.106 241.786 966.148 256.909 979.885C289.301 1008.9 321.557 1035.11 348.697 1067.05C388.564 1113.64 418.025 1178.81 403.52 1243.79C402.019 1250.32 400.201 1256.62 398.035 1262.86C374.836 1328.46 314.392 1368.77 254.439 1387.87C188.692 1408.91 116.147 1414.64 49.8486 1450.07C29.6458 1460.75 10.5795 1474.14 -6.98362 1489.67C-39.6737 1518.55 -66.965 1554.91 -84.9741 1594.95C-112.527 1656.31 -118.177 1725.88 -101.154 1785.47" stroke="#BDB8E6" stroke-miterlimit="10"/>
<path d="M27.06 213.665C77.4094 239.202 121.478 276.607 154.199 322.13C173.259 348.629 188.587 378.051 198.805 409.083C205.446 429.383 210.027 450.217 212.301 471.452C219.589 538.637 205.335 608.31 178.813 669.398C165.943 698.981 149.091 726.795 143.592 758.205C138.66 785.869 142.923 813.623 152.961 840.063C166.789 876.019 191.553 909.776 218.789 937.08C233.843 952.235 249.732 966.195 265.784 979.736C299.829 1008.5 334.533 1034.52 364.092 1066.43C407.418 1113.19 440.015 1179.35 425.388 1245.02C423.887 1251.55 422.038 1258.03 419.801 1264.16C395.745 1330.06 330.453 1369.97 266.671 1387.95C196.779 1407.64 120.69 1411.14 52.083 1445.45C31.2164 1455.84 11.5578 1469.03 -6.45436 1484.57C-40.0425 1513.48 -67.5679 1550.15 -85.4231 1590.85C-112.638 1653.33 -116.622 1724.63 -96.7894 1786.05" stroke="#C4BFEE" stroke-miterlimit="10"/>
<path d="M39.6872 213.016C89.4552 238.809 132.535 276.756 164.603 322.433C183.213 348.943 198.123 378.202 208.27 409.132C214.941 429.259 219.45 449.991 221.857 470.981C229.684 537.634 217.216 606.815 189.336 667.486C175.64 697.193 157.787 725.099 151.3 757.052C145.582 785.116 149.407 813.329 159.283 840.187C172.845 876.634 197.753 910.595 225.785 937.949C241.288 953.093 257.758 966.797 274.565 980.113C310.395 1008.38 347.416 1034.45 379.292 1066.41C425.976 1113.4 461.881 1180.58 447.133 1246.95C445.703 1253.59 443.681 1260.03 441.444 1266.16C416.633 1332.29 346.288 1371.93 278.708 1388.63C204.701 1406.8 125.067 1408.06 54.1938 1441.53C32.6633 1451.62 12.3823 1464.8 -6.04852 1480.17C-40.4328 1509.03 -68.2945 1546.09 -85.9241 1587.54C-112.872 1651.06 -115.119 1724.18 -92.4771 1787.43" stroke="#CBC5F7" stroke-miterlimit="10"/>
<path d="M52.157 212.339C129.634 253.535 190.263 325.586 217.505 409.052C244.747 492.518 238.058 586.409 199.66 665.271C185.138 695.102 166.183 723.173 158.91 755.525C143.694 822.526 182.702 890.881 232.744 938.096C282.715 985.208 344.383 1018.63 394.528 1065.77C444.6 1112.81 483.711 1181.1 468.841 1248.16C451.405 1326.31 368.76 1371.85 290.679 1388.76C212.424 1405.65 129.45 1404.54 56.2687 1436.89C-7.61097 1465.14 -59.9232 1518.77 -86.5326 1583.41C-113.142 1648.06 -113.723 1722.9 -88.2722 1787.99" stroke="#D2CCFF" stroke-miterlimit="10"/>
<path d="M67.9809 226.64C144.254 268.072 203.423 339.778 229.541 422.511C255.659 505.243 248.878 598.135 210.07 675.762C194.935 706.022 174.359 734.167 165.942 766.409C148.856 831.83 185.24 898.832 232.026 945.745C278.741 992.555 337.246 1026.67 385.533 1074.21C434.526 1122.31 474.972 1190.11 461.94 1257.41C446.576 1335.47 366.23 1383.2 288.283 1401.39C210.337 1419.59 126.341 1417.67 53.7884 1447.45C-8.94142 1473.22 -59.6245 1524.18 -86.2792 1585.51C-112.934 1646.84 -115.111 1718.54 -91.602 1781.95" stroke="#CDC9FE" stroke-miterlimit="10"/>
<path d="M83.772 241.125C158.668 282.763 216.551 354.155 241.719 436.184C266.886 518.214 259.736 610.147 220.447 686.438C204.599 717.199 182.532 745.173 172.972 777.303C154.046 840.972 187.775 906.794 231.234 953.303C274.662 999.985 330.106 1034.73 376.639 1082.58C424.449 1131.82 466.507 1199.1 455.21 1266.7C442.091 1344.71 363.698 1394.57 286.233 1414.1C208.767 1433.63 123.648 1430.98 51.755 1458.01C-9.79458 1481.13 -58.9807 1529.66 -85.6808 1587.68C-112.309 1645.79 -116.155 1714.25 -94.5868 1775.97" stroke="#C7C6FE" stroke-miterlimit="10"/>
<path d="M99.5999 255.431C173.19 297.377 229.613 368.423 253.933 449.678C278.252 530.934 270.56 621.877 230.86 696.934C214.299 728.196 190.741 755.998 180.008 788.192C159.315 850.21 190.347 914.576 230.519 960.956C270.691 1007.34 323.075 1042.71 367.822 1091.05C414.378 1141.32 458.12 1208.18 448.487 1275.98C437.511 1354.01 361.172 1405.93 284.188 1426.79C207.204 1447.66 120.992 1444.1 49.5545 1468.53C-10.5697 1489.13 -58.4737 1534.94 -85.2496 1589.81C-111.924 1644.61 -117.263 1709.85 -97.7387 1769.97" stroke="#C2C3FD" stroke-miterlimit="10"/>
<path d="M115.503 269.842C187.818 311.923 242.924 382.828 266.12 463.35C289.316 543.872 281.255 633.857 241.247 707.607C223.972 739.371 199.026 766.93 187.018 799.258C164.658 859.553 192.862 922.708 229.676 968.859C266.49 1015.01 315.813 1051.01 358.877 1099.77C404.424 1151.21 449.431 1217.49 441.707 1285.62C432.874 1363.66 358.691 1417.57 282.087 1439.84C205.411 1462.01 118.452 1457.61 47.4706 1479.44C-11.4019 1497.48 -57.8806 1540.76 -84.7018 1592.32C-111.523 1643.88 -118.357 1705.91 -100.876 1764.41" stroke="#BDC0FD" stroke-miterlimit="10"/>
<path d="M131.23 284.22C202.238 326.608 255.987 397.097 278.161 476.814C300.336 556.531 291.905 645.557 251.59 718.002C233.601 750.266 207.237 777.756 194.085 809.973C170.06 868.546 195.434 930.491 228.993 976.34C262.551 1022.19 308.68 1059.06 350.091 1108.07C394.456 1160.64 440.901 1226.36 435.014 1294.73C428.253 1372.69 356.268 1428.86 280.002 1452.26C203.808 1475.77 115.827 1470.56 45.2296 1489.69C-12.3195 1505.28 -57.3424 1545.87 -84.2091 1594.1C-111.076 1642.34 -119.506 1701.23 -104.038 1757.95" stroke="#B8BDFC" stroke-miterlimit="10"/>
<path d="M147.127 298.628C216.758 341.223 269.22 411.397 290.343 490.483C311.465 569.569 302.523 657.432 261.971 728.672C243.268 761.438 215.516 788.685 201.017 820.934C175.499 877.815 197.902 938.345 228.174 984.066C258.374 1029.69 301.443 1067.18 341.17 1116.62C384.251 1170.39 432.338 1235.42 428.258 1304.19C423.64 1382.17 353.709 1440.4 277.823 1465.21C201.936 1490.02 113.281 1484.07 43.0678 1500.49C-12.9844 1513.66 -56.8986 1551.49 -83.739 1596.51C-110.579 1641.54 -120.576 1697.11 -107.151 1752.22" stroke="#B2BAFC" stroke-miterlimit="10"/>
<path d="M162.958 312.934C231.283 355.837 282.387 425.595 302.559 503.978C322.731 582.36 313.175 669.132 272.387 739.169C252.971 772.436 223.901 799.541 208.157 831.752C181.249 886.869 200.548 946.23 227.492 991.547C254.508 1036.97 294.312 1075.23 332.284 1124.99C374.183 1179.9 423.78 1244.47 421.466 1313.37C418.919 1391.27 351.216 1451.58 275.709 1477.8C200.202 1504.02 110.903 1497.16 40.8698 1511.01C-13.6854 1521.76 -56.3175 1556.86 -83.3053 1598.64C-110.191 1640.35 -121.856 1692.68 -110.301 1746.21" stroke="#ADB6FB" stroke-miterlimit="10"/>
<path d="M178.754 327.417C245.804 370.455 295.52 439.969 314.67 517.547C333.821 595.125 323.723 680.908 282.698 749.741C262.568 783.508 232.212 810.299 215.091 842.716C186.864 896.171 202.987 954.261 226.675 999.276C250.333 1044.47 289.9 1081.53 323.365 1133.53C360.92 1191.8 415.116 1253.6 414.711 1322.84C414.236 1400.64 348.659 1463.12 273.562 1490.58C198.465 1518.03 108.461 1510.59 38.6685 1521.54C-14.4918 1529.94 -55.8418 1562.32 -82.7729 1600.71C-109.806 1639.17 -122.863 1688.21 -113.352 1740.14" stroke="#A8B3FB" stroke-miterlimit="10"/>
<path d="M194.587 341.723C260.331 385.068 308.76 454.268 326.787 531.113C344.987 607.988 334.275 692.68 293.117 760.237C272.273 794.506 240.6 821.156 222.233 853.533C192.687 905.327 205.665 961.971 225.965 1006.93C246.367 1051.82 283.017 1089.71 314.553 1142C350.62 1201.62 406.56 1262.65 407.992 1332.12C409.661 1409.95 346.137 1474.48 271.522 1503.27C196.906 1532.06 106.228 1523.88 36.6459 1532.09C-14.9459 1538.17 -55.1568 1567.62 -82.1638 1602.87C-109.171 1638.11 -123.896 1683.92 -116.326 1734.16" stroke="#A3B0FA" stroke-miterlimit="10"/>
<path d="M210.477 356.129C274.915 399.782 321.987 468.565 339.063 544.707C356.14 620.849 344.916 704.378 303.593 770.833C281.963 805.501 249.148 832.04 229.26 864.419C198.498 914.48 208.198 969.925 225.241 1014.58C242.285 1059.24 272.713 1099.98 305.727 1150.47C344.018 1209.13 398.092 1271.63 401.331 1341.5C405.071 1419.25 343.745 1486.05 269.54 1516.07C195.334 1546.1 104.124 1537.37 34.5077 1542.71C-15.444 1546.58 -54.6179 1573.17 -81.6702 1605.1C-108.723 1637.03 -125.044 1679.69 -119.415 1728.25" stroke="#9DADFA" stroke-miterlimit="10"/>
<path d="M226.208 370.511C289.268 414.37 334.951 482.91 351.18 558.277C367.408 633.645 355.469 716.154 313.909 781.406C291.566 816.575 257.607 843.003 236.199 875.385C204.189 923.885 210.57 977.855 224.43 1022.31C238.217 1066.67 265.381 1108.18 296.741 1158.92C333.748 1218.79 389.362 1280.66 394.541 1350.69C400.251 1428.42 341.254 1497.24 267.428 1528.67C193.602 1560.1 101.891 1550.67 32.4138 1553.17C-15.9999 1554.89 -53.9328 1578.48 -81.0305 1607.09C-108.128 1635.7 -125.944 1675.15 -122.359 1722.11" stroke="#98AAF9" stroke-miterlimit="10"/>
<path d="M242.117 384.916C303.974 429.011 348.197 497.206 363.302 571.841C378.407 646.475 365.854 727.893 324.231 791.971C301.103 827.539 266 853.857 243.245 886.271C210.264 933.17 213.224 985.736 223.654 1029.86C234.083 1073.99 258.054 1116.37 287.761 1167.36C323.453 1228.6 380.638 1289.68 387.654 1359.94C395.435 1437.59 338.565 1508.57 265.047 1541.31C191.529 1574.04 99.5311 1564.2 29.8762 1563.63C-16.7542 1563.34 -53.8647 1583.76 -80.9362 1609.16C-108.008 1634.56 -127.492 1670.76 -125.848 1716.03" stroke="#93A7F9" stroke-miterlimit="10"/>
<path d="M257.843 399.3C318.322 443.601 361.259 511.482 375.414 585.413C389.569 659.344 376.33 739.569 334.471 802.443C310.527 838.584 274.384 864.719 250.108 897.135C216.052 942.506 215.592 993.668 222.766 1037.49C230.011 1081.42 250.614 1124.64 278.771 1175.8C313.179 1238.26 371.832 1298.6 380.829 1369.31C390.682 1446.87 335.937 1520.01 262.9 1554.08C189.864 1588.16 97.4062 1577.87 27.7472 1574.26C-17.2735 1571.93 -53.2147 1589.25 -80.4335 1611.4C-107.652 1633.55 -128.631 1666.55 -128.928 1710.13" stroke="#8EA4F9" stroke-miterlimit="10"/>
<path d="M273.744 413.707C332.917 458.316 374.568 525.882 387.701 599.009C400.834 672.135 386.88 751.34 345.06 812.969C320.33 849.509 283.187 875.738 257.349 907.88C222.22 951.721 218.267 1001.38 222.155 1045.07C226.042 1088.77 243.452 1132.86 270.057 1184.2C303.15 1248.04 363.375 1307.58 374.209 1378.52C386.031 1456.07 333.688 1531.32 260.959 1566.71C188.231 1602.09 95.4563 1591.57 25.7215 1584.82C-17.5463 1580.64 -52.5632 1594.72 -79.7254 1613.49C-106.99 1632.32 -129.463 1662.1 -131.905 1704.16" stroke="#88A1F8" stroke-miterlimit="10"/>
<path d="M289.57 428.015C347.467 472.759 387.73 540.082 399.811 612.577C411.892 685.072 397.282 762.911 355.369 823.539C329.854 860.478 291.741 886.627 264.281 918.843C228.252 961.185 220.807 1009.34 221.336 1052.8C221.865 1096.27 236.082 1141.23 261.137 1192.75C292.915 1257.96 354.608 1316.78 367.453 1387.98C381.347 1465.44 331.129 1542.86 258.81 1579.48C186.563 1616.2 93.3706 1605.52 23.5188 1595.34C-18.1697 1589.3 -51.9869 1600.1 -79.2965 1615.62C-106.606 1631.14 -130.675 1657.78 -135.059 1698.15" stroke="#839EF8" stroke-miterlimit="10"/>
<path d="M305.369 442.497C361.96 487.549 400.865 554.456 411.924 626.146C422.984 697.836 407.658 774.655 365.682 834.11C339.28 871.52 300.269 897.69 271.217 929.806C234.185 970.721 223.248 1017.37 220.521 1060.53C217.794 1103.69 228.614 1149.68 252.219 1201.29C282.51 1267.86 345.947 1325.91 360.629 1397.34C376.493 1474.79 328.502 1554.3 256.665 1592.25C184.726 1630.27 91.1864 1619.53 21.2892 1606.04C-18.6768 1598.33 -51.5089 1605.55 -78.8943 1617.93C-106.178 1630.23 -131.813 1653.56 -138.312 1692.22" stroke="#7E9BF7" stroke-miterlimit="10"/>
<path d="M321.189 456.801C376.403 502.059 414.021 568.651 424.131 639.639C434.24 710.626 418.157 786.15 376.088 844.605C348.901 882.414 308.89 908.677 278.347 940.622C240.314 980.109 225.812 1025.15 219.829 1068.01C213.744 1110.94 221.299 1157.69 243.425 1209.59C272.329 1277.43 337.408 1334.79 353.999 1406.55C371.935 1483.92 326.173 1565.51 254.613 1604.95C183.054 1644.38 89.0646 1633.65 19.1828 1616.5C-19.1323 1607.02 -50.9382 1610.93 -78.267 1619.92C-105.596 1628.9 -132.828 1649.09 -141.268 1686.06" stroke="#7898F7" stroke-miterlimit="10"/>
<path d="M337.017 471.107C390.925 516.673 427.186 582.848 436.243 653.204C445.3 723.56 428.532 797.891 386.502 855.101C358.428 893.381 317.692 919.696 285.312 951.409C246.45 989.499 228.384 1032.93 219.043 1075.56C209.702 1118.19 213.86 1165.96 234.435 1218.03C261.923 1287.32 328.674 1343.81 347.103 1415.81C367.008 1493.16 323.545 1576.95 252.395 1617.61C181.246 1658.28 86.7469 1647.91 16.9825 1627.02C-19.6406 1616.05 -50.3594 1616.3 -77.8356 1622.05C-105.24 1627.89 -134.038 1644.76 -144.42 1680.06" stroke="#7395F6" stroke-miterlimit="10"/>
<path d="M352.819 485.59C405.523 531.392 440.221 597.294 448.43 666.875C456.568 736.355 438.911 809.636 396.889 865.774C368.029 904.453 326.365 930.963 292.423 962.403C252.631 999.167 230.929 1040.89 218.302 1083.39C205.675 1125.9 206.466 1174.5 225.592 1226.68C251.591 1297.32 319.913 1353.01 340.424 1425.37C362.299 1502.71 321.064 1588.59 250.324 1630.49C179.656 1672.49 84.5458 1662.55 14.8271 1637.82C-20.2774 1625.33 -49.9093 1621.93 -77.3593 1624.46C-104.809 1626.98 -135.101 1640.64 -147.527 1674.33" stroke="#6E92F6" stroke-miterlimit="10"/>
<path d="M368.641 499.891C420.04 546.001 453.451 611.588 460.639 680.365C467.725 749.213 449.31 821.199 407.297 876.266C377.479 915.313 335.131 942.151 299.454 973.287C258.803 1008.83 233.466 1048.84 217.582 1091.04C201.699 1133.24 199.022 1182.76 216.698 1235.04C241.108 1307.1 311.276 1361.96 333.624 1434.55C357.469 1511.88 318.461 1599.84 248.203 1643.08C177.945 1686.31 82.0902 1677.05 12.6515 1648.17C-20.9344 1634.15 -49.3057 1627.13 -76.8011 1626.34C-104.296 1625.55 -136.185 1636.06 -150.552 1668.07" stroke="#698EF5" stroke-miterlimit="10"/>
<path d="M384.542 514.306C434.563 560.622 466.688 625.895 472.752 693.938C478.816 761.982 459.716 832.775 417.61 886.841C387.006 926.288 343.73 953.321 306.491 984.183C264.981 1018.5 236.11 1056.73 216.869 1098.7C197.627 1140.67 191.482 1191.11 207.883 1243.52C230.804 1316.93 302.614 1371.09 326.973 1443.94C352.788 1521.26 316.109 1611.24 246.231 1655.88C176.352 1700.53 79.6517 1692.01 10.5951 1658.9C-21.5742 1643.43 -48.6851 1632.79 -76.2258 1628.68C-103.695 1624.68 -137.252 1631.95 -153.559 1662.27" stroke="#638BF5" stroke-miterlimit="10"/>
<path d="M400.263 528.681C448.906 575.204 479.745 640.161 484.859 707.502C489.973 774.843 469.942 844.31 428.019 897.335C396.456 937.15 352.568 964.613 313.451 994.968C271.081 1028.06 238.575 1064.58 216.077 1106.25C193.58 1147.92 184.037 1199.37 198.989 1251.89C220.248 1326.62 293.976 1380.04 320.173 1453.12C347.957 1530.42 313.507 1622.5 244.038 1668.38C174.467 1714.33 76.8187 1706.62 8.34801 1669.15C-22.5066 1652.3 -48.2246 1637.78 -75.841 1630.53C-103.457 1623.28 -138.478 1627.17 -156.758 1655.99" stroke="#5E88F4" stroke-miterlimit="10"/>
<path d="M416.183 543.094C463.623 589.853 493.002 654.466 497.094 721.001C501.186 787.537 480.368 855.883 438.453 907.837C406.034 947.949 361.361 975.811 320.508 1005.86C277.177 1037.8 241.066 1072.44 215.313 1113.81C189.457 1155.25 176.445 1207.61 190.02 1260.34C209.689 1336.49 285.09 1389.03 313.297 1462.38C343.051 1539.67 310.9 1633.94 241.739 1681.12C172.579 1728.3 73.676 1721.63 5.96476 1679.82C-23.5753 1661.59 -47.9307 1643.38 -75.4906 1632.74C-103.152 1622.18 -139.77 1622.92 -159.991 1650.05" stroke="#5985F4" stroke-miterlimit="10"/>
<path d="M431.991 557.395C478.053 604.359 506.145 668.658 509.186 734.562C512.327 800.395 490.753 867.446 448.745 918.399C415.366 958.88 370.082 987.171 327.523 1016.74C283.334 1047.46 243.689 1080.32 214.476 1121.53C185.364 1162.67 168.884 1215.94 181.081 1268.87C198.986 1346.41 276.305 1398.22 306.523 1471.84C338.246 1549.11 308.425 1645.39 239.644 1693.99C170.863 1742.58 70.8083 1736.87 3.98885 1690.47C-24.2365 1670.86 -47.1276 1648.88 -74.8348 1635C-102.542 1621.12 -140.654 1618.65 -163.02 1644.24" stroke="#5482F3" stroke-miterlimit="10"/>
<path d="M447.8 571.879C492.556 619.152 519.362 683.135 521.381 748.235C523.399 813.334 501.068 879.09 459.14 929.074C424.904 969.852 378.804 998.716 334.541 1027.81C289.462 1057.48 246.14 1088.35 213.743 1129.36C181.345 1170.37 161.324 1224.46 172.246 1277.52C188.489 1356.38 267.623 1407.53 299.781 1481.3C333.372 1558.63 305.88 1656.93 237.581 1706.86C169.281 1756.79 67.4216 1752.19 1.66752 1701.25C-25.4167 1680.23 -46.8433 1654.48 -74.5243 1637.38C-102.205 1620.28 -141.985 1614.57 -166.293 1638.49" stroke="#4E7FF3" stroke-miterlimit="10"/>
<path d="M463.636 586.191C507.116 633.598 532.432 697.41 533.602 761.736C534.671 826.132 511.409 890.562 469.663 939.505C434.469 980.652 387.757 1009.95 341.717 1038.46C295.677 1066.98 248.822 1096.07 213.168 1136.78C177.514 1177.49 153.851 1232.46 163.569 1285.76C178.049 1366.01 259.202 1416.34 293.269 1490.45C328.932 1567.7 303.566 1668.16 235.676 1719.32C167.787 1770.48 64.1938 1767.1 -0.219474 1711.56C-26.3362 1689.1 -45.9513 1659.65 -73.6777 1639.23C-101.404 1618.82 -142.78 1609.96 -169.029 1632.2" stroke="#497CF2" stroke-miterlimit="10"/>
</g>
</svg>
