<svg width="246" height="626" viewBox="0 0 246 626" fill="none" xmlns="http://www.w3.org/2000/svg">
<g opacity="0.2">
<path d="M408.947 82.0576C387.262 86.6735 365.832 93.059 348.661 105.244C331.547 117.424 319.105 136.161 319.362 157.524C319.675 183.04 337.549 209.633 332.194 233.955C328.72 249.696 316.201 261.093 305.115 272.58C294.003 284.098 283.426 297.929 285.049 314.547C287.966 344.341 328.205 367.762 328.05 397.31C327.927 416.801 310.23 429.436 299.404 444.828C285.725 464.311 282.891 490.869 291.919 515.206C300.948 539.544 321.676 561.163 346.804 572.535" stroke="#1C2226" stroke-miterlimit="10"/>
<path d="M404.942 81.5591C383.462 86.2406 362.28 92.8303 345.402 105.101C335.203 112.488 326.685 122.248 321.583 133.474C318.242 140.801 316.388 148.782 316.419 157.123C316.572 182.455 333.691 208.892 328.977 233.068C327.295 241.659 323.159 249.005 317.89 255.833C313.433 261.615 308.199 267.015 303.164 272.425C296.088 279.996 289.041 288.476 285.218 297.899C283.099 303.115 281.946 308.608 282.272 314.387C282.879 325.748 288.778 336.175 295.8 346.437C305.879 361.247 318.272 375.835 320.715 392.09C320.996 393.829 321.107 395.584 321.137 397.375C321.307 416.952 305.099 429.672 295.581 444.739C286.292 459.529 283.419 478.259 287.098 497.3C288.167 502.808 289.807 508.318 291.954 513.779C295.859 523.6 301.496 533.083 308.362 541.708C318.539 554.572 331.38 565.529 345.467 572.835" stroke="#23292E" stroke-miterlimit="10"/>
<path d="M400.926 81.0045C379.658 85.8082 358.748 92.571 342.076 104.908C331.996 112.34 323.616 122.058 318.564 133.223C315.249 140.518 313.359 148.417 313.359 156.733C313.321 181.855 329.766 208.101 325.637 232.135C324.13 240.766 320.43 248.213 315.46 255.183C311.245 261.112 306.14 266.672 301.142 272.164C294.138 279.899 287.041 288.44 282.955 297.803C280.718 302.973 279.384 308.37 279.454 314.144C279.562 325.355 284.655 335.688 290.933 345.907C299.923 360.651 311.26 375.511 313.725 391.992C313.98 393.761 314.148 395.511 314.177 397.302C314.584 416.971 299.916 429.713 291.767 444.507C283.785 458.972 282.105 477.075 286.578 495.783C287.868 501.213 289.677 506.707 291.994 512.151C296.155 521.976 301.89 531.593 308.665 540.454C318.73 553.642 330.969 565.141 344.108 572.965" stroke="#2A2F37" stroke-miterlimit="10"/>
<path d="M396.948 80.4755C375.885 85.3449 355.223 92.3118 338.787 104.74C328.882 112.212 320.609 121.863 315.609 132.966C312.344 140.199 310.448 148.042 310.387 156.307C310.164 181.276 325.91 207.361 322.334 231.228C321.058 239.894 317.739 247.446 313.011 254.564C309.038 260.641 304.056 266.303 299.131 271.958C292.2 279.857 285.026 288.491 280.704 297.763C278.322 302.919 276.815 308.275 276.617 313.933C276.201 325.023 280.507 335.175 286.046 345.409C293.953 360.142 304.172 375.224 306.715 391.925C306.97 393.694 307.169 395.469 307.229 397.286C307.904 417.071 294.75 429.868 287.934 444.306C281.234 458.476 280.798 475.891 286.044 494.354C287.555 499.706 289.589 505.178 292.019 510.612C296.468 520.466 302.271 530.19 308.979 539.257C318.908 552.8 330.57 564.81 342.731 573.126" stroke="#31363F" stroke-miterlimit="10"/>
<path d="M392.967 79.9466C372.115 84.9381 351.726 92.0782 335.521 104.541C325.759 112.028 317.6 121.668 312.65 132.709C309.412 139.912 307.51 147.698 307.382 155.855C306.973 180.671 322.046 206.565 319.054 230.29C317.953 238.996 315.04 246.623 310.641 253.909C306.879 260.108 302.057 265.954 297.174 271.748C290.315 279.811 283.06 288.481 278.481 297.749C275.95 302.833 274.299 308.175 273.808 313.747C272.867 324.716 276.449 334.739 281.156 344.91C287.975 359.577 297.138 374.931 299.677 391.888C299.963 393.684 300.136 395.49 300.222 397.276C301.159 417.121 289.494 430.002 284.016 444.141C278.624 457.987 279.406 474.743 285.452 492.93C287.213 498.229 289.412 503.629 291.985 509.077C296.691 518.935 302.623 528.818 309.209 538.096C319.001 551.994 330.111 564.484 341.3 573.349" stroke="#383C47" stroke-miterlimit="10"/>
<path d="M388.953 79.3915C368.281 84.4796 348.165 91.7928 332.197 104.347C322.579 111.849 314.589 121.472 309.634 132.457C306.421 139.628 304.514 147.358 304.349 155.434C303.78 180.066 318.128 205.829 315.716 229.357C314.821 238.129 312.313 245.831 308.157 253.264C304.636 259.611 299.944 265.615 295.097 271.491C288.337 279.687 280.979 288.481 276.164 297.658C273.489 302.727 271.657 307.972 270.93 313.453C269.465 324.302 272.266 334.2 276.229 344.329C281.99 358.955 290.04 374.586 292.626 391.739C292.887 393.565 293.117 395.365 293.233 397.177C294.406 417.114 284.287 430.074 280.142 443.857C276.063 457.435 278.058 473.476 284.847 491.393C286.829 496.614 289.253 501.991 291.939 507.429C296.901 517.291 302.932 527.307 309.421 536.765C319.071 550.961 329.609 564.019 339.85 573.402" stroke="#3F4350" stroke-miterlimit="10"/>
<path d="M384.976 78.8622C364.51 84.0161 344.672 91.5589 328.91 104.178C319.436 111.695 311.558 121.308 306.68 132.199C303.518 139.309 301.606 146.983 301.379 155.007C300.624 179.486 314.299 205.058 312.44 228.418C311.751 237.256 309.649 245.033 305.735 252.614C302.425 259.083 297.919 265.24 293.113 271.255C286.426 279.614 279.017 288.47 273.97 297.612C271.178 302.636 269.171 307.841 268.151 313.236C266.187 323.933 268.182 333.738 271.4 343.824C276.047 358.415 283.067 374.288 285.674 391.666C285.935 393.492 286.139 395.323 286.287 397.16C287.728 417.214 279.123 430.229 276.316 443.712C273.544 456.965 276.763 472.405 284.346 489.989C286.548 495.132 289.142 500.493 291.997 505.915C297.247 515.806 303.345 525.929 309.743 535.624C319.256 550.175 329.216 563.744 338.511 573.645" stroke="#464958" stroke-miterlimit="10"/>
<path d="M380.934 78.3381C360.68 83.6141 341.115 91.3301 325.583 103.984C316.284 111.541 308.514 121.087 303.661 131.947C300.524 139.026 298.607 146.644 298.313 154.56C297.367 178.83 310.405 204.292 309.125 227.454C308.641 236.358 306.915 244.184 303.33 251.933C300.262 258.55 295.854 264.839 291.116 270.961C284.501 279.485 276.984 288.408 271.732 297.485C268.796 302.494 266.583 307.633 265.358 312.962C262.87 323.539 264.078 333.163 266.557 343.263C270.146 357.813 276.079 373.932 278.683 391.567C278.975 393.419 279.179 395.25 279.327 397.087C281.004 417.232 273.945 430.326 272.471 443.454C271.011 456.438 275.443 471.164 283.8 488.503C286.254 493.593 289.011 498.882 292.041 504.344C297.548 514.239 303.8 524.489 310.077 534.395C319.478 549.27 328.866 563.406 337.183 573.8" stroke="#4D5060" stroke-miterlimit="10"/>
<path d="M376.954 77.809C356.879 83.1816 337.587 91.0708 322.293 103.816C313.112 111.419 305.48 120.923 300.704 131.69C297.562 138.713 295.695 146.268 295.314 154.165C294.183 178.281 306.578 203.577 305.821 226.547C305.511 235.491 304.196 243.449 300.879 251.314C298.023 258.053 293.774 264.527 289.078 270.787C282.535 279.475 274.968 288.46 269.428 297.507C266.373 302.47 263.986 307.569 262.468 312.813C259.456 323.269 259.883 332.768 261.617 342.826C264.093 357.341 268.969 373.732 271.62 391.562C271.912 393.413 272.147 395.27 272.326 397.133C274.296 417.363 268.731 430.599 268.585 443.315C268.413 456.061 274.083 470.041 283.183 487.11C285.857 492.122 288.84 497.389 291.983 502.84C297.746 512.739 304.097 523.122 310.282 533.265C319.547 548.495 328.357 563.142 335.727 574.054" stroke="#545669" stroke-miterlimit="10"/>
<path d="M372.977 77.2796C353.138 82.7434 334.068 90.8676 319.005 103.648C309.968 111.265 302.449 120.758 297.724 131.464C294.632 138.425 292.704 145.929 292.317 153.769C291.001 177.733 302.723 202.837 302.55 225.665C302.446 234.674 301.537 242.707 298.492 250.746C295.878 257.632 291.784 264.234 287.13 270.632C280.66 279.484 273.041 288.531 267.24 297.517C264.041 302.467 261.448 307.5 259.719 312.621C256.182 322.957 255.829 332.332 256.819 342.347C258.236 356.821 262.026 373.459 264.699 391.514C264.965 393.397 265.231 395.279 265.435 397.111C267.642 417.433 263.654 430.773 264.784 443.139C265.955 455.642 272.839 468.908 282.707 485.675C285.601 490.609 288.754 495.86 292.066 501.294C298.086 511.197 304.535 521.713 310.654 532.062C319.782 547.647 328.015 562.805 334.438 574.235" stroke="#5B5D71" stroke-miterlimit="10"/>
<path d="M368.964 76.7242C349.306 82.2846 330.508 90.5819 315.707 103.423C306.844 111.08 299.464 120.531 294.734 131.181C291.668 138.11 289.734 145.558 289.28 153.291C287.803 177.07 298.883 202.008 299.207 224.675C299.335 233.719 298.806 241.858 296.028 250.013C293.656 257.047 289.661 263.782 285.073 270.288C278.676 279.303 270.981 288.443 264.943 297.338C261.626 302.242 258.828 307.21 256.836 312.271C252.776 322.486 251.667 331.705 251.886 341.709C252.19 356.147 254.924 373.058 257.587 391.313C257.884 393.221 258.15 395.104 258.36 396.992C260.834 417.43 258.366 430.881 260.854 442.86C263.338 455.095 271.435 467.647 282.077 484.168C285.222 489.05 288.57 494.253 291.995 499.677C298.302 509.609 304.849 520.258 310.847 530.818C319.864 546.727 327.493 562.427 332.969 574.375" stroke="#626379" stroke-miterlimit="10"/>
<path d="M364.976 76.1958C345.529 81.8784 327.005 90.3489 312.409 103.255C303.691 110.927 296.423 120.368 291.769 130.924C288.729 137.823 286.815 145.184 286.3 152.865C284.637 176.492 295.105 201.289 295.921 223.738C296.254 232.847 296.131 241.061 293.627 249.39C291.466 256.546 287.63 263.464 283.11 270.078C276.811 279.226 269.009 288.433 262.74 297.294C259.279 302.183 256.331 307.079 254.046 312.055C249.462 322.149 247.572 331.244 247.047 341.205C246.268 355.634 247.909 372.734 250.625 391.241C250.922 393.149 251.163 395.063 251.429 396.945C254.139 417.475 253.279 431.057 257.012 442.659C260.897 454.647 270.15 466.489 281.529 482.683C284.895 487.486 288.437 492.643 292.006 498.082C298.57 508.017 305.216 518.8 311.147 529.565C320.027 545.829 327.08 562.04 331.608 574.506" stroke="#696A82" stroke-miterlimit="10"/>
<path d="M360.969 75.6413C341.728 81.3896 323.451 90.0641 309.092 103.062C300.517 110.748 293.388 120.147 288.759 130.673C285.744 137.541 283.825 144.845 283.273 152.445C281.42 175.861 291.251 200.549 292.62 222.83C293.159 232.006 293.442 240.295 291.18 248.771C289.261 256.075 285.579 263.121 281.045 269.878C274.819 279.19 266.94 288.49 260.408 297.29C256.804 302.165 253.65 306.995 251.129 311.879C245.995 321.884 243.35 330.824 242.08 340.743C240.187 355.136 240.772 372.509 243.535 391.21C243.807 393.149 244.104 395.057 244.401 396.966C247.373 417.555 248.12 431.268 253.099 442.495C258.327 454.239 268.762 465.341 280.916 481.29C284.533 486.041 288.244 491.181 291.952 496.578C298.773 506.518 305.516 517.433 311.356 528.435C320.1 545.053 326.574 561.776 330.156 574.76" stroke="#70708A" stroke-miterlimit="10"/>
<path d="M356.959 75.1418C337.929 81.0123 319.925 89.86 305.797 102.892C297.397 110.619 290.35 119.981 285.798 130.414C282.834 137.221 280.909 144.468 280.264 151.991C278.225 175.255 287.439 199.746 289.306 221.866C290.081 231.132 290.708 239.445 288.775 248.089C287.098 255.54 283.546 262.745 279.079 269.61C272.926 279.086 264.996 288.447 258.202 297.187C254.479 302.016 251.151 306.807 248.393 311.599C242.704 321.458 239.309 330.299 237.295 340.175C234.344 354.527 233.842 372.147 236.601 391.106C236.904 393.07 237.201 394.978 237.498 396.886C240.738 417.593 243.061 431.41 249.311 442.23C255.939 453.726 267.531 464.119 280.427 479.798C284.265 484.47 288.171 489.563 292.023 494.975C299.131 504.944 305.972 515.992 311.685 527.149C320.317 544.091 326.189 561.356 328.793 574.833" stroke="#777792" stroke-miterlimit="10"/>
<path d="M352.983 74.6133C334.133 80.5804 316.433 89.6268 302.51 102.725C294.229 110.497 287.351 119.843 282.819 130.189C279.881 136.964 277.951 144.155 277.244 151.628C275.045 174.707 283.647 199.057 285.98 220.99C286.987 230.291 287.994 238.71 286.303 247.501C284.837 255.075 281.414 262.438 277.045 269.436C270.965 279.076 262.927 288.505 255.928 297.179C252.061 301.993 248.528 306.718 245.533 311.42C239.319 321.158 235.143 329.874 232.354 339.683C228.289 353.999 226.756 371.86 229.537 391.044C229.84 393.009 230.142 394.973 230.496 396.876C233.973 417.674 237.928 431.59 245.429 442.091C253.427 453.313 266.175 462.997 279.84 478.375C283.898 482.969 288.03 488.04 291.994 493.441C299.359 503.414 306.299 514.595 311.92 525.988C320.415 543.286 325.71 561.061 327.366 575.056" stroke="#7E7E9B" stroke-miterlimit="10"/>
<path d="M348.971 74.0586C330.357 80.1168 312.874 89.3418 299.188 102.531C291.05 110.318 284.31 119.622 279.835 129.963C276.922 136.707 274.987 143.842 274.244 151.232C271.859 174.159 279.85 198.368 282.705 220.108C283.918 229.475 285.305 238 283.882 246.908C282.658 254.629 279.39 262.12 275.032 269.23C269.024 279.034 260.935 288.525 253.674 297.139C249.658 301.882 245.95 306.567 242.693 311.208C235.955 320.826 231.024 329.387 227.464 339.183C222.285 353.464 219.696 371.598 222.525 390.977C222.801 392.972 223.16 394.931 223.488 396.865C227.258 417.748 232.791 431.77 241.537 441.895C250.96 452.838 264.839 461.844 279.247 476.95C283.556 481.492 287.852 486.491 291.991 491.932C299.644 501.934 306.651 513.223 312.207 524.822C320.565 542.474 325.282 560.76 325.966 575.304" stroke="#8584A3" stroke-miterlimit="10"/>
<path d="M344.988 73.5294C326.554 79.6843 309.375 89.1079 295.895 102.363C287.9 110.164 281.274 119.458 276.875 129.706C274.013 136.388 272.072 143.466 271.236 150.78C268.692 173.523 276.071 197.591 279.393 219.144C280.836 228.546 282.604 237.177 281.479 246.227C280.497 254.096 277.358 261.745 273.067 268.963C267.132 278.931 258.967 288.515 251.474 297.094C247.315 301.822 243.426 306.41 239.907 310.991C232.614 320.463 226.933 328.925 222.629 338.679C216.367 352.95 212.717 371.299 215.541 390.935C215.818 392.93 216.151 394.92 216.536 396.849C220.542 417.823 227.702 431.888 237.674 441.725C248.492 452.363 263.527 460.66 278.709 475.521C283.238 479.985 287.76 484.962 292.012 490.392C299.921 500.398 307.083 511.814 312.517 523.624C320.764 541.6 324.878 560.429 324.615 575.491" stroke="#8C8BAC" stroke-miterlimit="10"/>
<path d="M341.004 73.0001C322.781 79.2771 305.844 88.8484 292.626 102.164C284.806 110.005 278.287 119.232 273.914 129.448C271.047 136.074 269.101 143.096 268.259 150.353C265.498 172.917 272.322 196.84 276.141 218.231C277.821 227.725 279.964 236.404 279.081 245.602C278.341 253.619 275.3 261.401 271.082 268.783C265.245 278.884 257.003 288.56 249.249 297.079C244.971 301.762 240.975 306.417 237.121 310.774C229.087 319.946 222.842 328.463 217.793 338.175C210.442 352.379 205.711 371.031 208.582 390.862C208.89 392.883 209.223 394.873 209.639 396.827C213.913 417.918 222.674 432.057 233.892 441.518C246.104 451.851 262.302 459.495 278.196 474.061C282.971 478.415 287.662 483.376 292.058 488.821C300.224 498.831 307.484 510.38 312.826 522.426C320.936 540.757 324.473 560.097 323.262 575.677" stroke="#9391B4" stroke-miterlimit="10"/>
<path d="M336.996 72.4443C318.979 78.7871 302.32 88.5879 289.307 101.969C281.632 109.825 275.256 119.066 270.928 129.165C268.087 135.76 266.135 142.725 265.227 149.875C262.28 172.286 268.544 196.006 272.803 217.241C274.714 226.769 277.238 235.555 276.628 244.926C276.099 253.065 273.244 261 269.036 268.495C263.272 278.759 254.923 288.503 246.962 296.956C242.54 301.624 238.272 306.106 234.28 310.505C225.907 319.71 218.664 327.923 212.902 337.618C204.437 351.787 198.675 370.681 201.568 390.737C201.85 392.789 202.24 394.774 202.656 396.727C207.166 417.91 217.555 432.092 230.055 441.259C243.662 451.288 260.991 458.254 277.658 472.574C282.685 476.876 287.545 481.82 292.079 487.223C300.533 497.263 307.86 508.919 313.137 521.171C321.079 539.832 324.094 559.677 321.912 575.806" stroke="#9A98BC" stroke-miterlimit="10"/>
<path d="M332.99 71.9462C315.185 78.4111 298.767 88.3596 285.992 101.832C278.46 109.703 272.197 118.933 267.921 128.969C265.13 135.503 263.173 142.412 262.203 149.51C259.096 171.738 264.748 195.317 269.473 216.365C271.647 225.953 274.52 234.819 274.177 244.307C273.89 252.594 271.164 260.687 267.024 268.289C261.332 278.718 252.932 288.523 244.71 296.917C240.17 301.539 235.67 305.986 231.441 310.294C222.514 319.352 214.521 327.467 208.014 337.119C198.466 351.279 191.611 370.362 194.531 390.701C194.814 392.753 195.209 394.794 195.655 396.773C200.428 418.016 212.419 432.272 226.144 441.151C241.171 450.844 259.662 457.157 277.072 471.206C282.319 475.43 287.374 480.328 292.052 485.745C300.762 495.788 308.219 507.604 313.373 520.067C321.205 539.051 323.617 559.438 320.487 576.086" stroke="#A19EC5" stroke-miterlimit="10"/>
<path d="M328.98 71.3921C311.355 77.9536 295.241 88.1008 282.697 101.608C275.314 109.55 269.184 118.682 264.933 128.687C262.168 135.19 260.206 142.042 259.173 149.09C255.881 171.164 260.972 194.541 266.17 215.458C268.574 225.081 271.827 234.053 271.758 243.714C271.713 252.148 269.116 260.4 265.012 268.085C259.362 278.652 250.917 288.575 242.458 296.877C237.774 301.485 233.093 305.835 228.603 310.083C219.151 319.021 210.403 326.98 203.126 336.621C192.489 350.714 184.553 370.101 187.521 390.634C187.834 392.712 188.229 394.753 188.675 396.732C193.716 418.091 207.303 432.365 222.279 440.924C238.67 450.287 258.323 455.948 276.476 469.727C281.974 473.898 287.193 478.723 292.015 484.155C300.982 494.202 308.536 506.15 313.625 518.819C321.32 538.158 323.154 559.056 319.078 576.222" stroke="#A8A5CD" stroke-miterlimit="10"/>
<path d="M324.997 70.8628C307.577 77.49 291.742 87.8668 279.403 101.439C272.164 109.396 266.148 118.517 261.973 128.43C259.233 134.901 257.291 141.666 256.166 148.638C252.682 170.502 257.193 193.764 262.857 214.494C265.523 224.178 269.126 233.23 269.298 243.039C269.496 251.62 267.022 259.974 262.966 267.854C257.388 278.584 248.861 288.545 240.145 296.842C235.317 301.435 230.457 305.689 225.73 309.845C215.723 318.638 206.194 326.473 198.204 336.096C186.422 350.128 177.486 369.782 180.475 390.541C180.763 392.649 181.183 394.659 181.692 396.69C186.968 418.141 202.183 432.458 218.384 440.728C236.17 449.786 256.985 454.794 275.907 468.271C281.625 472.365 287.07 477.168 292.005 482.589C301.259 492.665 308.881 504.721 313.879 517.627C321.436 537.321 322.694 558.73 317.67 576.414" stroke="#AFABD5" stroke-miterlimit="10"/>
<path d="M321.02 70.333C303.811 77.0823 288.218 87.6067 276.116 101.271C269.021 109.242 263.174 118.347 258.993 128.203C256.305 134.613 254.332 141.352 253.17 148.242C249.501 169.953 253.452 193.012 259.556 213.586C262.428 223.335 266.437 232.463 266.907 242.413C267.347 251.143 265.002 259.655 261.013 267.642C255.508 278.537 246.904 288.59 237.952 296.797C233.006 301.344 227.914 305.563 222.95 309.628C212.389 318.274 202.11 326.01 193.375 335.591C180.479 349.588 170.487 369.514 173.498 390.499C173.786 392.607 174.212 394.673 174.745 396.673C180.29 418.24 197.076 432.606 214.584 440.552C233.759 449.248 255.736 453.604 275.406 466.867C281.345 470.882 286.959 475.669 292.063 481.074C301.574 491.154 309.325 503.368 314.195 516.428C321.641 536.446 322.296 558.398 316.325 576.6" stroke="#B6B2DE" stroke-miterlimit="10"/>
<path d="M317.006 69.7792C300.004 76.5943 284.689 87.3483 272.818 101.047C265.866 109.033 260.132 118.127 256.028 127.891C253.365 134.269 251.387 140.952 250.189 147.76C246.36 169.287 249.724 192.175 256.3 212.618C259.46 222.396 263.792 231.635 264.505 241.734C265.155 250.585 262.997 259.251 259.018 267.35C253.612 278.378 244.931 288.524 235.717 296.67C230.627 301.203 225.355 305.325 220.16 309.355C209.043 317.855 198.04 325.462 188.535 335.032C174.581 348.987 163.502 369.16 166.535 390.37C166.854 392.504 167.28 394.571 167.819 396.626C173.625 418.254 192.013 432.694 210.772 440.32C231.342 448.712 254.475 452.359 274.863 465.382C281.079 469.314 286.862 474.084 292.11 479.504C301.878 489.588 309.727 501.935 314.506 515.232C321.815 535.605 321.892 558.067 314.943 576.762" stroke="#BDB8E6" stroke-miterlimit="10"/>
<path d="M313.022 69.2494C296.23 76.1865 281.157 87.0882 269.522 100.878C262.746 108.904 257.093 117.962 253.041 127.664C250.403 134.011 248.414 140.582 247.154 147.338C243.14 168.712 245.974 191.423 252.96 211.685C256.351 221.498 261.064 230.842 262.044 241.057C262.936 250.057 260.876 258.855 256.995 267.088C251.662 278.279 242.874 288.492 233.454 296.573C228.246 301.06 222.799 305.143 217.311 309.087C205.67 317.466 193.886 324.948 183.605 334.45C168.538 348.37 156.428 368.784 159.482 390.22C159.801 392.354 160.233 394.477 160.797 396.502C166.871 418.246 186.825 432.678 206.84 440.042C228.774 448.103 253.1 451.123 274.256 463.845C280.692 467.698 286.67 472.421 292.062 477.856C302.117 487.969 310.033 500.424 314.747 513.926C321.919 534.654 321.419 557.628 313.523 576.84" stroke="#C4BFEE" stroke-miterlimit="10"/>
<path d="M308.983 68.7255C292.371 75.7593 277.603 86.8596 266.174 100.715C259.541 108.756 254.027 117.772 250 127.443C247.357 133.734 245.393 140.273 244.097 146.948C239.922 168.138 242.196 190.646 249.628 210.808C253.281 220.682 258.313 230.081 259.597 240.495C260.731 249.642 258.8 258.599 254.961 266.97C249.7 278.325 240.861 288.6 231.184 296.677C225.832 301.149 220.206 305.135 214.481 308.988C202.279 317.165 189.751 324.604 178.726 334.064C162.575 347.974 149.378 368.635 152.454 390.297C152.747 392.461 153.235 394.579 153.8 396.604C160.11 418.44 181.691 432.915 202.958 439.958C226.25 447.634 251.769 450.026 273.673 462.533C280.33 466.309 286.508 471.041 292.038 476.434C302.35 486.551 310.365 499.139 314.987 512.878C322.048 533.93 320.944 557.445 312.102 577.175" stroke="#CBC5F7" stroke-miterlimit="10"/>
<path d="M304.999 68.197C279.112 79.4815 257.862 101.086 247.038 127.186C236.215 153.287 236.018 183.579 246.371 209.84C250.286 219.773 255.667 229.253 257.193 239.815C260.403 261.692 246.182 282.65 228.948 296.55C211.739 310.419 191.119 319.604 173.853 333.478C156.614 347.322 142.361 368.255 145.459 390.143C149.103 415.652 174.483 432.325 199.114 439.701C223.8 447.072 250.45 448.786 273.123 460.992C292.914 471.652 308.361 490.161 315.285 511.568C322.21 532.975 320.528 557.001 310.738 577.25" stroke="#D2CCFF" stroke-miterlimit="10"/>
<path d="M299.569 72.3906C274.063 83.781 253.289 105.311 242.844 131.204C232.4 157.098 232.258 187.071 242.772 212.946C246.873 223.033 252.773 232.577 254.669 243.131C258.519 264.548 245.173 285.138 228.991 299.022C212.834 312.876 193.212 322.363 176.532 336.409C159.613 350.621 144.944 371.366 147.446 393.283C150.428 418.713 175.015 436.032 199.571 443.814C224.126 451.596 251.124 453.077 273.659 464.442C293.143 474.277 308.133 491.891 315.155 512.234C322.177 532.578 321.086 555.637 311.961 575.394" stroke="#CDC9FE" stroke-miterlimit="10"/>
<path d="M294.136 76.6437C269.067 88.1345 248.713 109.596 238.591 135.287C228.469 160.979 228.47 190.654 239.172 216.112C243.489 226.377 249.871 235.903 252.137 246.451C256.62 267.351 244.156 287.629 229.052 301.467C213.953 315.361 195.296 325.126 179.172 339.318C162.604 353.923 147.431 374.46 149.368 396.431C151.631 421.788 175.539 439.742 199.907 447.941C224.274 456.139 251.651 457.413 274.044 467.88C293.215 476.834 307.785 493.634 314.904 512.914C321.998 532.226 321.523 554.285 313.063 573.552" stroke="#C7C6FE" stroke-miterlimit="10"/>
<path d="M288.704 80.8392C264.046 92.4615 244.17 113.849 234.34 139.313C224.509 164.777 224.708 194.148 235.573 219.22C240.106 229.664 246.971 239.172 249.611 249.77C254.703 270.184 243.141 290.062 229.094 303.941C215.047 317.82 197.357 327.862 181.794 342.257C165.602 357.224 149.899 377.584 151.298 399.578C152.873 424.887 176.07 443.451 200.25 452.066C224.43 460.681 252.18 461.692 274.491 471.312C293.268 479.421 307.495 495.314 314.717 513.588C321.907 531.836 321.993 552.902 314.228 571.703" stroke="#C2C3FD" stroke-miterlimit="10"/>
<path d="M283.243 85.0657C258.991 96.7629 239.54 118.138 230.089 143.395C220.637 168.651 220.978 197.724 231.974 222.385C236.724 233.008 244.04 242.473 247.087 253.145C252.756 273.048 242.131 292.608 229.168 306.497C216.204 320.386 199.481 330.705 184.447 345.277C168.549 360.644 152.455 380.785 153.233 402.839C154.12 428.1 176.576 447.247 200.599 456.304C224.647 465.331 252.658 466.089 274.888 474.863C293.327 482.121 307.16 497.169 314.479 514.379C321.798 531.59 322.443 551.663 315.374 569.998" stroke="#BDC0FD" stroke-miterlimit="10"/>
<path d="M277.84 89.2871C253.999 101.116 234.995 122.391 225.891 147.415C216.787 172.439 217.27 201.213 228.398 225.463C233.364 236.264 241.137 245.742 244.553 256.407C250.8 275.8 241.113 295.041 229.202 308.915C217.291 322.788 201.57 333.467 187.06 348.159C171.514 363.92 154.972 383.848 155.155 405.93C155.379 431.112 177.074 450.93 200.96 460.343C224.82 469.786 253.179 470.311 275.353 478.207C293.428 484.646 306.861 498.793 314.278 514.94C321.694 531.088 322.93 550.193 316.551 568.006" stroke="#B8BDFC" stroke-miterlimit="10"/>
<path d="M272.377 93.5127C248.973 105.442 230.389 126.648 221.639 151.496C212.888 176.343 213.565 204.757 224.798 228.627C229.981 239.606 238.206 249.041 242.053 259.75C248.821 278.637 240.123 297.499 229.269 311.413C218.441 325.297 203.687 336.253 189.707 351.123C174.542 367.302 157.491 386.965 157.084 409.133C156.62 434.267 177.604 454.695 201.333 464.549C225.062 474.404 253.656 474.707 275.774 481.726C293.43 487.351 306.576 500.585 314.064 515.7C321.552 530.816 323.373 548.896 317.69 566.244" stroke="#B2BAFC" stroke-miterlimit="10"/>
<path d="M266.943 97.7081C243.95 109.769 225.812 130.875 217.384 155.521C208.956 180.167 209.857 208.246 221.196 231.735C226.596 242.893 235.246 252.316 239.494 263.043C246.752 281.399 239.079 299.963 229.303 313.831C219.502 327.73 205.776 339.015 192.351 354.03C177.537 370.603 160.013 390.084 159.036 412.249C157.909 437.305 178.127 458.347 201.699 468.644C225.271 478.941 254.094 478.965 276.219 485.158C293.455 489.968 306.257 502.296 313.874 516.374C321.459 530.426 323.896 547.508 318.853 564.396" stroke="#ADB6FB" stroke-miterlimit="10"/>
<path d="M261.513 101.961C238.926 114.096 221.24 135.159 213.16 159.572C205.079 183.986 206.179 211.761 217.624 234.87C223.24 246.206 232.311 255.56 236.996 266.388C244.718 284.244 238.096 302.479 229.372 316.331C220.654 330.24 207.034 341.145 194.999 356.995C181.495 374.752 162.565 393.229 160.967 415.453C159.178 440.43 178.659 462.113 202.069 472.795C225.479 483.478 254.542 483.337 276.662 488.59C293.509 492.612 305.968 504.033 313.651 517.022C321.365 530.037 324.331 546.1 319.983 562.522" stroke="#A8B3FB" stroke-miterlimit="10"/>
<path d="M256.076 106.156C233.901 118.423 216.636 139.417 208.934 163.623C201.176 187.835 202.5 215.275 214.02 237.978C219.853 249.493 229.35 258.834 234.435 269.681C242.622 287.036 237.045 304.887 229.41 318.805C221.744 332.698 209.039 343.942 197.616 359.933C184.556 378.16 165.085 396.347 162.892 418.601C160.414 443.53 179.185 465.821 202.407 476.921C225.629 488.02 254.928 487.658 277.048 492.028C293.45 495.267 305.617 505.718 313.402 517.701C321.188 529.684 324.77 544.747 321.087 560.679" stroke="#A3B0FA" stroke-miterlimit="10"/>
<path d="M250.614 110.382C228.85 122.78 212.031 143.674 204.652 167.678C197.273 191.682 198.79 218.763 210.39 241.116C216.465 252.779 226.332 262.113 231.904 272.998C240.526 289.828 236.03 307.375 229.447 321.278C222.864 335.181 212.085 347.494 200.232 362.871C186.483 380.737 167.573 399.439 164.791 421.778C161.651 446.628 179.66 469.591 202.72 481.076C225.78 492.561 255.262 492.039 277.465 495.49C293.396 497.976 305.301 507.485 313.184 518.405C321.067 529.324 325.24 543.42 322.222 558.86" stroke="#9DADFA" stroke-miterlimit="10"/>
<path d="M245.214 114.603C223.886 127.102 207.519 147.953 200.431 171.73C193.343 195.506 195.115 222.277 206.822 244.25C213.113 256.092 223.349 265.419 229.41 276.343C238.47 292.703 235.076 309.86 229.52 323.778C223.989 337.666 214.238 350.307 202.91 365.804C189.542 384.089 170.154 402.553 166.745 424.895C162.974 449.692 180.186 473.244 203.088 485.171C225.991 497.099 255.652 496.359 277.882 498.896C293.372 500.656 304.954 509.171 312.935 519.027C320.915 528.884 325.647 541.986 323.325 556.961" stroke="#98AAF9" stroke-miterlimit="10"/>
<path d="M239.75 118.828C218.803 131.433 202.913 152.21 196.204 175.779C189.495 199.349 191.491 225.785 203.247 247.383C209.78 259.372 220.386 268.692 226.878 279.66C236.29 295.531 234.028 312.323 229.581 326.22C225.133 340.118 216.385 353.118 205.581 368.736C192.601 387.497 172.729 405.665 168.725 428.035C164.291 452.754 180.766 476.946 203.538 489.285C226.309 501.623 256.072 500.76 278.435 502.316C293.404 503.386 304.801 510.864 312.853 519.689C320.906 528.514 326.254 540.616 324.596 555.1" stroke="#93A7F9" stroke-miterlimit="10"/>
<path d="M234.343 123.051C213.832 135.756 198.362 156.464 191.976 179.831C185.589 203.199 187.835 229.27 199.697 250.487C206.478 262.681 217.422 271.968 224.402 282.975C234.197 298.381 233.068 314.808 229.672 328.69C226.252 342.603 218.563 355.957 208.252 371.67C195.654 390.85 175.329 408.749 170.678 431.209C165.581 455.849 181.321 480.681 203.905 493.437C226.488 506.192 256.41 505.2 278.85 505.78C293.353 506.154 304.453 512.607 312.633 520.394C320.814 528.181 326.721 539.291 325.729 553.284" stroke="#8EA4F9" stroke-miterlimit="10"/>
<path d="M228.883 127.277C208.785 140.113 193.735 160.752 187.696 183.887C181.658 207.022 184.159 232.784 196.039 253.601C203.062 265.942 214.325 275.284 221.813 286.242C231.99 301.185 232.019 317.216 229.681 331.138C227.344 345.061 220.657 358.775 210.84 374.583C198.629 394.238 177.82 411.842 172.574 434.331C166.846 458.917 181.763 484.37 204.215 497.536C226.667 510.703 256.696 509.644 279.239 509.217C293.225 508.957 304.109 514.349 312.356 521.048C320.634 527.772 327.101 537.887 326.836 551.44" stroke="#88A1F8" stroke-miterlimit="10"/>
<path d="M223.447 131.472C203.754 144.384 189.156 164.98 183.471 187.938C177.786 210.897 180.531 236.236 192.466 256.735C199.73 269.223 211.307 278.564 219.313 289.586C229.817 304.071 231.004 319.706 229.75 333.638C228.495 347.571 222.812 361.644 213.487 377.547C201.664 397.678 180.402 415.011 174.504 437.535C168.113 462.042 182.294 488.135 204.584 501.688C226.848 515.271 257.015 514.17 279.681 512.65C293.208 511.75 303.789 516.06 312.164 521.721C320.539 527.382 327.597 536.53 327.996 549.592" stroke="#839EF8" stroke-miterlimit="10"/>
<path d="M218.019 135.725C198.738 148.767 184.586 169.264 179.249 191.99C173.911 214.715 176.912 239.745 188.896 259.869C196.434 272.531 208.297 281.901 216.817 292.93C227.678 306.982 230.023 322.221 229.821 336.138C229.619 350.055 225 364.539 216.138 380.512C204.759 401.112 182.956 418.156 176.463 440.708C169.44 465.162 182.854 491.869 204.956 505.839C227.089 519.834 257.369 518.722 280.132 516.138C293.148 514.661 303.502 517.797 311.98 522.451C320.427 527.08 328.07 535.204 329.19 547.769" stroke="#7E9BF7" stroke-miterlimit="10"/>
<path d="M212.581 139.919C193.736 153.063 180.005 173.49 174.99 196.014C169.975 218.538 173.25 243.171 185.29 262.976C193.069 275.786 205.252 285.211 214.254 296.222C225.472 309.841 229.001 324.653 229.851 338.555C230.732 352.482 227.141 367.294 218.747 383.393C207.78 404.438 185.469 421.217 178.355 443.829C170.669 468.204 183.316 495.526 205.292 509.963C227.268 524.4 257.692 523.303 280.542 519.544C293.072 517.458 303.179 519.507 311.723 523.073C320.268 526.639 328.501 533.794 330.287 545.869" stroke="#7898F7" stroke-miterlimit="10"/>
<path d="M207.147 144.114C188.713 157.389 175.428 177.717 170.766 200.064C166.104 222.412 169.63 246.68 181.688 266.084C189.74 279.067 202.153 288.527 211.751 299.51C223.27 312.701 227.982 327.086 229.916 340.998C231.849 354.909 229.323 370.131 221.422 386.325C210.874 407.871 188.047 424.33 180.337 446.97C172.021 471.292 183.875 499.26 205.689 514.083C227.502 528.906 258.081 527.936 280.986 522.975C293.011 520.369 302.86 521.218 311.533 523.746C320.18 526.305 328.999 532.436 331.449 544.02" stroke="#7395F6" stroke-miterlimit="10"/>
<path d="M201.719 148.367C183.666 161.748 170.888 182.026 166.518 204.147C162.173 226.236 166.01 250.189 178.092 269.25C186.386 282.38 199.093 291.925 209.199 302.86C221.049 315.649 226.971 329.576 229.961 343.529C232.952 357.481 231.485 373.057 224.047 389.321C213.942 411.337 190.632 427.5 182.245 450.206C173.296 474.474 184.384 503.057 206.035 518.265C227.661 533.505 258.426 532.688 281.412 526.495C292.987 523.362 302.579 523.011 311.323 524.507C320.068 526.003 329.446 531.141 332.592 542.259" stroke="#6E92F6" stroke-miterlimit="10"/>
<path d="M196.283 152.561C178.641 166.073 166.285 186.283 162.262 208.171C158.271 230.084 162.383 253.64 174.489 272.357C183.081 285.629 195.999 295.297 206.669 306.177C218.825 318.595 225.956 332.064 229.999 346.001C234.043 359.938 233.666 375.894 226.69 392.227C217.06 414.738 193.178 430.587 184.196 453.32C174.616 477.536 184.936 506.733 206.4 522.359C227.863 537.984 258.85 537.402 281.85 529.869C292.975 526.21 302.254 524.664 311.095 525.097C319.937 525.53 329.906 529.7 333.717 540.327" stroke="#698EF5" stroke-miterlimit="10"/>
<path d="M190.823 156.789C173.618 170.401 161.682 190.542 158.038 212.223C154.395 233.903 158.756 257.094 170.917 275.492C179.752 288.912 192.962 298.665 204.14 309.497C216.603 321.543 224.912 334.53 230.038 348.477C235.164 362.424 235.878 378.759 229.308 395.167C220.122 418.148 195.73 433.732 186.096 456.5C175.884 480.662 185.407 510.449 206.714 526.516C228.02 542.584 259.26 542.263 282.243 533.365C292.95 529.204 301.914 526.464 310.853 525.834C319.767 525.235 330.352 528.405 334.828 538.542" stroke="#638BF5" stroke-miterlimit="10"/>
<path d="M185.418 161.009C168.65 174.722 157.134 194.795 153.813 216.273C150.492 237.752 155.185 260.54 167.313 278.6C176.447 292.162 189.843 302.069 201.636 312.784C214.405 324.459 223.923 336.988 230.102 350.919C236.28 364.851 238.058 381.597 231.95 398.074C223.265 421.52 198.276 436.819 188.047 459.616C177.204 483.725 185.96 514.126 207.104 530.579C228.279 547.058 259.802 547.023 282.706 536.709C293.026 532.073 301.64 528.056 310.681 526.42C319.723 524.783 330.863 526.904 336.009 536.605" stroke="#5E88F4" stroke-miterlimit="10"/>
<path d="M179.957 165.237C163.569 179.055 152.53 199.053 149.557 220.299C146.584 241.545 151.558 263.993 163.71 281.709C173.111 295.388 186.749 305.442 199.107 316.103C212.212 327.433 222.934 339.447 230.165 353.363C237.427 367.305 240.295 384.43 234.624 401.008C226.413 424.949 200.909 439.928 190.029 462.759C178.554 486.814 186.517 517.861 207.53 534.726C228.543 551.591 260.442 551.918 283.211 540.192C293.143 535.081 301.412 529.845 310.521 527.119C319.659 524.42 331.39 525.572 337.2 534.783" stroke="#5985F4" stroke-miterlimit="10"/>
<path d="M174.522 169.43C158.572 183.349 147.954 203.279 145.334 224.348C142.683 245.392 147.932 267.444 160.139 284.841C169.838 298.662 183.662 308.869 196.579 319.42C209.99 330.379 221.891 341.91 230.235 355.861C238.549 369.787 242.508 387.291 237.273 403.97C229.594 428.402 203.493 443.096 191.961 465.96C179.854 489.963 187.02 521.598 207.876 538.906C228.731 556.213 260.977 556.877 283.573 543.659C293.119 538.072 301.012 531.59 310.248 527.827C319.484 524.064 331.774 524.223 338.312 532.994" stroke="#5482F3" stroke-miterlimit="10"/>
<path d="M169.091 173.683C153.551 187.733 143.354 207.594 141.082 228.431C138.81 249.267 144.334 270.922 156.54 288.006C166.506 301.944 180.578 312.355 194.053 322.795C207.777 333.44 220.906 344.425 230.278 358.392C239.649 372.359 244.723 390.212 239.895 406.966C232.715 431.862 206.049 446.297 193.89 469.165C181.183 493.139 187.551 525.364 208.219 543.088C228.887 560.812 261.683 561.879 284.052 547.173C293.266 541.106 300.783 533.378 310.091 528.583C319.4 523.788 332.305 522.948 339.508 531.228" stroke="#4E7FF3" stroke-miterlimit="10"/>
<path d="M163.648 177.88C148.514 192.005 138.799 211.848 136.819 232.457C134.869 253.092 140.725 274.345 152.898 291.09C163.163 305.17 177.42 315.735 191.48 326.033C205.54 336.332 219.848 346.834 230.272 360.785C240.696 374.736 246.916 392.964 242.468 409.823C235.82 435.21 208.526 449.335 195.746 472.262C182.376 496.158 188.008 529.023 208.514 547.133C229.02 565.243 262.342 566.743 284.395 550.53C293.335 543.976 300.363 535.014 309.769 529.156C319.174 523.298 332.67 521.49 340.538 529.279" stroke="#497CF2" stroke-miterlimit="10"/>
</g>
</svg>
