<svg width="1920" height="559" viewBox="0 0 1920 559" fill="none" xmlns="http://www.w3.org/2000/svg">
<g opacity="0.16">
<path d="M-381.426 81.7571C-273.184 78.5441 -158.374 78.6944 -35.9835 91.7027C86.1533 104.731 217.438 132.222 308.258 171.309C416.703 217.997 458.197 276.066 584.615 317.539C666.458 344.375 766.497 358.441 861.085 373.44C955.909 388.481 1058.5 408.026 1123.34 439.195C1239.57 495.08 1176.26 559.359 1303.95 613.148C1388.27 648.619 1514.73 662.164 1625.05 684.423C1764.59 712.608 1890.34 759.509 1958.2 808.723C2026.05 857.937 2034.52 908.47 1981 942.679" stroke="#1C2226" stroke-miterlimit="10"/>
<path d="M-367.233 78.7006C-259.548 75.7176 -144.868 76.3728 -23.3032 89.6946C50.0311 97.693 126.722 110.919 195.796 128.651C240.918 140.217 282.796 153.775 318.536 169C426.842 215.267 470.747 272.647 593.92 314.197C637.718 328.958 686.167 340.133 737.003 349.757C780.035 357.908 824.595 364.948 868.379 372.112C929.781 382.121 994.967 393.802 1051.07 408.933C1082.14 417.306 1110.46 426.703 1133.98 437.413C1180.36 458.453 1201.15 480.627 1216.66 503.102C1239.26 535.509 1251.47 568.752 1311.41 599.698C1317.74 603.019 1324.84 606.278 1332.42 609.56C1415.91 645.345 1536.67 659.843 1640.26 682.211C1741.72 704.193 1833.97 736.802 1900.86 773.491C1920.18 784.106 1937.19 795.031 1951.92 806.14C1978.24 826.139 1996.04 846.453 2005.15 865.86C2018.98 894.771 2013.75 921.634 1987.74 942.507" stroke="#23292E" stroke-miterlimit="10"/>
<path d="M-353.252 75.5395C-245.901 72.8924 -131.589 74.0097 -10.5806 87.5616C62.4676 95.7065 138.415 108.931 207.015 126.577C251.9 138.101 293.574 151.489 329.33 166.651C437.514 212.434 483.34 269.104 603.522 310.708C646.78 325.637 693.88 337.23 744.111 347.273C786.792 355.823 831.507 363.221 875.495 370.554C937.306 380.901 1002.97 392.667 1059.88 407.547C1091.23 415.774 1119.87 424.898 1144.42 435.463C1192.19 455.96 1215.86 477.531 1234.22 499.53C1260.97 531.232 1278.66 564.404 1339.48 595.774C1346.05 599.137 1352.89 602.417 1360.47 605.699C1443.39 641.777 1557.98 657.143 1654.81 679.746C1749.54 701.837 1834.24 733.942 1896.45 770.45C1914.54 781.041 1930.79 792.028 1944.76 803.197C1970.05 823.341 1988.02 843.95 1998.52 863.74C2014.2 893.182 2013.75 920.709 1993.84 942.02" stroke="#2A2F37" stroke-miterlimit="10"/>
<path d="M-339.304 72.4406C-232.51 70.0236 -118.329 71.6456 2.10809 85.4907C74.6169 93.8026 149.837 106.962 217.963 124.523C262.374 135.961 303.827 149.244 339.616 164.279C447.898 209.683 495.882 265.686 613.089 307.283C655.555 322.399 701.56 334.388 751.439 344.83C793.768 353.779 838.418 361.43 882.815 369.1C945.034 379.785 1011.4 391.68 1068.89 406.267C1100.77 414.389 1129.95 423.346 1155.08 433.556C1204.47 453.551 1230.57 474.371 1252 495.999C1283.12 527.102 1306.32 560.078 1367.77 591.891C1374.34 595.255 1381.16 598.598 1388.73 601.943C1471.06 638.377 1579.7 654.654 1669.57 677.322C1757.82 699.566 1834.48 731.081 1892.49 767.558C1909.34 778.124 1924.58 789.192 1938.04 800.403C1962.28 820.754 1980.44 841.595 1992.09 861.724C2009.85 891.74 2013.96 919.89 2000.15 941.574" stroke="#31363F" stroke-miterlimit="10"/>
<path d="M-325.356 69.337C-218.896 67.2559 -105.083 69.3399 14.5607 83.3724C86.5465 91.7881 161.26 104.988 228.911 122.464C273.086 133.859 314.318 147.036 349.92 161.84C458.3 206.865 508.204 262.157 622.421 303.809C664.347 319.092 709.02 331.436 758.278 342.361C800.271 351.646 845.06 359.717 889.882 367.663C952.51 378.685 1019.37 390.602 1077.89 405.044C1110.07 412.957 1139.77 421.81 1165.73 431.706C1216.73 451.201 1245.23 471.395 1269.78 492.463C1305.06 522.861 1333.73 555.768 1396.3 588.047C1402.85 591.473 1409.91 594.859 1417.24 598.161C1498.76 634.846 1601.7 652.076 1684.83 674.917C1766.35 697.269 1835.21 728.238 1888.78 764.64C1904.38 775.245 1918.64 786.269 1931.58 797.583C1954.79 818.079 1973.1 839.278 1986.16 859.727C2006 890.317 2014.43 919.046 2006.94 941.209" stroke="#383C47" stroke-miterlimit="10"/>
<path d="M-311.387 66.1775C-205.246 64.3691 -91.8009 66.9152 27.2708 81.2408C98.7336 89.7605 172.687 103.022 240.118 120.392C284.056 131.744 325.067 144.815 360.464 159.45C468.705 204.054 521.005 258.721 632.009 300.323C673.38 315.836 716.721 328.534 765.627 339.857C807.269 349.541 852.213 357.971 897.239 366.086C960.038 377.403 1027.85 389.491 1086.93 403.64C1119.64 411.449 1149.66 420.029 1176.19 429.632C1228.81 448.626 1259.96 468.175 1287.36 488.766C1326.77 518.522 1361.17 551.339 1424.39 583.998C1431.18 587.467 1437.99 590.873 1445.3 594.239C1526.25 631.216 1623.23 649.42 1699.4 672.327C1774.41 694.894 1835.26 725.211 1884.63 761.517C1899 772.099 1912.24 783.204 1924.68 794.559C1946.86 815.2 1965.34 836.694 1979.56 857.419C2001.27 888.477 2014.47 917.934 2013.07 940.534" stroke="#3F4350" stroke-miterlimit="10"/>
<path d="M-297.441 63.0769C-191.856 61.4986 -78.5579 64.6126 39.958 79.1682C110.898 87.7917 184.345 101.094 251.064 118.336C294.528 129.603 335.319 142.568 370.749 157.076C479.088 201.302 533.308 255.258 641.338 296.852C682.153 312.595 724.161 325.648 772.716 337.37C814.023 347.39 858.869 356.199 904.32 364.588C967.527 376.243 1035.81 388.416 1095.69 402.378C1128.68 410.04 1159.24 418.454 1186.6 427.743C1240.6 446.193 1274.63 465.139 1304.89 485.253C1348.69 514.348 1388.33 547.051 1452.43 580.134C1459.22 583.603 1466.26 587.052 1473.56 590.48C1553.92 627.814 1644.96 646.929 1714.38 670.008C1782.67 692.683 1835.94 722.56 1880.64 758.686C1893.78 769.243 1906.26 780.409 1917.94 791.825C1939.07 812.674 1957.75 834.4 1973.36 855.508C1997.15 887.139 2014.9 917.218 2019.59 940.255" stroke="#464958" stroke-miterlimit="10"/>
<path d="M-283.231 59.9591C-177.982 58.7167 -65.0514 62.2928 52.6718 77.0358C123.072 85.8263 195.792 99.0636 262.274 116.262C305.501 127.487 346.072 140.346 381.313 154.623C489.531 198.364 545.876 251.778 650.694 293.322C690.953 309.295 731.645 322.639 779.579 334.844C820.534 345.263 865.552 354.366 911.19 362.987C974.807 374.98 1043.82 387.219 1104.25 400.95C1137.76 408.509 1168.88 416.692 1196.79 425.751C1252.42 443.701 1288.87 461.895 1322.2 481.639C1370.14 510.092 1415.27 542.662 1480.49 576.211C1487.26 579.743 1494.31 583.192 1501.6 586.62C1581.39 624.247 1666.47 644.336 1728.93 667.48C1790.71 690.37 1835.97 719.595 1876.47 755.689C1888.35 766.285 1899.86 777.406 1910.99 788.99C1931.09 809.983 1949.69 832.024 1966.7 853.452C1992.34 885.614 2014.86 916.421 2025.66 939.831" stroke="#4D5060" stroke-miterlimit="10"/>
<path d="M-269.28 56.8567C-164.349 55.8871 -51.7866 59.9252 65.3645 74.9614C135.479 83.8985 207.455 97.1338 273.226 114.205C316.233 125.323 356.329 138.097 391.84 152.29C500.156 195.653 558.405 248.42 660.265 289.893C699.984 306.033 739.566 319.837 786.911 332.398C827.531 343.152 872.687 352.677 918.751 361.573C982.775 373.904 1052.26 386.228 1113.74 399.752C1147.54 407.163 1179.2 415.18 1207.93 423.925C1265.17 441.374 1304.28 458.923 1340.46 478.19C1392.78 505.98 1443.39 538.481 1509.26 572.41C1516.03 575.942 1523.06 579.454 1530.34 582.945C1609.3 620.886 1688.9 642.034 1744.17 665.139C1799.69 688.286 1836.69 716.816 1872.99 752.815C1883.65 763.387 1894.14 774.589 1904.76 786.214C1923.84 807.351 1942.6 829.688 1961.01 851.498C1988.73 884.233 2015.8 915.663 2032.69 939.51" stroke="#545669" stroke-miterlimit="10"/>
<path d="M-255.329 53.7586C-150.97 53.0821 -38.3023 57.6677 78.056 72.8913C147.647 81.9322 219.116 95.2083 284.414 112.194C326.947 123.227 367.076 135.875 402.367 149.962C510.78 192.946 570.95 245.002 669.819 286.53C708.983 302.901 747.232 317.059 794.209 330.082C834.478 341.236 879.552 351.076 926.04 360.247C990.473 372.915 1060.43 385.324 1122.72 398.598C1157.04 405.906 1189.26 413.692 1218.33 422.102C1277.19 439.05 1318.94 455.953 1357.97 474.743C1414.43 501.892 1470.53 534.259 1537.28 568.612C1544.29 572.187 1551.3 575.762 1558.34 579.21C1636.73 617.444 1710.36 639.629 1758.93 662.779C1807.92 686.205 1836.9 714.082 1868.78 749.943C1878.2 760.491 1887.93 771.755 1897.79 783.44C1915.84 804.723 1934.77 827.354 1954.33 849.504C1984.14 882.813 2015.76 914.865 2038.73 939.148" stroke="#5B5D71" stroke-miterlimit="10"/>
<path d="M-241.376 50.5958C-137.336 50.1921 -25.0361 55.2397 90.513 70.7137C159.565 79.9216 230.29 93.1958 295.368 110.075C337.663 121.066 377.571 133.608 412.674 147.463C520.949 190.026 583.023 241.435 679.171 282.935C717.542 299.492 754.696 314.048 801.084 327.427C841.001 338.98 886.247 349.115 932.923 358.518C997.765 371.524 1068.43 384.061 1131.3 397.042C1165.9 404.203 1198.67 411.759 1228.56 419.919C1289.03 436.365 1333.2 452.58 1375.32 470.937C1436.17 497.423 1497.74 529.721 1565.39 564.433C1572.38 568.071 1579.39 571.646 1586.65 575.201C1664.46 613.791 1732.36 636.992 1773.73 660.166C1816.21 683.806 1837.18 711.031 1864.85 746.86C1873.02 757.447 1881.75 768.729 1891.11 780.455C1908.11 801.945 1927.22 824.872 1948.18 847.341C1979.83 881.181 2016.25 913.898 2045.31 938.618" stroke="#626379" stroke-miterlimit="10"/>
<path d="M-227.414 47.4962C-123.709 47.4283 -11.7764 52.938 103.217 68.6421C171.746 77.9539 241.964 91.2689 306.331 108.02C348.389 118.968 387.84 131.362 422.976 145.091C531.349 187.275 595.311 238.099 688.517 279.465C726.332 296.253 762.153 311.163 808.174 325.004C847.756 336.893 893.141 347.449 940.005 357.084C1005.02 370.385 1076.41 382.988 1140.07 395.781C1175.2 402.838 1208.27 410.185 1238.98 418.031C1301.07 433.976 1347.89 449.546 1392.86 467.425C1458.08 493.313 1524.93 525.372 1593.44 560.57C1600.43 564.208 1607.68 567.826 1614.69 571.401C1691.92 610.284 1753.83 634.585 1788.51 657.742C1824.22 681.68 1837.42 708.232 1860.68 743.861C1867.61 754.423 1875.35 765.724 1884.19 777.554C1900.16 799.189 1919.43 822.411 1941.55 845.219C1975.29 879.633 2016.25 912.972 2051.4 938.129" stroke="#696A82" stroke-miterlimit="10"/>
<path d="M-213.437 44.3328C-110.288 44.4951 1.51355 50.5096 115.935 66.5068C183.94 75.9225 253.415 89.2355 317.545 105.944C359.366 116.849 398.597 129.137 433.528 142.697C541.778 184.397 607.866 234.68 698.097 276.038C735.356 293.056 769.845 308.32 815.515 322.56C854.745 334.848 900.048 345.72 947.59 355.609C1013.01 369.248 1085.12 381.979 1149.58 394.521C1185.24 401.475 1218.86 408.591 1250.14 416.144C1314.09 431.631 1363.32 446.512 1411.14 463.915C1480.75 489.141 1553.07 521.13 1622.23 556.709C1629.46 560.39 1636.46 564.028 1643.45 567.666C1719.87 606.8 1775.79 632.2 1803.77 655.34C1832.97 679.555 1838.17 705.393 1857.22 740.989C1862.9 751.59 1869.87 762.952 1877.97 774.78C1892.91 796.56 1912.36 820.077 1935.86 843.268C1971.68 878.255 2017.2 912.216 2058.44 937.81" stroke="#70708A" stroke-miterlimit="10"/>
<path d="M-199.267 41.2737C-96.4534 41.7718 14.9801 48.2483 128.609 64.433C196.075 74.0156 265.06 87.3063 328.478 103.887C369.826 114.707 408.835 126.888 443.816 140.259C552.164 181.581 619.919 231.173 707.429 272.503C744.116 289.814 777.306 305.306 822.354 320.029C861.233 332.716 906.691 343.946 954.421 354.067C1020.25 368.044 1092.83 380.86 1158.11 393.152C1194.05 399.959 1228.21 406.909 1260.06 414.168C1325.65 429.091 1377.5 443.39 1428.18 460.317C1501.93 484.9 1579.74 516.756 1650.02 552.801C1657.23 556.545 1664.23 560.183 1671.22 563.821C1747.05 603.311 1797 629.749 1818.05 652.828C1840.47 677.342 1837.91 702.507 1852.76 738.008C1857.21 748.585 1863.19 759.965 1870.76 771.897C1884.65 793.885 1904.28 817.697 1928.96 841.101C1966.63 876.62 2016.94 911.245 2064.28 937.213" stroke="#777792" stroke-miterlimit="10"/>
<path d="M-185.314 38.1751C-82.8191 38.946 28.2302 45.9477 141.303 62.3624C208.483 72.0916 276.708 85.4435 339.669 101.876C380.779 112.653 419.568 124.729 454.582 137.973C562.792 178.873 632.434 227.881 717.239 269.121C753.133 286.619 785.228 302.508 829.924 317.63C868.468 330.652 914.081 342.241 961.983 352.657C1028.22 366.971 1101.53 379.852 1167.36 391.914C1203.82 398.617 1238.54 405.337 1270.97 412.303C1338.17 426.726 1392.68 440.379 1446.22 456.766C1524.36 480.687 1607.41 512.43 1678.57 548.898C1685.78 552.642 1692.99 556.386 1699.74 560.045C1775 599.828 1818.72 627.323 1833.29 650.49C1848.95 675.239 1838.63 699.731 1849.05 735.095C1852.27 745.648 1857.24 757.11 1864.3 769.083C1877.16 791.215 1896.96 815.322 1923.03 839.109C1962.79 875.201 2017.64 910.448 2071.07 936.853" stroke="#7E7E9B" stroke-miterlimit="10"/>
<path d="M-171.343 35.0136C-69.4203 36.0776 41.5144 43.521 154.015 60.2289C220.672 70.062 288.153 83.412 350.861 99.8644C391.734 110.599 430.303 122.569 465.112 135.645C573.42 176.166 644.95 224.59 726.797 265.758C762.135 283.487 793.135 299.773 837.243 315.251C875.435 328.672 920.966 340.576 969.309 351.204C1035.96 365.856 1109.74 378.823 1176.38 390.634C1213.14 397.128 1248.4 403.68 1281.64 410.396C1350.46 424.318 1407.37 437.282 1464.01 453.235C1546.53 476.495 1635.06 508.168 1706.86 545.016C1714.31 548.803 1721.28 552.567 1728.25 556.269C1802.69 596.365 1840.43 624.897 1848.32 648.047C1856.97 673.052 1839.12 696.914 1845.35 732.183C1847.31 742.774 1851.3 754.191 1857.82 766.331C1869.64 788.671 1889.62 813.01 1916.85 837.137C1958.69 873.803 2018.1 909.672 2077.85 936.556" stroke="#8584A3" stroke-miterlimit="10"/>
<path d="M-157.391 31.9123C-55.7868 33.2492 54.7636 41.2177 166.708 58.1556C232.842 68.0926 299.817 81.4834 361.813 97.8077C402.213 108.457 440.561 120.321 475.419 133.208C583.588 173.308 657.007 221.147 736.148 262.224C770.694 280.14 800.598 296.823 844.102 312.72C881.942 326.541 927.628 338.803 976.159 349.662C1043.21 364.653 1117.71 377.747 1185.14 389.372C1222.43 395.761 1258.01 402.041 1292.05 408.506C1362.51 421.864 1422.05 434.246 1481.54 449.722C1568.44 472.383 1662.22 503.88 1735.14 541.195C1742.59 544.981 1749.79 548.788 1756.52 552.51C1830.38 592.9 1861.68 622.383 1863.33 645.664C1864.98 670.861 1839.36 694.051 1841.39 729.287C1842.12 739.855 1845.09 751.354 1851.11 763.534C1861.9 786.018 1881.8 810.673 1910.43 835.119C1954.11 872.316 2018.31 908.85 2084.15 936.171" stroke="#8C8BAC" stroke-miterlimit="10"/>
<path d="M-143.434 28.8113C-42.1652 30.484 68.0337 38.8515 179.169 56.0399C244.764 66.1438 311.011 79.4695 372.771 95.7511C412.95 106.294 451.077 118.053 485.714 130.834C593.998 170.492 669.051 217.767 745.471 258.816C779.445 277.025 808.034 294 851.185 310.296C888.674 324.515 934.532 337.073 983.471 348.27C1050.7 363.555 1125.9 376.778 1194.14 388.152C1231.72 394.395 1268.02 400.74 1302.47 406.617C1374.66 419.032 1436.74 431.21 1499.08 446.209C1590.12 468.165 1689.62 499.635 1763.19 537.33C1770.62 541.18 1777.82 544.987 1784.53 548.772C1857.8 589.518 1882.89 619.995 1877.85 643.259C1872.5 668.648 1839.35 691.271 1837.19 726.35C1836.45 736.85 1838.66 748.41 1844.16 760.694C1853.92 783.323 1873.99 808.273 1904.01 833.101C1949.78 870.872 2018.53 908.029 2090.46 935.786" stroke="#9391B4" stroke-miterlimit="10"/>
<path d="M-129.477 25.6486C-28.7642 27.5513 81.2874 36.4867 191.867 53.9052C256.939 64.113 322.663 77.5426 383.728 93.633C423.67 104.133 461.577 115.786 496.026 128.335C604.408 167.615 680.875 214.22 754.828 255.221C788.008 273.617 815.502 290.988 858.285 307.747C895.439 322.302 941.199 335.238 990.579 346.647C1058.22 362.27 1134.15 375.558 1202.94 386.701C1241.04 392.841 1277.72 398.723 1312.9 404.602C1386.61 416.895 1451.45 427.986 1516.63 442.572C1612.07 463.866 1716.8 495.223 1791.25 533.341C1798.92 537.234 1805.87 541.061 1812.57 544.846C1885.28 585.885 1903.91 617.314 1892.38 640.729C1880.04 666.311 1839.36 688.304 1833 723.35C1831.01 733.889 1832.46 745.511 1837.21 757.793C1845.93 780.63 1866.18 805.812 1897.36 830.98C1945.23 869.261 2018.27 907.06 2096.53 935.297" stroke="#9A98BC" stroke-miterlimit="10"/>
<path d="M-115.292 22.5916C-14.9138 24.8302 94.7862 34.1646 204.794 51.8762C269.342 62.1878 334.56 75.6582 395.151 91.6632C434.619 102.078 472.305 113.625 506.787 126.048C615.03 164.906 693.385 210.927 764.633 251.837C797.004 270.483 823.419 288.189 865.614 305.304C902.416 320.258 948.331 333.552 997.9 345.193C1065.94 361.154 1142.35 374.527 1211.96 385.42C1250.34 391.412 1287.81 397.108 1323.57 402.694C1398.91 414.422 1466.38 424.931 1534.41 439.04C1634.22 459.735 1744.22 490.853 1819.78 529.501C1827.45 533.393 1834.61 537.326 1841.31 541.174C1913.2 582.464 1925.63 614.886 1907.86 638.433C1888.29 664.164 1840.06 685.591 1829.51 720.542C1826.29 731.057 1826.74 742.697 1830.97 755.083C1838.65 778.064 1859.06 803.604 1891.64 829.092C1941.36 867.904 2019.19 906.368 2103.54 935.041" stroke="#A19EC5" stroke-miterlimit="10"/>
<path d="M-101.322 19.4294C-1.26311 21.9408 108.053 31.8003 217.267 49.6993C281.513 60.2206 345.767 73.5833 406.121 89.5456C445.352 99.9179 482.817 111.359 517.332 123.655C625.674 162.135 705.443 207.487 774.206 248.41C805.784 267.245 831.104 285.347 872.931 302.924C909.382 318.277 955.452 331.929 1005.22 343.739C1073.69 359.975 1150.79 373.539 1220.97 384.139C1259.88 390.028 1297.66 395.45 1334.23 400.786C1411.19 412.014 1481.08 421.834 1552.2 435.509C1656.16 455.499 1771.87 486.59 1848.07 525.618C1855.73 529.573 1862.89 533.507 1869.59 537.354C1940.89 579 1946.88 612.311 1922.65 635.947C1896.09 661.807 1840.33 682.666 1825.58 717.523C1821.11 728.077 1820.58 739.672 1824.29 752.162C1830.94 775.288 1851.52 801.123 1885.26 826.95C1937.05 866.336 2019.44 905.422 2109.87 934.532" stroke="#A8A5CD" stroke-miterlimit="10"/>
<path d="M-87.3552 16.3281C12.1482 19.0696 121.317 29.497 229.976 47.626C293.699 58.2513 357.445 71.6547 417.088 87.4889C456.082 97.8185 493.09 109.111 527.654 121.218C635.873 159.214 717.514 204.044 783.572 244.876C814.342 263.961 838.582 282.397 880.058 300.373C916.157 316.125 962.162 330.03 1012.58 342.22C1081.46 358.794 1159.05 372.38 1230.26 382.836C1269.68 388.62 1307.79 393.77 1344.93 398.813C1423.53 409.476 1496.06 418.651 1570.01 431.913C1678.38 451.177 1799.32 482.219 1876.4 521.67C1884.29 525.668 1891.22 529.559 1897.88 533.533C1968.61 575.472 1968.16 609.734 1937.68 633.501C1904.14 659.553 1840.83 679.846 1821.65 714.565C1815.94 725.094 1814.4 736.771 1817.6 749.302C1823.21 772.636 1843.98 798.703 1879.1 824.912C1932.99 864.872 2019.92 904.58 2116.44 934.127" stroke="#AFABD5" stroke-miterlimit="10"/>
<path d="M-73.415 13.2305C25.7532 16.3078 134.57 27.1342 242.657 45.5564C305.857 56.2855 368.843 69.7501 428.266 85.4785C466.786 95.7227 503.81 106.952 538.17 118.89C646.487 156.507 729.542 200.667 793.132 241.452C823.346 260.766 846.255 279.557 887.125 297.952C922.873 314.103 969.033 328.366 1019.64 340.788C1088.92 357.7 1167.23 371.415 1239.01 381.577C1278.72 387.215 1317.62 392.177 1355.33 396.926C1435.56 407.026 1510.73 415.619 1587.53 428.403C1700.29 447.006 1826.7 477.977 1904.66 517.852C1912.56 521.85 1919.71 525.846 1926.13 529.778C1996.27 572.073 1989.62 607.266 1952.42 631.142C1911.66 657.281 1840.81 677.007 1817.66 711.736C1810.72 722.242 1808.42 733.979 1810.86 746.571C1815.44 770.05 1836.36 796.475 1872.67 822.898C1928.4 863.389 2020.13 903.762 2122.73 933.745" stroke="#B6B2DE" stroke-miterlimit="10"/>
<path d="M-59.4411 10.0665C39.1714 13.3739 147.841 24.7682 255.135 43.3777C317.812 54.2107 380.292 67.7161 439.003 83.3163C477.286 93.5178 514.09 104.642 548.246 116.411C656.424 153.607 741.13 197.139 802.236 237.938C831.403 257.461 853.47 276.628 893.989 295.422C929.402 311.909 975.463 326.551 1026.51 339.184C1095.97 356.391 1174.98 370.234 1247.57 380.145C1287.81 385.68 1327.02 390.37 1365.53 394.931C1447.4 404.467 1524.95 412.434 1604.85 424.785C1721.74 442.746 1853.64 473.584 1932.49 513.882C1940.37 517.943 1947.52 521.94 1954.16 525.977C2023.49 568.523 2010.63 604.71 1966.96 628.674C1919.2 655.005 1840.59 674.059 1813.49 708.736C1805.06 719.237 1802 731.036 1803.91 743.732C1807.46 767.355 1828.56 794.076 1866.25 820.881C1924.07 861.945 2020.35 902.94 2129.06 933.297" stroke="#BDB8E6" stroke-miterlimit="10"/>
<path d="M-45.4934 6.96787C52.7839 10.6111 161.102 22.4043 267.824 41.3071C329.961 52.307 391.951 65.7901 450.188 81.3049C488.235 91.4637 524.597 102.376 558.785 114.019C667.062 150.836 753.165 193.762 811.819 234.45C840.194 254.159 861.166 273.724 901.096 292.874C936.157 309.76 982.39 324.696 1033.61 337.625C1103.47 355.17 1183.21 369.078 1256.36 378.759C1296.88 384.147 1336.64 388.67 1375.97 392.918C1459.45 401.953 1539.66 409.274 1622.43 421.085C1743.7 438.384 1880.85 469.11 1960.58 509.831C1968.45 513.892 1975.82 517.994 1982.23 521.988C2050.97 564.891 2031.7 601.903 1981.78 626.061C1927.04 652.522 1840.86 671.072 1809.33 705.611C1799.67 716.088 1795.61 727.906 1797 740.706C1799.5 764.537 1820.79 791.489 1859.64 818.634C1919.54 860.272 2020.37 901.889 2135.17 932.683" stroke="#C4BFEE" stroke-miterlimit="10"/>
<path d="M-31.3045 3.84963C66.6539 7.7657 174.588 20.084 280.754 39.2168C342.368 50.3207 403.614 63.8018 461.615 79.2739C499.44 89.3269 535.566 100.196 569.55 111.67C677.688 148.066 765.205 190.323 821.612 231.067C849.178 251.028 869.087 270.863 908.633 290.538C943.342 307.823 989.731 323.118 1041.37 336.322C1111.65 354.204 1191.86 368.197 1266.04 377.734C1307.08 383.018 1347.16 387.268 1387.06 391.223C1471.96 399.588 1555.02 406.433 1640.64 417.767C1766.29 434.467 1908.92 465.059 1989.53 506.204C1997.65 510.308 2004.76 514.43 2011.17 518.424C2079.34 561.62 2053.62 599.584 1997.22 623.83C1935.28 650.314 1841.55 668.361 1806.05 702.911C1795.15 713.363 1790.32 725.305 1790.97 738.103C1792.44 762.079 1813.9 789.326 1854.13 816.854C1915.88 859.022 2021.5 901.305 2142.38 932.535" stroke="#CBC5F7" stroke-miterlimit="10"/>
<path d="M-17.3462 0.748574C136.697 7.44085 316.222 35.4349 472.574 77.2174C628.926 119 759.988 174.123 830.716 227.554C857.473 247.765 876.303 267.934 915.498 288.008C996.486 329.616 1144.58 360.202 1274.6 376.303C1404.39 392.361 1527.93 398.048 1657.97 414.086C1787.77 430.081 1935.88 460.603 2017.38 502.17C2112.21 550.634 2080.46 594.643 2011.78 621.299C1942.84 647.975 1841.58 665.392 1801.65 699.804C1766.82 729.852 1783.45 771.883 1847.28 814.625C1911.1 857.367 2021.28 900.272 2148.25 931.939" stroke="#D2CCFF" stroke-miterlimit="10"/>
<path d="M22.8548 5.48017C175.803 12.5695 353.064 40.684 506.98 82.2918C660.897 123.9 790.366 178.472 858.774 231.286C885.432 251.875 902.423 272.439 940.082 292.699C1016.49 333.811 1159.42 364.194 1285.09 380.831C1410.52 397.425 1531.3 404.199 1659.69 420.864C1789.77 437.702 1938.77 467.658 2022.81 508.959C2120.01 556.923 2094.26 601.684 2027.63 629.04C1961 656.396 1857.33 673.575 1814.34 706.38C1777.21 734.759 1791.85 774.911 1850.71 815.767C1909.56 856.624 2013.16 898.08 2135.32 929.208" stroke="#CDC9FE" stroke-miterlimit="10"/>
<path d="M63.2719 10.3239C214.871 17.8307 390.122 46.0452 541.857 87.4579C693.591 128.871 821.198 182.975 887.047 235.13C913.591 256.161 928.539 276.951 964.661 297.397C1036.26 337.907 1174.26 368.193 1295.33 385.323C1416.63 402.559 1534.66 410.357 1661.42 427.586C1791.76 445.329 1941.92 474.636 2028.5 515.733C2128.31 563.177 2108.06 608.732 2043.99 636.747C1979.92 664.762 1873.81 681.766 1827.54 712.858C1787.9 739.463 1800.75 777.905 1854.64 816.876C1908.76 855.889 2005.56 895.854 2122.89 926.444" stroke="#C7C6FE" stroke-miterlimit="10"/>
<path d="M103.466 15.0569C253.954 23.0238 426.941 51.3587 576.51 92.5133C726.079 133.668 851.569 187.325 915.098 238.863C941.527 260.336 954.432 281.353 989.238 302.089C1056.27 342.041 1188.88 372.081 1305.81 389.853C1422.75 407.624 1538.04 416.447 1663.38 434.346C1793.74 452.952 1945.3 481.652 2034.18 522.502C2136.59 569.49 2121.86 615.775 2060.34 644.449C1998.83 673.123 1890.06 689.846 1840.49 719.351C1798.82 744.204 1809.17 780.809 1858.31 817.999C1907.47 855.126 1997.71 893.58 2110.2 923.695" stroke="#C2C3FD" stroke-miterlimit="10"/>
<path d="M143.904 19.837C293.06 28.1582 464.257 56.699 611.391 97.6788C758.525 138.659 882.152 191.848 943.376 242.707C969.691 264.621 980.569 285.801 1014.04 306.892C1076.52 346.221 1203.94 376.185 1316.51 394.555C1429.07 412.926 1541.62 422.773 1665.56 441.278C1796.43 460.77 1948.65 488.862 2040.31 529.487C2145.32 576.019 2136.12 622.971 2077.15 652.367C2017.94 681.72 1907.02 698.122 1854.14 726.04C1810.19 749.161 1818.51 784.014 1862.68 819.318C1906.86 854.622 1990.55 891.565 2098.2 921.204" stroke="#BDC0FD" stroke-miterlimit="10"/>
<path d="M184.083 24.6336C332.127 33.415 501.077 62.0131 645.792 102.755C790.507 143.497 912.271 196.218 971.191 246.398C997.392 268.754 1006.46 290.203 1038.4 311.479C1096.33 350.186 1218.56 380.073 1326.77 398.98C1434.98 417.886 1544.98 428.926 1667.3 447.933C1798.44 468.33 1951.56 495.792 2045.77 536.151C2153.15 582.184 2149.94 629.951 2093.05 659.921C2036.39 689.933 1923.06 706.097 1866.63 732.385C1820.64 753.817 1826.71 786.813 1865.92 820.231C1905.13 853.649 1982.24 889.143 2084.84 918.201" stroke="#B8BDFC" stroke-miterlimit="10"/>
<path d="M224.519 29.4105C371.214 38.6093 538.154 67.3074 680.67 107.917C823.187 148.528 942.614 200.695 999.467 250.238C1025.55 273.036 1032.6 294.648 1062.97 316.236C1116.59 354.301 1233.16 384.026 1337.23 403.574C1441.07 423.079 1548.33 435.144 1669.25 454.757C1800.64 476.122 1954.7 502.83 2051.68 543.027C2161.65 588.604 2163.96 637.101 2109.61 667.793C2055.26 698.485 1940.01 714.37 1880.04 739.028C1832.26 758.751 1835.58 789.929 1870.05 821.504C1904.53 853.079 1974.86 887.02 2072.62 915.601" stroke="#B2BAFC" stroke-miterlimit="10"/>
<path d="M264.72 34.144C410.304 43.8029 574.996 72.5583 715.331 112.973C855.666 153.388 972.739 205.066 1027.52 253.972C1053.5 277.212 1058.75 299.029 1087.57 320.866C1136.91 358.225 1248.02 387.957 1347.5 407.998C1447.22 428.082 1551.7 441.297 1670.99 461.474C1802.63 483.745 1957.84 509.866 2057.13 549.754C2169.47 594.832 2177.54 644.038 2125.73 675.452C2073.93 706.866 1956.55 722.368 1892.99 745.522C1843.42 763.536 1844.24 792.876 1873.74 822.628C1903.24 852.317 1966.76 884.767 2059.94 912.852" stroke="#ADB6FB" stroke-miterlimit="10"/>
<path d="M305.13 38.987C449.382 49.0002 612.047 77.9187 749.963 118.096C887.879 158.273 1002.84 209.503 1055.55 257.773C1081.41 281.454 1084.66 303.372 1112.12 325.626C1157.43 362.322 1262.84 392.018 1357.96 412.595C1453.31 433.278 1555.72 445.856 1672.93 468.301C1804.33 493.434 1960.95 516.97 2063.03 556.633C2177.73 601.212 2191.55 651.191 2142.07 683.221C2092.58 715.252 1973.51 730.58 1905.93 752.02C1854.56 768.387 1852.88 795.89 1877.42 823.693C1901.94 851.558 1958.93 882.434 2047.27 910.044" stroke="#A8B3FB" stroke-miterlimit="10"/>
<path d="M345.333 43.7179C488.473 54.1913 649.128 83.2098 784.609 123.212C920.343 163.195 1032.95 213.935 1083.61 261.504C1109.36 285.627 1110.81 307.751 1136.72 330.253C1177.98 366.286 1277.48 395.841 1368.45 417.123C1459.44 438.342 1559.58 452.029 1674.9 475.058C1806.51 501.286 1964.09 524.004 2068.72 563.401C2186.02 607.523 2205.36 658.232 2158.43 690.921C2111.5 723.611 1990.52 738.661 1919.14 758.491C1866.22 773.191 1861.57 798.771 1881.36 824.794C1901.15 850.816 1951.32 880.201 2034.84 907.273" stroke="#A3B0FA" stroke-miterlimit="10"/>
<path d="M385.762 48.4954C527.791 59.4289 686.198 88.5047 819.497 128.312C952.796 168.12 1063.06 218.306 1111.9 265.282C1137.29 289.804 1137.21 312.113 1161.3 334.947C1198.53 370.254 1292.31 399.836 1378.93 421.654C1465.55 443.472 1562.43 460.14 1676.86 481.819C1809.74 507.02 1967.24 530.979 2074.64 570.214C2194.3 613.838 2219.63 665.362 2175.02 698.668C2130.42 731.973 2007.99 746.83 1932.33 765.029C1878.08 778.105 1870.44 801.826 1885.27 825.962C1900.09 850.098 1943.7 878.035 2022.39 904.568" stroke="#9DADFA" stroke-miterlimit="10"/>
<path d="M425.95 53.2966C566.63 64.6476 723.011 93.8865 854.144 133.436C985.278 172.985 1093.17 222.745 1139.94 269.084C1165.22 294.047 1163.6 316.541 1185.87 339.708C1219.29 374.395 1306.9 403.855 1389.4 426.252C1471.66 448.606 1565.77 466.424 1678.59 488.604C1811.7 514.773 1970.13 538.041 2080.09 576.946C2202.1 620.133 2233.22 672.304 2191.15 706.332C2149.08 740.36 2025 754.918 1945.3 771.464C1889.73 782.98 1879.13 804.714 1888.98 826.964C1898.84 849.215 1935.89 875.64 2009.75 901.697" stroke="#98AAF9" stroke-miterlimit="10"/>
<path d="M466.388 58.0654C605.973 69.8134 760.09 99.1727 888.788 138.547C1017.49 177.922 1123.03 227.191 1167.98 272.873C1192.91 298.236 1189.75 320.915 1210.45 344.394C1240.34 378.377 1321.76 407.779 1399.65 430.732C1477.54 453.685 1569.1 472.696 1680.3 495.377C1813.88 522.621 1973.01 545.09 2085.53 583.728C2209.9 626.417 2246.77 679.36 2207 714.067C2167.24 748.775 2042.21 763.162 1957.75 777.991C1901.33 787.968 1887.03 807.715 1892.16 828.122C1897.28 848.529 1927.53 873.463 1996.56 898.982" stroke="#93A7F9" stroke-miterlimit="10"/>
<path d="M506.567 62.8678C644.803 75.0332 796.91 104.493 923.426 143.672C1049.94 182.852 1152.89 231.588 1195.78 276.633C1220.58 302.501 1215.9 325.303 1234.78 349.113C1261.11 382.455 1336.35 411.8 1409.88 435.289C1483.65 458.82 1572.42 479.044 1682.01 502.164C1815.84 530.376 1975.66 552.11 2091.2 590.567C2217.93 632.757 2260.55 686.472 2223.35 721.839C2186.14 757.205 2059.91 771.442 1970.93 784.534C1913.42 792.992 1895.93 810.71 1896.07 829.294C1896.21 847.879 1919.9 871.302 1984.12 896.282" stroke="#8EA4F9" stroke-miterlimit="10"/>
<path d="M547.006 67.6447C684.13 80.2702 834.227 109.83 958.324 148.771C1082.42 187.713 1183 236.023 1224.09 280.348C1248.54 306.614 1242.8 329.687 1259.4 353.68C1282.17 386.382 1350.99 415.625 1420.38 439.756C1489.78 463.887 1576.01 485.304 1684 508.861C1818.29 538.148 1978.81 559.085 2096.9 597.274C2225.98 639.028 2274.62 693.432 2239.72 729.478C2204.82 765.525 2077.86 779.696 1984.14 791.008C1926.01 798.034 1904.83 813.7 1900.02 830.336C1895.19 847.034 1912.33 868.945 1971.69 893.513" stroke="#88A1F8" stroke-miterlimit="10"/>
<path d="M587.198 72.3802C722.99 85.3601 871.06 115.083 992.959 153.892C1114.86 192.702 1212.63 240.373 1252.13 284.147C1276.22 310.812 1269.2 334.05 1283.96 358.438C1303.43 390.479 1365.82 419.622 1430.85 444.352C1495.87 469.081 1579.56 491.692 1685.95 515.687C1820.71 546.048 1981.91 566.25 2102.81 604.152C2234.24 645.407 2288.64 700.584 2256.06 737.246C2223.72 773.951 2096.02 788.121 1997.09 797.504C1938.08 803.118 1913.49 816.65 1903.69 831.462C1893.9 846.274 1904.47 866.738 1959.01 890.767" stroke="#839EF8" stroke-miterlimit="10"/>
<path d="M627.616 77.2203C762.297 90.6604 908.119 120.44 1027.6 159.012C1147.08 197.584 1242.48 244.828 1280.17 287.944C1303.89 315.071 1295.82 338.517 1308.52 363.195C1324.67 394.638 1380.64 423.68 1441.31 448.946C1501.98 474.211 1583.09 498.141 1687.9 522.51C1822.87 553.967 1985.03 573.35 2108.47 610.985C2242.26 651.804 2302.42 707.691 2272.4 745.012C2242.37 782.397 2114.16 796.608 2010.26 804.104C1950.86 808.391 1922.13 819.66 1907.59 832.692C1893.06 845.661 1896.84 864.571 1946.31 888.082" stroke="#7E9BF7" stroke-miterlimit="10"/>
<path d="M667.801 81.9551C801.134 95.8126 944.946 125.692 1062.24 164.069C1179.54 202.446 1272.12 249.114 1308.21 291.68C1331.58 319.206 1322.45 342.922 1333.11 367.827C1345.94 398.672 1395.25 427.57 1451.56 453.371C1507.86 479.236 1586.19 504.316 1689.63 529.166C1824.83 561.654 1987.93 580.282 2114.16 617.693C2250.31 658.013 2316.24 714.609 2288.75 752.716C2261.25 790.823 2132.52 805.137 2023.21 810.536C1963.17 813.453 1930.78 822.609 1911.29 833.692C1891.79 844.775 1889 862.236 1933.65 885.208" stroke="#7898F7" stroke-miterlimit="10"/>
<path d="M707.996 86.6896C840.217 101.007 981.781 130.944 1096.88 169.189C1211.98 207.434 1301.97 253.57 1336.26 295.414C1359.26 323.402 1349.34 347.306 1357.45 372.478C1367.22 402.705 1409.87 431.459 1461.81 457.86C1513.75 484.26 1589.5 510.659 1691.35 535.947C1826.99 569.573 1990.81 587.34 2119.59 624.484C2258.08 664.368 2330.03 721.717 2304.85 760.44C2279.67 799.163 2150.86 813.793 2036.16 817.031C1975.94 818.727 1939.44 825.557 1914.96 834.817C1890.72 844.119 1881.14 860.027 1920.96 882.46" stroke="#7395F6" stroke-miterlimit="10"/>
<path d="M748.413 91.5301C879.539 106.245 1018.82 136.365 1131.76 174.352C1244.45 212.296 1331.82 258.025 1364.53 299.255C1387.18 327.642 1376.44 351.86 1382.26 377.215C1388.95 406.886 1424.7 435.455 1472.51 462.497C1520.32 489.539 1593.28 517.152 1693.53 542.814C1829.39 577.535 1993.92 594.504 2125.74 631.404C2266.57 670.852 2344.28 728.91 2321.43 768.249C2298.81 807.631 2169.9 822.64 2049.57 823.675C1988.92 824.17 1948.31 828.674 1919.1 836.09C1889.89 843.507 1873.75 857.903 1908.74 879.861" stroke="#6E92F6" stroke-miterlimit="10"/>
<path d="M788.607 96.2616C918.621 111.436 1055.9 141.657 1166.41 179.406C1276.91 217.218 1361.44 262.371 1392.58 302.987C1414.63 331.794 1403.55 356.347 1406.84 381.906C1410.69 411.065 1439.54 439.447 1482.99 467.025C1526.44 494.603 1596.59 523.492 1695.26 549.53C1831.31 585.409 1996.81 601.496 2131.18 638.129C2274.36 677.141 2357.84 735.908 2337.55 775.907C2317.25 815.905 2188.44 831.461 2062.3 830.061C2001.21 829.355 1956.74 831.513 1922.57 837.044C1888.39 842.574 1865.68 855.522 1895.85 876.941" stroke="#698EF5" stroke-miterlimit="10"/>
<path d="M829.052 101.044C957.717 116.636 1092.98 146.957 1201.06 184.531C1309.14 222.105 1391.08 266.725 1420.63 306.79C1442.32 335.995 1430.42 360.862 1431.43 386.605C1432.43 415.251 1454.41 443.384 1493.48 471.561C1532.56 499.738 1599.9 529.904 1697.24 556.296C1833.5 593.27 1999.94 608.602 2137.11 644.947C2282.64 683.523 2371.91 742.937 2354.15 783.658C2336.4 824.378 2207.68 840.545 2075.73 836.646C2014.2 834.803 1965.87 834.614 1926.73 838.259C1887.82 841.947 1858.31 853.403 1883.65 874.284" stroke="#638BF5" stroke-miterlimit="10"/>
<path d="M869.222 105.838C996.539 121.848 1129.79 152.269 1235.69 189.648C1341.59 227.027 1420.45 271.092 1448.67 310.522C1469.76 340.147 1457.76 365.392 1455.76 391.253C1453.92 419.387 1469 447.333 1503.72 476.046C1538.44 504.759 1603.2 536.244 1698.96 563.011C1835.18 601.1 2002.83 615.594 2142.55 651.672C2290.42 689.812 2385.46 749.935 2370.02 791.272C2354.57 832.673 2225.93 849.513 2088.21 842.989C2026.21 840.071 1973.83 837.368 1929.94 839.232C1886.04 841.097 1849.76 850.937 1870.5 871.384" stroke="#5E88F4" stroke-miterlimit="10"/>
<path d="M909.681 110.615C1035.9 127.021 1166.89 157.562 1270.37 194.704C1373.85 231.845 1450.11 275.44 1476.75 314.256C1497.25 344.237 1484.9 369.881 1480.37 395.946C1475.67 423.631 1483.63 451.285 1513.99 480.534C1544.34 509.846 1606.29 542.608 1700.69 569.792C1837.12 609.039 2005.48 622.672 2148.01 658.462C2298.22 696.167 2399.27 757.042 2386.14 799.058C2373.01 841.075 2244.39 858.778 2101.16 849.609C2038.69 845.617 1982.47 840.504 1933.62 840.42C1884.76 840.398 1841.9 848.79 1857.82 868.699" stroke="#5985F4" stroke-miterlimit="10"/>
<path d="M949.842 115.347C1074.71 132.171 1203.69 162.813 1304.98 199.822C1406.27 236.768 1479.7 279.788 1504.75 318.052C1524.65 348.452 1512.19 374.475 1504.91 400.638C1497.37 427.81 1498.44 455.216 1524.42 485.127C1550.42 514.975 1609.55 549.012 1702.61 576.614C1838.97 617.04 2008.55 629.834 2153.88 665.337C2306.44 702.605 2413.27 764.127 2402.68 806.866C2392.09 849.605 2263.51 868.108 2114.56 856.125C2051.63 851.058 1991.58 843.473 1937.75 841.565C1883.92 839.658 1834.51 846.538 1845.58 866.035" stroke="#5482F3" stroke-miterlimit="10"/>
<path d="M990.274 120.188C1114.04 137.472 1241 168.213 1339.87 204.985C1438.73 241.757 1509.33 284.201 1533.04 321.893C1552.35 352.65 1539.76 379.178 1529.73 405.438C1519.56 432.204 1513.28 459.274 1535.14 489.764C1557 520.254 1613.09 555.525 1704.81 583.481C1841.13 625.022 2011.9 637.041 2159.8 672.214C2314.69 709.11 2427.3 771.278 2419.27 814.675C2411.24 858.073 2282.15 877.606 2127.73 862.789C2064.08 856.668 2000.21 846.61 1941.65 842.86C1883.09 839.109 1826.87 844.498 1833.11 863.456" stroke="#4E7FF3" stroke-miterlimit="10"/>
<path d="M1030.5 124.923C1152.93 142.561 1277.85 173.529 1374.55 210.042C1471.23 246.619 1538.75 288.508 1561.14 325.565C1579.84 356.741 1567.15 383.648 1554.13 409.964C1541.1 436.28 1527.94 463.101 1545.44 494.127C1562.95 525.152 1615.97 561.721 1706.6 590.074C1842.86 632.793 2014.86 643.91 2165.54 678.858C2322.79 715.255 2441.16 778.196 2435.45 822.21C2429.74 866.224 2300.37 886.83 2140.75 869.095C2076.13 861.94 2008.94 849.369 1945.42 843.733C1881.89 838.096 1819.1 842.037 1820.52 860.456" stroke="#497CF2" stroke-miterlimit="10"/>
</g>
</svg>
