<svg width="327" height="309" viewBox="0 0 327 309" fill="none" xmlns="http://www.w3.org/2000/svg">
<g opacity="0.06">
<mask id="mask0_3597_79341" style="mask-type:luminance" maskUnits="userSpaceOnUse" x="-265" y="-133" width="592" height="520">
<path d="M326.431 65.6521L-123.859 -132.689L-265.002 187.744L185.288 386.086L326.431 65.6521Z" fill="white"/>
</mask>
<g mask="url(#mask0_3597_79341)">
<path d="M-13.9089 76.4453L-32.8934 22.4163L19.7842 -0.0473865L38.7688 53.9816L-13.9089 76.4453Z" fill="url(#paint0_radial_3597_79341)"/>
<path d="M91.434 31.5316L72.45 -22.4972L125.127 -44.9617L144.111 9.0677L91.434 31.5316Z" fill="url(#paint1_radial_3597_79341)"/>
<path d="M19.7784 -0.0296603L0.7938 -54.0587L53.4717 -76.523L72.456 -22.4933L19.7784 -0.0296603Z" fill="url(#paint2_radial_3597_79341)"/>
<path d="M24.0825 184.547L5.09877 130.518L57.7758 108.054L76.7598 162.083L24.0825 184.547Z" fill="url(#paint3_radial_3597_79341)"/>
<path d="M-47.3857 152.914L-66.3703 98.8847L-13.6923 76.4204L5.29135 130.45L-47.3857 152.914Z" fill="url(#paint4_radial_3597_79341)"/>
<path d="M-32.8466 22.3434L-51.8309 -31.6863L0.846737 -54.1499L19.8307 -0.12115L-32.8466 22.3434Z" fill="url(#paint5_linear_3597_79341)"/>
<path d="M-66.4404 98.862L-85.4247 44.8323L-32.747 22.3686L-13.7631 76.3974L-66.4404 98.862Z" fill="url(#paint6_linear_3597_79341)"/>
<path d="M38.7621 53.9945L19.7785 -0.0349081L72.4555 -22.4988L91.4395 31.53L38.7621 53.9945Z" fill="url(#paint7_linear_3597_79341)"/>
<path d="M5.09807 130.477L-13.8856 76.4475L38.7914 53.9836L57.776 108.013L5.09807 130.477Z" fill="url(#paint8_linear_3597_79341)"/>
<path d="M-28.41 207.036L-47.3937 153.007L5.28362 130.542L24.2673 184.572L-28.41 207.036Z" fill="url(#paint9_linear_3597_79341)"/>
<path d="M110.497 85.6396L163.174 63.175L182.159 117.205L129.481 139.669L110.497 85.6396Z" fill="url(#paint10_radial_3597_79341)"/>
<path d="M144.075 9.23136L196.752 -13.2332L215.736 40.7962L163.059 63.2601L144.075 9.23136Z" fill="url(#paint11_radial_3597_79341)"/>
<path d="M163.114 63.2532L215.793 40.7898L234.777 94.8186L182.099 117.283L163.114 63.2532Z" fill="url(#paint12_linear_3597_79341)"/>
<path d="M91.411 31.6366L144.089 9.17234L163.072 63.2015L110.396 85.665L91.411 31.6366Z" fill="url(#paint13_linear_3597_79341)"/>
</g>
<mask id="mask1_3597_79341" style="mask-type:luminance" maskUnits="userSpaceOnUse" x="-265" y="-133" width="592" height="520">
<path d="M326.431 65.6521L-123.859 -132.689L-265.002 187.744L185.288 386.086L326.431 65.6521Z" fill="white"/>
</mask>
<g mask="url(#mask1_3597_79341)">
<path d="M-23.6672 391.751L-42.6515 337.722L10.0264 315.257L29.0107 369.287L-23.6672 391.751Z" fill="url(#paint14_radial_3597_79341)"/>
<path d="M81.6768 346.832L62.6922 292.803L115.37 270.338L134.354 324.368L81.6768 346.832Z" fill="url(#paint15_radial_3597_79341)"/>
<path d="M10.0205 315.273L-8.96401 261.244L43.7139 238.78L62.6982 292.809L10.0205 315.273Z" fill="url(#paint16_radial_3597_79341)"/>
<path d="M-42.6045 337.645L-61.5887 283.615L-8.91109 261.152L10.0729 315.181L-42.6045 337.645Z" fill="url(#paint17_linear_3597_79341)"/>
<path d="M62.6994 292.816L43.7157 238.787L96.393 216.322L115.377 270.352L62.6994 292.816Z" fill="url(#paint18_linear_3597_79341)"/>
<path d="M29.004 369.294L10.0204 315.265L62.6977 292.8L81.6814 346.829L29.004 369.294Z" fill="url(#paint19_linear_3597_79341)"/>
<path d="M134.318 324.533L186.995 302.07L205.979 356.098L153.301 378.563L134.318 324.533Z" fill="url(#paint20_radial_3597_79341)"/>
<path d="M81.6459 346.937L134.323 324.474L153.307 378.502L100.63 400.967L81.6459 346.937Z" fill="url(#paint21_linear_3597_79341)"/>
</g>
<mask id="mask2_3597_79341" style="mask-type:luminance" maskUnits="userSpaceOnUse" x="-265" y="-133" width="592" height="520">
<path d="M326.431 65.6521L-123.859 -132.689L-265.002 187.744L185.288 386.086L326.431 65.6521Z" fill="white"/>
</mask>
<g mask="url(#mask2_3597_79341)">
<path d="M329.771 365.552L310.786 311.523L363.464 289.059L382.448 343.088L329.771 365.552Z" fill="url(#paint22_radial_3597_79341)"/>
<path d="M258.262 333.94L239.278 279.91L291.956 257.446L310.94 311.475L258.262 333.94Z" fill="url(#paint23_radial_3597_79341)"/>
<path d="M310.833 311.447L291.848 257.418L344.526 234.954L363.51 288.983L310.833 311.447Z" fill="url(#paint24_linear_3597_79341)"/>
<path d="M277.239 387.965L258.255 333.936L310.933 311.472L329.917 365.502L277.239 387.965Z" fill="url(#paint25_linear_3597_79341)"/>
<path d="M148.685 194.281L201.363 171.818L220.347 225.847L167.67 248.311L148.685 194.281Z" fill="url(#paint26_linear_3597_79341)"/>
</g>
</g>
<defs>
<radialGradient id="paint0_radial_3597_79341" cx="0" cy="0" r="1" gradientTransform="matrix(24.9455 70.9956 -52.9106 22.5635 53.4156 10.5213)" gradientUnits="userSpaceOnUse">
<stop stop-color="#272425"/>
<stop offset="1" stop-color="#F0F1F1" stop-opacity="0"/>
</radialGradient>
<radialGradient id="paint1_radial_3597_79341" cx="0" cy="0" r="1" gradientTransform="matrix(24.9453 70.995 -52.9101 22.5633 158.755 -34.3914)" gradientUnits="userSpaceOnUse">
<stop stop-color="#272425"/>
<stop offset="1" stop-color="#F0F1F1" stop-opacity="0"/>
</radialGradient>
<radialGradient id="paint2_radial_3597_79341" cx="0" cy="0" r="1" gradientTransform="matrix(24.9455 70.9955 -52.9106 22.5635 87.1016 -65.9534)" gradientUnits="userSpaceOnUse">
<stop stop-color="#272425"/>
<stop offset="1" stop-color="#F0F1F1" stop-opacity="0"/>
</radialGradient>
<radialGradient id="paint3_radial_3597_79341" cx="0" cy="0" r="1" gradientTransform="matrix(24.9454 70.9951 -52.9102 22.5633 91.4068 118.623)" gradientUnits="userSpaceOnUse">
<stop stop-color="#272425"/>
<stop offset="1" stop-color="#F0F1F1" stop-opacity="0"/>
</radialGradient>
<radialGradient id="paint4_radial_3597_79341" cx="0" cy="0" r="1" gradientTransform="matrix(24.9455 70.9956 -52.9106 22.5635 19.9401 86.9888)" gradientUnits="userSpaceOnUse">
<stop stop-color="#272425"/>
<stop offset="1" stop-color="#F0F1F1" stop-opacity="0"/>
</radialGradient>
<linearGradient id="paint5_linear_3597_79341" x1="-25.4923" y1="-42.9182" x2="-3.07578" y2="9.64774" gradientUnits="userSpaceOnUse">
<stop stop-color="#CFD1D2"/>
<stop offset="1" stop-color="white"/>
</linearGradient>
<linearGradient id="paint6_linear_3597_79341" x1="-75.9327" y1="71.847" x2="-22.0181" y2="52.9032" gradientUnits="userSpaceOnUse">
<stop stop-color="#CFD1D2"/>
<stop offset="1" stop-color="white"/>
</linearGradient>
<linearGradient id="paint7_linear_3597_79341" x1="29.2699" y1="26.9798" x2="83.1845" y2="8.03599" gradientUnits="userSpaceOnUse">
<stop stop-color="white"/>
<stop offset="1" stop-color="#CFD1D2"/>
</linearGradient>
<linearGradient id="paint8_linear_3597_79341" x1="12.453" y1="65.2153" x2="34.8694" y2="117.781" gradientUnits="userSpaceOnUse">
<stop stop-color="#CFD1D2"/>
<stop offset="1" stop-color="white"/>
</linearGradient>
<linearGradient id="paint9_linear_3597_79341" x1="-37.902" y1="180.021" x2="16.0127" y2="161.077" gradientUnits="userSpaceOnUse">
<stop stop-color="#CFD1D2"/>
<stop offset="1" stop-color="white"/>
</linearGradient>
<radialGradient id="paint10_radial_3597_79341" cx="0" cy="0" r="1" gradientTransform="matrix(-69.2194 29.5183 -19.0681 -54.2683 170.412 152.896)" gradientUnits="userSpaceOnUse">
<stop stop-color="#272425"/>
<stop offset="1" stop-color="#F0F1F1" stop-opacity="0"/>
</radialGradient>
<radialGradient id="paint11_radial_3597_79341" cx="0" cy="0" r="1" gradientTransform="matrix(-69.219 29.5182 -19.068 -54.268 203.99 76.4886)" gradientUnits="userSpaceOnUse">
<stop stop-color="#272425"/>
<stop offset="1" stop-color="#F0F1F1" stop-opacity="0"/>
</radialGradient>
<linearGradient id="paint12_linear_3597_79341" x1="225.284" y1="67.8041" x2="171.37" y2="86.748" gradientUnits="userSpaceOnUse">
<stop stop-color="#CFD1D2"/>
<stop offset="1" stop-color="white"/>
</linearGradient>
<linearGradient id="paint13_linear_3597_79341" x1="117.75" y1="20.4043" x2="140.166" y2="72.9695" gradientUnits="userSpaceOnUse">
<stop stop-color="#CFD1D2"/>
<stop offset="1" stop-color="white"/>
</linearGradient>
<radialGradient id="paint14_radial_3597_79341" cx="0" cy="0" r="1" gradientTransform="matrix(24.9455 70.9953 -52.9104 22.5634 43.6601 325.825)" gradientUnits="userSpaceOnUse">
<stop stop-color="#272425"/>
<stop offset="1" stop-color="#F0F1F1" stop-opacity="0"/>
</radialGradient>
<radialGradient id="paint15_radial_3597_79341" cx="0" cy="0" r="1" gradientTransform="matrix(24.9454 70.9952 -52.9103 22.5634 149.001 280.907)" gradientUnits="userSpaceOnUse">
<stop stop-color="#272425"/>
<stop offset="1" stop-color="#F0F1F1" stop-opacity="0"/>
</radialGradient>
<radialGradient id="paint16_radial_3597_79341" cx="0" cy="0" r="1" gradientTransform="matrix(24.9454 70.9953 -52.9104 22.5634 77.3462 249.348)" gradientUnits="userSpaceOnUse">
<stop stop-color="#272425"/>
<stop offset="1" stop-color="#F0F1F1" stop-opacity="0"/>
</radialGradient>
<linearGradient id="paint17_linear_3597_79341" x1="-35.2499" y1="272.384" x2="-12.8334" y2="324.949" gradientUnits="userSpaceOnUse">
<stop stop-color="#CFD1D2"/>
<stop offset="1" stop-color="white"/>
</linearGradient>
<linearGradient id="paint18_linear_3597_79341" x1="70.054" y1="227.555" x2="92.4705" y2="280.12" gradientUnits="userSpaceOnUse">
<stop stop-color="#CFD1D2"/>
<stop offset="1" stop-color="white"/>
</linearGradient>
<linearGradient id="paint19_linear_3597_79341" x1="19.512" y1="342.279" x2="73.4266" y2="323.335" gradientUnits="userSpaceOnUse">
<stop stop-color="white"/>
<stop offset="1" stop-color="#CFD1D2"/>
</linearGradient>
<radialGradient id="paint20_radial_3597_79341" cx="0" cy="0" r="1" gradientTransform="matrix(-69.219 29.5182 -19.068 -54.268 194.23 391.784)" gradientUnits="userSpaceOnUse">
<stop stop-color="#272425"/>
<stop offset="1" stop-color="#F0F1F1" stop-opacity="0"/>
</radialGradient>
<linearGradient id="paint21_linear_3597_79341" x1="107.984" y1="335.705" x2="130.401" y2="388.271" gradientUnits="userSpaceOnUse">
<stop stop-color="#CFD1D2"/>
<stop offset="1" stop-color="white"/>
</linearGradient>
<radialGradient id="paint22_radial_3597_79341" cx="0" cy="0" r="1" gradientTransform="matrix(24.9455 70.9953 -52.9104 22.5634 397.089 299.63)" gradientUnits="userSpaceOnUse">
<stop stop-color="#272425"/>
<stop offset="1" stop-color="#F0F1F1" stop-opacity="0"/>
</radialGradient>
<radialGradient id="paint23_radial_3597_79341" cx="0" cy="0" r="1" gradientTransform="matrix(24.9455 70.9953 -52.9104 22.5634 325.583 268.017)" gradientUnits="userSpaceOnUse">
<stop stop-color="#272425"/>
<stop offset="1" stop-color="#F0F1F1" stop-opacity="0"/>
</radialGradient>
<linearGradient id="paint24_linear_3597_79341" x1="318.187" y1="246.185" x2="340.604" y2="298.751" gradientUnits="userSpaceOnUse">
<stop stop-color="#CFD1D2"/>
<stop offset="1" stop-color="white"/>
</linearGradient>
<linearGradient id="paint25_linear_3597_79341" x1="267.747" y1="360.951" x2="321.662" y2="342.007" gradientUnits="userSpaceOnUse">
<stop stop-color="#CFD1D2"/>
<stop offset="1" stop-color="white"/>
</linearGradient>
<linearGradient id="paint26_linear_3597_79341" x1="175.024" y1="183.049" x2="197.44" y2="235.615" gradientUnits="userSpaceOnUse">
<stop stop-color="white"/>
<stop offset="1" stop-color="#CFD1D2"/>
</linearGradient>
</defs>
</svg>
