<svg width="92" height="92" viewBox="0 0 92 92" fill="none" xmlns="http://www.w3.org/2000/svg">
<rect x="1" y="1" width="90" height="90" rx="13" stroke="url(#paint0_linear_29028_66089)" stroke-width="2"/>
<path d="M36.5876 37.6935C35.8596 38.4215 35.7377 39.5274 36.2177 40.3844C35.9344 40.4961 35.6742 40.6653 35.4525 40.8871C34.8044 41.5352 34.6365 42.483 34.9458 43.288L32.6522 45.5816C31.9284 46.3055 31.9284 47.4834 32.6523 48.2073L34.0608 49.6158C34.4227 49.9777 34.8981 50.1586 35.3736 50.1586C35.849 50.1586 36.3245 49.9777 36.6864 49.6158L38.7393 47.5629C41.3865 50.0811 44.6049 51.1946 45.9115 51.0576C46.2417 51.0222 46.6256 51.4279 46.8832 51.7951L46.1014 52.5769C45.9664 52.712 45.8905 52.8951 45.8905 53.0861C45.8905 53.277 45.9664 53.4601 46.1014 53.5952L49.4512 56.945C49.5918 57.0855 49.7761 57.1558 49.9603 57.1558C50.1446 57.1558 50.3289 57.0855 50.4694 56.945L59.3574 48.0571C59.6386 47.7759 59.6386 47.3201 59.3574 47.0389L56.0076 43.689C55.8726 43.5539 55.6894 43.4781 55.4985 43.4781C55.3075 43.4781 55.1244 43.5539 54.9894 43.6889L54.6753 44.003C53.9007 43.0169 53.8556 40.748 53.8247 39.1825C53.8096 38.4183 53.7966 37.7584 53.7221 37.2399C53.6649 36.8422 53.4661 36.4879 53.1246 36.1747C53.6612 35.9187 54.1558 35.5727 54.5843 35.1442C56.0457 33.6827 56.5196 31.4881 55.7915 29.5531C55.7053 29.3242 55.5088 29.1546 55.2696 29.1029C55.0303 29.0515 54.7815 29.1247 54.6085 29.2975L52.2586 31.6475L50.9667 31.3013L50.6205 30.0095L52.9704 27.6596C53.1434 27.4866 53.2168 27.2376 53.1651 26.9984C53.1134 26.7594 52.9439 26.5628 52.7149 26.4766C50.7799 25.7486 48.5854 26.2223 47.1238 27.6837C45.8452 28.9623 45.3187 30.7869 45.6992 32.5346L44.484 33.7499L44.0989 33.3648C43.2215 32.4874 41.7938 32.4874 40.9163 33.3648C40.6133 33.6678 40.4175 34.0368 40.3238 34.4257C39.6004 34.2691 38.8146 34.4695 38.2534 35.0307C37.6924 35.5919 37.4919 36.3777 37.6484 37.1011C37.2596 37.1948 36.8906 37.3906 36.5876 37.6935ZM37.6058 38.7118C37.7589 38.5587 37.9624 38.4744 38.1789 38.4744C38.3952 38.4744 38.5985 38.5586 38.7516 38.7115L41.5286 41.4884C41.8446 41.8044 41.8446 42.3185 41.5286 42.6344C41.2125 42.9503 40.6984 42.9503 40.3824 42.6344L38.6351 40.887C38.6347 40.8867 38.6344 40.8864 38.6341 40.8861L37.6058 39.8578C37.4528 39.7048 37.3685 39.5013 37.3685 39.2848C37.3685 39.0684 37.4528 38.8648 37.6058 38.7118ZM39.3642 44.7988C39.0482 45.115 38.5341 45.115 38.2181 44.7988L36.4707 43.0514C36.1547 42.7355 36.1548 42.2213 36.4707 41.9053C36.6287 41.7473 36.8362 41.6683 37.0438 41.6683C37.2511 41.6683 37.4584 41.7472 37.6164 41.9049L39.3642 43.6527C39.6802 43.9687 39.6802 44.4828 39.3642 44.7988ZM35.6682 48.5975C35.5058 48.76 35.2414 48.7599 35.079 48.5975L33.6706 47.1891C33.5081 47.0266 33.5081 46.7622 33.6705 46.5999L35.8266 44.4438L37.165 45.7823C37.3525 46.037 37.5477 46.2816 37.7485 46.5172L35.6682 48.5975ZM57.8301 47.5479L49.9604 55.4176L47.6287 53.086L55.4985 45.2163L57.8301 47.5479ZM53.6522 45.0261L47.9138 50.7646C47.4644 50.188 46.7269 49.523 45.7608 49.6255C45.1961 49.685 42.145 48.9463 39.5422 46.3442C39.849 46.236 40.1375 46.0621 40.3824 45.8171C40.3824 45.817 40.3825 45.817 40.3825 45.817C40.8005 45.3989 41.017 44.8558 41.0366 44.3069C41.5855 44.2872 42.1287 44.0708 42.5468 43.6527C42.9314 43.2681 43.1473 42.7778 43.1948 42.2745C43.2134 42.2749 43.2319 42.2771 43.2505 42.2771C43.544 42.2771 43.8373 42.2195 44.1127 42.1057C44.1325 42.1504 44.1532 42.1948 44.1758 42.2387C44.4775 42.8232 44.991 43.248 45.6217 43.4348C46.7567 43.7704 47.9835 43.2121 48.4751 42.1352L49.4635 39.97C49.6286 39.6083 49.4692 39.1811 49.1074 39.016C48.7457 38.8511 48.3186 39.0102 48.1535 39.372L47.1651 41.5372C46.9697 41.9655 46.4819 42.1878 46.0305 42.054C45.7796 41.9798 45.5754 41.8108 45.4555 41.5783C45.3356 41.3459 45.3162 41.0817 45.401 40.8342L46.4641 37.7317C46.833 36.6547 47.9134 36.0063 49.033 36.1887C49.7137 36.3 50.2589 36.4253 50.695 36.5533C50.8093 36.6325 50.9468 36.6795 51.0945 36.6814C51.9981 36.9993 52.2775 37.3109 52.2967 37.4446C52.3586 37.8755 52.3714 38.5241 52.385 39.2109C52.425 41.2385 52.4744 43.694 53.6522 45.0261ZM47.0089 33.2615C47.1973 33.073 47.2663 32.7961 47.1882 32.5414C46.7707 31.179 47.1362 29.7078 48.1421 28.702C48.9107 27.9333 49.9583 27.5413 51.0113 27.5822L49.3084 29.2852C49.1265 29.4671 49.0554 29.7322 49.122 29.9807L49.6833 32.0755C49.7499 32.324 49.944 32.518 50.1924 32.5846L52.2874 33.146C52.5359 33.2126 52.801 33.1416 52.9829 32.9597L54.6858 31.2567C54.7275 32.3099 54.3346 33.3574 53.5661 34.1259C52.9472 34.7448 52.1406 35.1299 51.2761 35.2249C50.7065 35.0461 50.0373 34.8938 49.2652 34.7677C48.1708 34.5888 47.1003 34.9001 46.2913 35.5573L45.5022 34.7682L47.0089 33.2615ZM41.9345 34.3831C42.2505 34.067 42.7646 34.0671 43.0807 34.3831L45.3655 36.668C45.2624 36.8563 45.1735 37.0555 45.1018 37.265L44.7365 38.3311L41.9337 35.5283C41.6186 35.2123 41.6188 34.6988 41.9345 34.3831ZM39.2717 36.0489C39.4297 35.8909 39.6372 35.8119 39.8448 35.8119C40.0523 35.8119 40.2599 35.891 40.4178 36.0489L40.9155 36.5466C40.9158 36.5469 40.916 36.5472 40.9163 36.5475L43.6929 39.3241C43.693 39.3243 43.6932 39.3244 43.6934 39.3246L43.8236 39.4548C44.1396 39.7707 44.1396 40.2849 43.8236 40.6008C43.5076 40.9166 42.9934 40.9167 42.6775 40.6008L42.5468 40.4701L39.7702 37.6935C39.77 37.6934 39.7699 37.6933 39.7698 37.6931L39.2717 37.195C38.9557 36.8791 38.9558 36.3649 39.2717 36.0489Z" fill="#2F53AD"/>
<path d="M67.2246 58.3174H64.5491V36.9109C64.5491 35.1782 63.1395 33.7686 61.4068 33.7686H57.9197C57.5221 33.7686 57.1997 34.0909 57.1997 34.4886C57.1997 34.8862 57.5221 35.2086 57.9197 35.2086H61.4068C62.3454 35.2086 63.1091 35.9722 63.1091 36.9109V58.3175H52.6597C52.2621 58.3175 51.9397 58.6398 51.9397 59.0375C51.9397 59.841 51.286 60.4947 50.4825 60.4947H41.5247C40.7211 60.4947 40.0674 59.841 40.0674 59.0375C40.0674 58.6398 39.7451 58.3175 39.3474 58.3175H28.7521V36.9109C28.7521 35.9722 29.5157 35.2086 30.4544 35.2086H36.0275C36.4252 35.2086 36.7475 34.8862 36.7475 34.4886C36.7475 34.0909 36.4252 33.7686 36.0275 33.7686H30.4544C28.7217 33.7686 27.3121 35.1782 27.3121 36.9109V58.3175H24.7825C24.3849 58.3175 24.0625 58.6398 24.0625 59.0375V60.1316C24.0625 63.2911 26.6329 65.8614 29.7924 65.8614H62.2148C65.3742 65.8614 67.9446 63.2911 67.9446 60.1316V59.0375C67.9446 58.6398 67.6223 58.3174 67.2246 58.3174ZM66.5046 60.1316C66.5046 62.497 64.5802 64.4214 62.2148 64.4214H29.7924C27.4269 64.4214 25.5025 62.497 25.5025 60.1316V59.7575H38.718C39.0389 61.0079 40.1755 61.9347 41.5247 61.9347H50.4825C51.8316 61.9347 52.9682 61.0079 53.2891 59.7575H66.5046L66.5046 60.1316Z" fill="#2F53AD"/>
<defs>
<linearGradient id="paint0_linear_29028_66089" x1="4" y1="4" x2="88" y2="88" gradientUnits="userSpaceOnUse">
<stop stop-color="#2F53AD"/>
<stop offset="0.25" stop-color="#2F53AD" stop-opacity="0"/>
<stop offset="0.496769" stop-color="#2F53AD" stop-opacity="0"/>
<stop offset="0.75" stop-color="#2F53AD" stop-opacity="0"/>
<stop offset="1" stop-color="#2F53AD"/>
</linearGradient>
</defs>
</svg>
