<svg width="43" height="43" viewBox="0 0 43 43" fill="none" xmlns="http://www.w3.org/2000/svg">
<g filter="url(#filter0_ii_3597_79514)">
<rect width="42.544" height="42.544" rx="6.99353" fill="black"/>
<path d="M10.3437 21.5634C10.3437 15.3675 15.3665 10.3446 21.5625 10.3446C27.7584 10.3446 32.7812 15.3675 32.7812 21.5634C32.7812 27.7594 27.7584 32.7822 21.5625 32.7822C15.3665 32.7822 10.3437 27.7594 10.3437 21.5634Z" fill="#2F53AD"/>
<path d="M12.7455 21.5632C12.7455 16.6949 16.692 12.7484 21.5602 12.7484C26.4285 12.7484 30.375 16.6949 30.375 21.5632C30.375 26.4314 26.4285 30.3779 21.5602 30.3779C16.692 30.3779 12.7455 26.4314 12.7455 21.5632Z" fill="url(#paint0_linear_3597_79514)"/>
<path d="M15.1473 21.5629C15.1473 18.0223 18.0175 15.1522 21.558 15.1522C25.0986 15.1522 27.9688 18.0223 27.9688 21.5629C27.9688 25.1034 25.0986 27.9736 21.558 27.9736C18.0175 27.9736 15.1473 25.1034 15.1473 21.5629Z" fill="#2F53AD"/>
<path d="M17.5569 21.5636C17.5569 19.3508 19.3508 17.5569 21.5636 17.5569C23.7764 17.5569 25.5703 19.3508 25.5703 21.5636C25.5703 23.7764 23.7764 25.5703 21.5636 25.5703C19.3508 25.5703 17.5569 23.7764 17.5569 21.5636Z" fill="white"/>
<path d="M28.6009 14.5254C28.6754 14.5999 28.7345 14.6882 28.7749 14.7855C28.8152 14.8828 28.8359 14.9871 28.8359 15.0924C28.8359 15.1977 28.8152 15.302 28.7749 15.3993C28.7345 15.4965 28.6754 15.5849 28.6009 15.6593L22.1301 22.1294C22.0562 22.2059 21.9677 22.267 21.87 22.309C21.7722 22.351 21.667 22.3731 21.5606 22.374C21.4542 22.3749 21.3487 22.3546 21.2502 22.3143C21.1518 22.2741 21.0623 22.2146 20.987 22.1393C20.9118 22.0641 20.8523 21.9746 20.812 21.8761C20.7717 21.7776 20.7514 21.6721 20.7524 21.5657C20.7533 21.4593 20.7754 21.3542 20.8174 21.2564C20.8594 21.1586 20.9204 21.0702 20.997 20.9963L27.467 14.5254C27.5414 14.4509 27.6298 14.3918 27.7271 14.3515C27.8244 14.3112 27.9287 14.2904 28.034 14.2904C28.1393 14.2904 28.2435 14.3112 28.3408 14.3515C28.4381 14.3918 28.5265 14.4509 28.6009 14.5254Z" fill="url(#paint1_linear_3597_79514)"/>
<path d="M26.3667 15.1522C26.3667 15.5773 26.5356 15.9849 26.8361 16.2855C27.1367 16.586 27.5443 16.7549 27.9694 16.7549H29.2403C29.4509 16.7554 29.6594 16.7142 29.8539 16.6336C30.0484 16.553 30.225 16.4346 30.3734 16.2853L32.1492 14.5111C32.2835 14.3764 32.3839 14.2118 32.4422 14.0307C32.5005 13.8497 32.5149 13.6574 32.4844 13.4696C32.4539 13.2819 32.3793 13.1041 32.2667 12.9508C32.1541 12.7975 32.0067 12.6731 31.8367 12.5879L30.9704 12.1552L30.5377 11.2881C30.4524 11.1181 30.328 10.9708 30.1746 10.8583C30.0213 10.7458 29.8435 10.6713 29.6558 10.6408C29.468 10.6104 29.2757 10.6249 29.0947 10.6833C28.9137 10.7416 28.7491 10.8421 28.6145 10.9764L26.8363 12.7482C26.687 12.8966 26.5686 13.0732 26.488 13.2677C26.4074 13.4622 26.3662 13.6707 26.3667 13.8813V15.1522Z" fill="#BBC9ED"/>
</g>
<defs>
<filter id="filter0_ii_3597_79514" x="-1.74838" y="-1.16559" width="46.0436" height="44.8751" filterUnits="userSpaceOnUse" color-interpolation-filters="sRGB">
<feFlood flood-opacity="0" result="BackgroundImageFix"/>
<feBlend mode="normal" in="SourceGraphic" in2="BackgroundImageFix" result="shape"/>
<feColorMatrix in="SourceAlpha" type="matrix" values="0 0 0 0 0 0 0 0 0 0 0 0 0 0 0 0 0 0 127 0" result="hardAlpha"/>
<feOffset dx="-1.74838" dy="-1.16559"/>
<feGaussianBlur stdDeviation="6.99353"/>
<feComposite in2="hardAlpha" operator="arithmetic" k2="-1" k3="1"/>
<feColorMatrix type="matrix" values="0 0 0 0 0.415686 0 0 0 0 0.541176 0 0 0 0 0.843137 0 0 0 0.25 0"/>
<feBlend mode="normal" in2="shape" result="effect1_innerShadow_3597_79514"/>
<feColorMatrix in="SourceAlpha" type="matrix" values="0 0 0 0 0 0 0 0 0 0 0 0 0 0 0 0 0 0 127 0" result="hardAlpha"/>
<feOffset dx="1.74838" dy="1.16559"/>
<feGaussianBlur stdDeviation="6.99353"/>
<feComposite in2="hardAlpha" operator="arithmetic" k2="-1" k3="1"/>
<feColorMatrix type="matrix" values="0 0 0 0 0.415686 0 0 0 0 0.541176 0 0 0 0 0.843137 0 0 0 0.25 0"/>
<feBlend mode="normal" in2="effect1_innerShadow_3597_79514" result="effect2_innerShadow_3597_79514"/>
</filter>
<linearGradient id="paint0_linear_3597_79514" x1="27.7931" y1="27.796" x2="15.3274" y2="15.3303" gradientUnits="userSpaceOnUse">
<stop stop-color="white"/>
<stop offset="1" stop-color="#DADFE0"/>
</linearGradient>
<linearGradient id="paint1_linear_3597_79514" x1="26.858" y1="16.2684" x2="21.4481" y2="21.6782" gradientUnits="userSpaceOnUse">
<stop stop-color="#3E4154"/>
<stop offset="1" stop-color="#1B2129"/>
</linearGradient>
</defs>
</svg>
