<svg width="296" height="309" viewBox="0 0 296 309" fill="none" xmlns="http://www.w3.org/2000/svg">
<g opacity="0.06">
<mask id="mask0_3597_79422" style="mask-type:luminance" maskUnits="userSpaceOnUse" x="0" y="-138" width="592" height="520">
<path d="M-2.79283e-05 60.6521L450.29 -137.689L591.433 182.744L141.143 381.086L-2.79283e-05 60.6521Z" fill="white"/>
</mask>
<g mask="url(#mask0_3597_79422)">
<path d="M340.34 71.4453L359.324 17.4163L306.647 -5.04739L287.662 48.9816L340.34 71.4453Z" fill="url(#paint0_radial_3597_79422)"/>
<path d="M234.997 26.5316L253.981 -27.4972L201.304 -49.9617L182.32 4.0677L234.997 26.5316Z" fill="url(#paint1_radial_3597_79422)"/>
<path d="M306.653 -5.02966L325.637 -59.0587L272.959 -81.523L253.975 -27.4933L306.653 -5.02966Z" fill="url(#paint2_radial_3597_79422)"/>
<path d="M302.349 179.547L321.332 125.518L268.655 103.054L249.671 157.083L302.349 179.547Z" fill="url(#paint3_radial_3597_79422)"/>
<path d="M359.278 17.3434L378.262 -36.6863L325.584 -59.1499L306.6 -5.12115L359.278 17.3434Z" fill="url(#paint4_linear_3597_79422)"/>
<path d="M287.669 48.9945L306.653 -5.03491L253.976 -27.4988L234.992 26.53L287.669 48.9945Z" fill="url(#paint5_linear_3597_79422)"/>
<path d="M321.333 125.477L340.317 71.4475L287.64 48.9836L268.655 103.013L321.333 125.477Z" fill="url(#paint6_linear_3597_79422)"/>
<path d="M354.841 202.036L373.825 148.007L321.147 125.542L302.164 179.572L354.841 202.036Z" fill="url(#paint7_linear_3597_79422)"/>
<path d="M215.934 80.6396L163.257 58.175L144.272 112.205L196.95 134.669L215.934 80.6396Z" fill="url(#paint8_radial_3597_79422)"/>
<path d="M182.356 4.23136L129.679 -18.2332L110.695 35.7962L163.372 58.2601L182.356 4.23136Z" fill="url(#paint9_radial_3597_79422)"/>
<path d="M163.317 58.2532L110.638 35.7898L91.6544 89.8186L144.332 112.283L163.317 58.2532Z" fill="url(#paint10_linear_3597_79422)"/>
<path d="M235.02 26.6366L182.342 4.17234L163.359 58.2015L216.035 80.665L235.02 26.6366Z" fill="url(#paint11_linear_3597_79422)"/>
</g>
<mask id="mask1_3597_79422" style="mask-type:luminance" maskUnits="userSpaceOnUse" x="0" y="-138" width="592" height="520">
<path d="M-2.79283e-05 60.6521L450.29 -137.689L591.433 182.744L141.143 381.086L-2.79283e-05 60.6521Z" fill="white"/>
</mask>
<g mask="url(#mask1_3597_79422)">
<path d="M350.098 386.751L369.083 332.722L316.405 310.257L297.42 364.287L350.098 386.751Z" fill="url(#paint12_radial_3597_79422)"/>
<path d="M244.754 341.832L263.739 287.803L211.061 265.338L192.077 319.368L244.754 341.832Z" fill="url(#paint13_radial_3597_79422)"/>
<path d="M316.41 310.273L335.395 256.244L282.717 233.78L263.733 287.809L316.41 310.273Z" fill="url(#paint14_radial_3597_79422)"/>
<path d="M263.732 287.816L282.715 233.787L230.038 211.322L211.054 265.352L263.732 287.816Z" fill="url(#paint15_linear_3597_79422)"/>
<path d="M297.427 364.294L316.411 310.265L263.733 287.8L244.75 341.829L297.427 364.294Z" fill="url(#paint16_linear_3597_79422)"/>
<path d="M192.114 319.533L139.436 297.07L120.453 351.098L173.13 373.563L192.114 319.533Z" fill="url(#paint17_radial_3597_79422)"/>
<path d="M244.785 341.937L192.108 319.474L173.124 373.502L225.801 395.967L244.785 341.937Z" fill="url(#paint18_linear_3597_79422)"/>
</g>
<mask id="mask2_3597_79422" style="mask-type:luminance" maskUnits="userSpaceOnUse" x="0" y="-138" width="592" height="520">
<path d="M-2.79283e-05 60.6521L450.29 -137.689L591.433 182.744L141.143 381.086L-2.79283e-05 60.6521Z" fill="white"/>
</mask>
<g mask="url(#mask2_3597_79422)">
<path d="M-3.33952 360.552L15.6448 306.523L-37.0329 284.059L-56.0169 338.088L-3.33952 360.552Z" fill="url(#paint19_radial_3597_79422)"/>
<path d="M68.1686 328.94L87.1529 274.91L34.4749 252.446L15.4912 306.475L68.1686 328.94Z" fill="url(#paint20_radial_3597_79422)"/>
<path d="M15.598 306.447L34.5825 252.418L-18.0954 229.954L-37.0785 283.983L15.598 306.447Z" fill="url(#paint21_linear_3597_79422)"/>
<path d="M49.1917 382.965L68.1763 328.936L15.4984 306.472L-3.4859 360.502L49.1917 382.965Z" fill="url(#paint22_linear_3597_79422)"/>
<path d="M177.746 189.281L125.068 166.818L106.084 220.847L158.761 243.311L177.746 189.281Z" fill="url(#paint23_linear_3597_79422)"/>
</g>
</g>
<defs>
<radialGradient id="paint0_radial_3597_79422" cx="0" cy="0" r="1" gradientTransform="matrix(-24.9455 70.9956 52.9106 22.5635 273.015 5.52132)" gradientUnits="userSpaceOnUse">
<stop stop-color="#272425"/>
<stop offset="1" stop-color="#F0F1F1" stop-opacity="0"/>
</radialGradient>
<radialGradient id="paint1_radial_3597_79422" cx="0" cy="0" r="1" gradientTransform="matrix(-24.9453 70.995 52.9101 22.5633 167.676 -39.3914)" gradientUnits="userSpaceOnUse">
<stop stop-color="#272425"/>
<stop offset="1" stop-color="#F0F1F1" stop-opacity="0"/>
</radialGradient>
<radialGradient id="paint2_radial_3597_79422" cx="0" cy="0" r="1" gradientTransform="matrix(-24.9455 70.9955 52.9106 22.5635 239.329 -70.9534)" gradientUnits="userSpaceOnUse">
<stop stop-color="#272425"/>
<stop offset="1" stop-color="#F0F1F1" stop-opacity="0"/>
</radialGradient>
<radialGradient id="paint3_radial_3597_79422" cx="0" cy="0" r="1" gradientTransform="matrix(-24.9454 70.9951 52.9102 22.5633 235.024 113.623)" gradientUnits="userSpaceOnUse">
<stop stop-color="#272425"/>
<stop offset="1" stop-color="#F0F1F1" stop-opacity="0"/>
</radialGradient>
<linearGradient id="paint4_linear_3597_79422" x1="351.923" y1="-47.9182" x2="329.507" y2="4.64774" gradientUnits="userSpaceOnUse">
<stop stop-color="#CFD1D2"/>
<stop offset="1" stop-color="white"/>
</linearGradient>
<linearGradient id="paint5_linear_3597_79422" x1="297.161" y1="21.9798" x2="243.247" y2="3.03599" gradientUnits="userSpaceOnUse">
<stop stop-color="white"/>
<stop offset="1" stop-color="#CFD1D2"/>
</linearGradient>
<linearGradient id="paint6_linear_3597_79422" x1="313.978" y1="60.2153" x2="291.562" y2="112.781" gradientUnits="userSpaceOnUse">
<stop stop-color="#CFD1D2"/>
<stop offset="1" stop-color="white"/>
</linearGradient>
<linearGradient id="paint7_linear_3597_79422" x1="364.333" y1="175.021" x2="310.418" y2="156.077" gradientUnits="userSpaceOnUse">
<stop stop-color="#CFD1D2"/>
<stop offset="1" stop-color="white"/>
</linearGradient>
<radialGradient id="paint8_radial_3597_79422" cx="0" cy="0" r="1" gradientTransform="matrix(69.2194 29.5183 19.0681 -54.2683 156.019 147.896)" gradientUnits="userSpaceOnUse">
<stop stop-color="#272425"/>
<stop offset="1" stop-color="#F0F1F1" stop-opacity="0"/>
</radialGradient>
<radialGradient id="paint9_radial_3597_79422" cx="0" cy="0" r="1" gradientTransform="matrix(69.219 29.5182 19.068 -54.268 122.441 71.4886)" gradientUnits="userSpaceOnUse">
<stop stop-color="#272425"/>
<stop offset="1" stop-color="#F0F1F1" stop-opacity="0"/>
</radialGradient>
<linearGradient id="paint10_linear_3597_79422" x1="101.147" y1="62.8041" x2="155.061" y2="81.748" gradientUnits="userSpaceOnUse">
<stop stop-color="#CFD1D2"/>
<stop offset="1" stop-color="white"/>
</linearGradient>
<linearGradient id="paint11_linear_3597_79422" x1="208.681" y1="15.4043" x2="186.265" y2="67.9695" gradientUnits="userSpaceOnUse">
<stop stop-color="#CFD1D2"/>
<stop offset="1" stop-color="white"/>
</linearGradient>
<radialGradient id="paint12_radial_3597_79422" cx="0" cy="0" r="1" gradientTransform="matrix(-24.9455 70.9953 52.9104 22.5634 282.771 320.825)" gradientUnits="userSpaceOnUse">
<stop stop-color="#272425"/>
<stop offset="1" stop-color="#F0F1F1" stop-opacity="0"/>
</radialGradient>
<radialGradient id="paint13_radial_3597_79422" cx="0" cy="0" r="1" gradientTransform="matrix(-24.9454 70.9952 52.9103 22.5634 177.43 275.907)" gradientUnits="userSpaceOnUse">
<stop stop-color="#272425"/>
<stop offset="1" stop-color="#F0F1F1" stop-opacity="0"/>
</radialGradient>
<radialGradient id="paint14_radial_3597_79422" cx="0" cy="0" r="1" gradientTransform="matrix(-24.9454 70.9953 52.9104 22.5634 249.085 244.348)" gradientUnits="userSpaceOnUse">
<stop stop-color="#272425"/>
<stop offset="1" stop-color="#F0F1F1" stop-opacity="0"/>
</radialGradient>
<linearGradient id="paint15_linear_3597_79422" x1="256.377" y1="222.555" x2="233.961" y2="275.12" gradientUnits="userSpaceOnUse">
<stop stop-color="#CFD1D2"/>
<stop offset="1" stop-color="white"/>
</linearGradient>
<linearGradient id="paint16_linear_3597_79422" x1="306.919" y1="337.279" x2="253.004" y2="318.335" gradientUnits="userSpaceOnUse">
<stop stop-color="white"/>
<stop offset="1" stop-color="#CFD1D2"/>
</linearGradient>
<radialGradient id="paint17_radial_3597_79422" cx="0" cy="0" r="1" gradientTransform="matrix(69.219 29.5182 19.068 -54.268 132.201 386.784)" gradientUnits="userSpaceOnUse">
<stop stop-color="#272425"/>
<stop offset="1" stop-color="#F0F1F1" stop-opacity="0"/>
</radialGradient>
<linearGradient id="paint18_linear_3597_79422" x1="218.447" y1="330.705" x2="196.03" y2="383.271" gradientUnits="userSpaceOnUse">
<stop stop-color="#CFD1D2"/>
<stop offset="1" stop-color="white"/>
</linearGradient>
<radialGradient id="paint19_radial_3597_79422" cx="0" cy="0" r="1" gradientTransform="matrix(-24.9455 70.9953 52.9104 22.5634 -70.6584 294.63)" gradientUnits="userSpaceOnUse">
<stop stop-color="#272425"/>
<stop offset="1" stop-color="#F0F1F1" stop-opacity="0"/>
</radialGradient>
<radialGradient id="paint20_radial_3597_79422" cx="0" cy="0" r="1" gradientTransform="matrix(-24.9455 70.9953 52.9104 22.5634 0.848356 263.017)" gradientUnits="userSpaceOnUse">
<stop stop-color="#272425"/>
<stop offset="1" stop-color="#F0F1F1" stop-opacity="0"/>
</radialGradient>
<linearGradient id="paint21_linear_3597_79422" x1="8.24364" y1="241.185" x2="-14.1728" y2="293.751" gradientUnits="userSpaceOnUse">
<stop stop-color="#CFD1D2"/>
<stop offset="1" stop-color="white"/>
</linearGradient>
<linearGradient id="paint22_linear_3597_79422" x1="58.684" y1="355.951" x2="4.76939" y2="337.007" gradientUnits="userSpaceOnUse">
<stop stop-color="#CFD1D2"/>
<stop offset="1" stop-color="white"/>
</linearGradient>
<linearGradient id="paint23_linear_3597_79422" x1="151.407" y1="178.049" x2="128.991" y2="230.615" gradientUnits="userSpaceOnUse">
<stop stop-color="white"/>
<stop offset="1" stop-color="#CFD1D2"/>
</linearGradient>
</defs>
</svg>
