<svg width="43" height="43" viewBox="0 0 43 43" fill="none" xmlns="http://www.w3.org/2000/svg">
<g filter="url(#filter0_ii_3597_79504)">
<rect width="42.544" height="42.544" rx="6.99353" transform="matrix(0 -1 -1 0 42.5469 42.544)" fill="black"/>
<path d="M22.1389 29.1764C22.0084 29.1764 21.8799 29.1445 21.7645 29.0835C21.6491 29.0226 21.5504 28.9344 21.4768 28.8266C21.4033 28.7188 21.3572 28.5946 21.3426 28.465C21.3279 28.3353 21.3452 28.204 21.3928 28.0825C21.7132 27.2482 21.7322 26.3282 21.4465 25.4814L16.4846 20.5195C16.0889 20.3853 15.6739 20.3171 15.2561 20.3175C14.7865 20.3163 14.3209 20.4033 13.8834 20.574C13.738 20.6311 13.579 20.6445 13.4261 20.6124C13.2732 20.5804 13.133 20.5044 13.0227 20.3937C12.9124 20.283 12.8369 20.1424 12.8055 19.9894C12.774 19.8363 12.788 19.6774 12.8457 19.5322C13.1163 18.8422 13.5254 18.215 14.0477 17.6891C14.6224 17.1123 15.3206 16.6734 16.0896 16.4056C16.8587 16.1379 17.6784 16.0482 18.4871 16.1433C18.6657 16.1646 18.832 16.2453 18.9591 16.3725L25.5951 23.0084C25.7222 23.1356 25.803 23.3018 25.8242 23.4804C25.9654 24.6643 25.7082 25.8615 25.0932 26.883C24.4782 27.9044 23.5405 28.6919 22.4281 29.1211C22.336 29.1574 22.2379 29.1762 22.1389 29.1764Z" fill="#2EC4B6"/>
<path d="M18.2692 27.2443C17.954 27.2453 17.6417 27.1837 17.3505 27.0631C17.0593 26.9424 16.7949 26.7651 16.5728 26.5415L15.4212 25.3884C15.091 25.0575 14.8644 24.6375 14.7691 24.1797C14.6739 23.722 14.7142 23.2465 14.8851 22.8113C14.9653 22.5989 15.0606 22.3529 15.1632 22.0789C15.9766 19.9152 17.3381 16.2948 19.5946 14.0382C20.6161 12.9541 21.846 12.0874 23.2107 11.4904C24.5753 10.8933 26.0465 10.5781 27.5359 10.5636C28.1342 10.5615 28.7313 10.617 29.3189 10.7295C29.7936 10.8204 30.2299 11.0518 30.5714 11.3937C30.9129 11.7357 31.1438 12.1723 31.2341 12.6471C31.527 14.4152 31.378 16.2283 30.8002 17.9248C30.2225 19.6214 29.2341 21.1486 27.923 22.3705C25.6672 24.6271 22.0475 25.987 19.8847 26.8004C19.6107 26.9037 19.363 26.9967 19.1499 27.08C18.8692 27.1895 18.5705 27.2452 18.2692 27.2443Z" fill="white"/>
<path d="M31.2337 12.6471C31.1433 12.172 30.912 11.7351 30.5701 11.3931C30.2281 11.0511 29.7912 10.8199 29.3161 10.7294C28.7293 10.6172 28.133 10.5616 27.5356 10.5636C27.1136 10.565 26.6922 10.5918 26.2734 10.6437C26.6988 11.8007 27.3709 12.8513 28.2431 13.7225C29.1107 14.592 30.1568 15.2627 31.3091 15.6882C31.4402 14.6766 31.4148 13.6509 31.2337 12.6471Z" fill="#2EC4B6"/>
<path d="M24.1897 14.5704C23.5558 14.5704 22.9361 14.7583 22.4089 15.1106C21.8818 15.4628 21.471 15.9634 21.2284 16.5491C20.9858 17.1348 20.9223 17.7793 21.046 18.4011C21.1696 19.0228 21.4749 19.594 21.9232 20.0423C22.3715 20.4905 22.9426 20.7958 23.5644 20.9195C24.1862 21.0432 24.8307 20.9797 25.4164 20.7371C26.0021 20.4945 26.5027 20.0837 26.8549 19.5565C27.2071 19.0294 27.3951 18.4097 27.3951 17.7757C27.3951 16.9256 27.0574 16.1103 26.4563 15.5092C25.8552 14.9081 25.0399 14.5704 24.1897 14.5704ZM24.1897 19.3784C23.8728 19.3784 23.5629 19.2844 23.2993 19.1083C23.0358 18.9322 22.8304 18.6819 22.7091 18.389C22.5878 18.0962 22.556 17.7739 22.6179 17.4631C22.6797 17.1522 22.8323 16.8666 23.0565 16.6425C23.2806 16.4183 23.5662 16.2657 23.8771 16.2038C24.188 16.142 24.5102 16.1737 24.8031 16.295C25.0959 16.4163 25.3462 16.6218 25.5223 16.8853C25.6984 17.1489 25.7924 17.4587 25.7924 17.7757C25.7924 18.2008 25.6236 18.6084 25.323 18.909C25.0225 19.2096 24.6148 19.3784 24.1897 19.3784Z" fill="#2EC4B6"/>
<path d="M15.1381 26.8245C14.9878 26.6743 14.784 26.5899 14.5715 26.5899C14.359 26.5899 14.1552 26.6743 14.005 26.8245L11.4463 29.38C11.3717 29.4546 11.3125 29.5432 11.2721 29.6407C11.2317 29.7381 11.2109 29.8426 11.2109 29.9481C11.2109 30.0537 11.2317 30.1581 11.2721 30.2556C11.3125 30.3531 11.3717 30.4417 11.4463 30.5163C11.5209 30.5909 11.6095 30.6501 11.7069 30.6905C11.8044 30.7308 11.9089 30.7516 12.0144 30.7516C12.1199 30.7516 12.2244 30.7308 12.3219 30.6905C12.4194 30.6501 12.508 30.5909 12.5826 30.5163L15.1381 27.9608C15.2129 27.8863 15.2723 27.7978 15.3129 27.7003C15.3534 27.6028 15.3743 27.4983 15.3743 27.3927C15.3743 27.2871 15.3534 27.1825 15.3129 27.085C15.2723 26.9875 15.2129 26.899 15.1381 26.8245Z" fill="white"/>
<path d="M11.9402 27.2654L13.5974 25.6082C13.674 25.5343 13.735 25.4459 13.777 25.3481C13.819 25.2504 13.8411 25.1452 13.842 25.0388C13.8429 24.9324 13.8227 24.8269 13.7824 24.7284C13.7421 24.6299 13.6826 24.5405 13.6073 24.4652C13.5321 24.39 13.4426 24.3305 13.3442 24.2902C13.2457 24.2499 13.1402 24.2296 13.0337 24.2305C12.9273 24.2315 12.8222 24.2536 12.7244 24.2956C12.6267 24.3376 12.5382 24.3986 12.4643 24.4752L10.8071 26.1323C10.7306 26.2062 10.6696 26.2947 10.6276 26.3924C10.5856 26.4902 10.5635 26.5954 10.5625 26.7018C10.5616 26.8082 10.5819 26.9137 10.6222 27.0122C10.6625 27.1106 10.722 27.2001 10.7972 27.2754C10.8724 27.3506 10.9619 27.4101 11.0604 27.4504C11.1589 27.4907 11.2644 27.511 11.3708 27.51C11.4772 27.5091 11.5824 27.487 11.6801 27.445C11.7779 27.403 11.8663 27.342 11.9402 27.2654Z" fill="white"/>
<path d="M16.3549 28.3734L14.6978 30.0306C14.6212 30.1045 14.5602 30.1929 14.5182 30.2907C14.4762 30.3885 14.4541 30.4936 14.4532 30.6C14.4522 30.7064 14.4725 30.812 14.5128 30.9104C14.5531 31.0089 14.6126 31.0984 14.6878 31.1736C14.7631 31.2489 14.8525 31.3084 14.951 31.3487C15.0495 31.389 15.155 31.4092 15.2614 31.4083C15.3678 31.4074 15.473 31.3853 15.5708 31.3433C15.6685 31.3013 15.7569 31.2402 15.8309 31.1637L17.488 29.5065C17.634 29.3554 17.7148 29.153 17.713 28.9429C17.7111 28.7327 17.6269 28.5318 17.4783 28.3832C17.3297 28.2346 17.1287 28.1503 16.9186 28.1485C16.7085 28.1467 16.5061 28.2275 16.3549 28.3734Z" fill="white"/>
</g>
<defs>
<filter id="filter0_ii_3597_79504" x="-1.74838" y="-1.16555" width="46.0436" height="44.8751" filterUnits="userSpaceOnUse" color-interpolation-filters="sRGB">
<feFlood flood-opacity="0" result="BackgroundImageFix"/>
<feBlend mode="normal" in="SourceGraphic" in2="BackgroundImageFix" result="shape"/>
<feColorMatrix in="SourceAlpha" type="matrix" values="0 0 0 0 0 0 0 0 0 0 0 0 0 0 0 0 0 0 127 0" result="hardAlpha"/>
<feOffset dx="-1.74838" dy="-1.16559"/>
<feGaussianBlur stdDeviation="6.99353"/>
<feComposite in2="hardAlpha" operator="arithmetic" k2="-1" k3="1"/>
<feColorMatrix type="matrix" values="0 0 0 0 0.180392 0 0 0 0 0.768627 0 0 0 0 0.713726 0 0 0 0.25 0"/>
<feBlend mode="normal" in2="shape" result="effect1_innerShadow_3597_79504"/>
<feColorMatrix in="SourceAlpha" type="matrix" values="0 0 0 0 0 0 0 0 0 0 0 0 0 0 0 0 0 0 127 0" result="hardAlpha"/>
<feOffset dx="1.74838" dy="1.16559"/>
<feGaussianBlur stdDeviation="6.99353"/>
<feComposite in2="hardAlpha" operator="arithmetic" k2="-1" k3="1"/>
<feColorMatrix type="matrix" values="0 0 0 0 0.180392 0 0 0 0 0.768627 0 0 0 0 0.713726 0 0 0 0.25 0"/>
<feBlend mode="normal" in2="effect1_innerShadow_3597_79504" result="effect2_innerShadow_3597_79504"/>
</filter>
</defs>
</svg>
