<svg width="73" height="73" viewBox="0 0 73 73" fill="none" xmlns="http://www.w3.org/2000/svg">
<g filter="url(#filter0_ii_29052_60261)">
<rect y="73" width="73" height="73" rx="12" transform="rotate(-90 0 73)" fill="black"/>
<path d="M35.0195 50.062C35.2434 50.062 35.4639 50.0073 35.6618 49.9027C35.8598 49.7981 36.0292 49.6467 36.1554 49.4617C36.2815 49.2768 36.3606 49.0638 36.3858 48.8413C36.4109 48.6188 36.3813 48.3936 36.2996 48.1851C35.7499 46.7535 35.7173 45.1749 36.2074 43.7218L44.7214 35.2078C45.4003 34.9776 46.1125 34.8605 46.8293 34.8614C47.6351 34.8593 48.434 35.0085 49.1847 35.3013C49.4342 35.3994 49.707 35.4223 49.9694 35.3674C50.2318 35.3124 50.4724 35.1819 50.6616 34.992C50.8509 34.802 50.9804 34.5609 51.0344 34.2983C51.0883 34.0357 51.0643 33.763 50.9653 33.5139C50.501 32.3299 49.7991 31.2536 48.9028 30.3514C47.9167 29.3615 46.7187 28.6085 45.3991 28.1491C44.0796 27.6896 42.673 27.5357 41.2853 27.699C40.9789 27.7355 40.6936 27.874 40.4755 28.0922L29.0891 39.4786C28.8708 39.6968 28.7323 39.982 28.6958 40.2885C28.4536 42.3199 28.8949 44.3741 29.9502 46.1268C31.0054 47.8795 32.6144 49.2307 34.5231 49.9671C34.6812 50.0294 34.8495 50.0616 35.0195 50.062Z" fill="url(#paint0_linear_29052_60261)"/>
<path d="M41.6579 46.7471C42.1987 46.7488 42.7345 46.6431 43.2342 46.4361C43.7339 46.2291 44.1875 45.9249 44.5687 45.5412L46.5446 43.5626C47.1113 42.9948 47.5002 42.2741 47.6635 41.4887C47.8269 40.7033 47.7577 39.8873 47.4645 39.1406C47.327 38.7762 47.1634 38.3541 46.9874 37.8838C45.5917 34.1713 43.2556 27.9591 39.3836 24.0871C37.6309 22.2269 35.5205 20.7399 33.179 19.7154C30.8375 18.6908 28.3131 18.1499 25.7574 18.1251C24.7308 18.1215 23.7063 18.2168 22.698 18.4097C21.8836 18.5657 21.1348 18.9628 20.5488 19.5495C19.9628 20.1362 19.5667 20.8855 19.4117 21.7001C18.9092 24.734 19.1649 27.845 20.1562 30.7561C21.1475 33.6671 22.8436 36.2877 25.0932 38.3843C28.9639 42.2563 35.1747 44.5897 38.8859 45.9853C39.3561 46.1627 39.781 46.3222 40.1467 46.4652C40.6283 46.653 41.1409 46.7487 41.6579 46.7471Z" fill="white"/>
<path d="M19.4106 21.7001C19.5659 20.8849 19.9626 20.1353 20.5494 19.5485C21.1362 18.9617 21.8858 18.5649 22.701 18.4097C23.7079 18.2171 24.7311 18.1218 25.7563 18.1251C26.4802 18.1276 27.2034 18.1735 27.9219 18.2626C27.192 20.2479 26.0387 22.0505 24.5421 23.5453C23.0535 25.0373 21.2585 26.1881 19.2814 26.9182C19.0564 25.1825 19.1 23.4225 19.4106 21.7001Z" fill="url(#paint1_linear_29052_60261)"/>
<path d="M31.5 25C32.5878 25 33.6512 25.3226 34.5556 25.9269C35.4601 26.5313 36.1651 27.3902 36.5813 28.3952C36.9976 29.4002 37.1065 30.5061 36.8943 31.573C36.6821 32.6399 36.1583 33.6199 35.3891 34.3891C34.6199 35.1583 33.6399 35.6821 32.573 35.8943C31.5061 36.1065 30.4002 35.9976 29.3952 35.5813C28.3902 35.1651 27.5313 34.4601 26.9269 33.5556C26.3226 32.6512 26 31.5878 26 30.5C26 29.0413 26.5795 27.6424 27.6109 26.6109C28.6424 25.5795 30.0413 25 31.5 25ZM31.5 33.25C32.0439 33.25 32.5756 33.0887 33.0278 32.7865C33.4801 32.4844 33.8325 32.0549 34.0407 31.5524C34.2488 31.0499 34.3033 30.4969 34.1972 29.9635C34.091 29.4301 33.8291 28.9401 33.4445 28.5555C33.0599 28.1709 32.5699 27.9089 32.0365 27.8028C31.503 27.6967 30.9501 27.7512 30.4476 27.9593C29.9451 28.1675 29.5156 28.5199 29.2135 28.9722C28.9113 29.4244 28.75 29.9561 28.75 30.5C28.75 31.2293 29.0397 31.9288 29.5555 32.4445C30.0712 32.9603 30.7707 33.25 31.5 33.25Z" fill="url(#paint2_linear_29052_60261)"/>
<path d="M47.0272 46.0281C47.285 45.7703 47.6347 45.6255 47.9993 45.6255C48.3639 45.6255 48.7136 45.7703 48.9714 46.0281L53.3618 50.4129C53.4898 50.541 53.5914 50.693 53.6607 50.8602C53.73 51.0275 53.7656 51.2068 53.7656 51.3878C53.7656 51.5689 53.73 51.7481 53.6607 51.9154C53.5914 52.0827 53.4898 52.2347 53.3618 52.3627C53.2338 52.4907 53.0818 52.5923 52.9145 52.6616C52.7473 52.7308 52.568 52.7665 52.3869 52.7665C52.2059 52.7665 52.0266 52.7308 51.8593 52.6616C51.6921 52.5923 51.5401 52.4907 51.4121 52.3627L47.0272 47.9778C46.8987 47.85 46.7968 47.6981 46.7272 47.5308C46.6577 47.3635 46.6219 47.1841 46.6219 47.0029C46.6219 46.8218 46.6577 46.6424 46.7272 46.4751C46.7968 46.3077 46.8987 46.1558 47.0272 46.0281Z" fill="white"/>
<path d="M52.5266 46.7842L49.6831 43.9407C49.5518 43.8138 49.447 43.6621 49.375 43.4944C49.3029 43.3266 49.265 43.1462 49.2634 42.9636C49.2618 42.781 49.2966 42.6 49.3657 42.431C49.4349 42.262 49.537 42.1085 49.6661 41.9794C49.7952 41.8503 49.9487 41.7482 50.1177 41.6791C50.2866 41.6099 50.4677 41.5751 50.6503 41.5767C50.8329 41.5783 51.0133 41.6162 51.181 41.6883C51.3488 41.7604 51.5005 41.8651 51.6274 41.9964L54.4709 44.8399C54.6022 44.9668 54.7069 45.1185 54.779 45.2862C54.8511 45.454 54.889 45.6344 54.8906 45.817C54.8922 45.9996 54.8574 46.1806 54.7882 46.3496C54.7191 46.5186 54.617 46.6721 54.4879 46.8012C54.3588 46.9303 54.2053 47.0324 54.0363 47.1016C53.8673 47.1707 53.6862 47.2055 53.5037 47.2039C53.3211 47.2023 53.1407 47.1644 52.9729 47.0923C52.8052 47.0203 52.6534 46.9155 52.5266 46.7842Z" fill="white"/>
<path d="M44.9399 48.6843L47.7834 51.5278C47.9147 51.6547 48.0194 51.8064 48.0915 51.9741C48.1636 52.1419 48.2015 52.3223 48.2031 52.5049C48.2047 52.6875 48.1699 52.8685 48.1007 53.0375C48.0316 53.2065 47.9295 53.36 47.8004 53.4891C47.6713 53.6182 47.5178 53.7203 47.3488 53.7894C47.1798 53.8586 46.9987 53.8934 46.8162 53.8918C46.6336 53.8902 46.4532 53.8523 46.2854 53.7802C46.1177 53.7081 45.9659 53.6034 45.8391 53.4721L42.9956 50.6286C42.7451 50.3692 42.6065 50.0219 42.6097 49.6614C42.6128 49.3009 42.7574 48.956 43.0124 48.7011C43.2673 48.4461 43.6122 48.3015 43.9727 48.2984C44.3332 48.2953 44.6805 48.4339 44.9399 48.6843Z" fill="white"/>
</g>
<defs>
<filter id="filter0_ii_29052_60261" x="-3" y="-2" width="79" height="77" filterUnits="userSpaceOnUse" color-interpolation-filters="sRGB">
<feFlood flood-opacity="0" result="BackgroundImageFix"/>
<feBlend mode="normal" in="SourceGraphic" in2="BackgroundImageFix" result="shape"/>
<feColorMatrix in="SourceAlpha" type="matrix" values="0 0 0 0 0 0 0 0 0 0 0 0 0 0 0 0 0 0 127 0" result="hardAlpha"/>
<feOffset dx="-3" dy="-2"/>
<feGaussianBlur stdDeviation="16"/>
<feComposite in2="hardAlpha" operator="arithmetic" k2="-1" k3="1"/>
<feColorMatrix type="matrix" values="0 0 0 0 1 0 0 0 0 1 0 0 0 0 1 0 0 0 0.12 0"/>
<feBlend mode="normal" in2="shape" result="effect1_innerShadow_29052_60261"/>
<feColorMatrix in="SourceAlpha" type="matrix" values="0 0 0 0 0 0 0 0 0 0 0 0 0 0 0 0 0 0 127 0" result="hardAlpha"/>
<feOffset dx="3" dy="2"/>
<feGaussianBlur stdDeviation="16"/>
<feComposite in2="hardAlpha" operator="arithmetic" k2="-1" k3="1"/>
<feColorMatrix type="matrix" values="0 0 0 0 1 0 0 0 0 1 0 0 0 0 1 0 0 0 0.12 0"/>
<feBlend mode="normal" in2="effect1_innerShadow_29052_60261" result="effect2_innerShadow_29052_60261"/>
</filter>
<linearGradient id="paint0_linear_29052_60261" x1="50.1939" y1="40.3626" x2="27.5641" y2="40.6448" gradientUnits="userSpaceOnUse">
<stop stop-color="#2EC4B6"/>
<stop offset="1" stop-color="#1B4C33"/>
</linearGradient>
<linearGradient id="paint1_linear_29052_60261" x1="27.5818" y1="23.1151" x2="18.7222" y2="23.2255" gradientUnits="userSpaceOnUse">
<stop stop-color="#2EC4B6"/>
<stop offset="1" stop-color="#1B4C33"/>
</linearGradient>
<linearGradient id="paint2_linear_29052_60261" x1="36.574" y1="31.2425" x2="25.4768" y2="31.3808" gradientUnits="userSpaceOnUse">
<stop stop-color="#2EC4B6"/>
<stop offset="1" stop-color="#1B4C33"/>
</linearGradient>
</defs>
</svg>
