<svg width="92" height="92" viewBox="0 0 92 92" fill="none" xmlns="http://www.w3.org/2000/svg">
<rect x="1" y="1" width="90" height="90" rx="13" stroke="url(#paint0_linear_29028_66064)" stroke-width="2"/>
<g clip-path="url(#clip0_29028_66064)">
<mask id="mask0_29028_66064" style="mask-type:luminance" maskUnits="userSpaceOnUse" x="22" y="22" width="48" height="48">
<path d="M70 22H22V70H70V22Z" fill="white"/>
</mask>
<g mask="url(#mask0_29028_66064)">
<mask id="mask1_29028_66064" style="mask-type:luminance" maskUnits="userSpaceOnUse" x="22" y="22" width="48" height="48">
<path d="M22 22H70V70H22V22Z" fill="white"/>
</mask>
<g mask="url(#mask1_29028_66064)">
<path d="M64.9549 35.0657C64.9312 34.5462 64.9179 34.0368 64.9104 33.5334C64.882 31.6138 63.3719 30.0474 61.4552 29.9403C55.5931 29.6128 51.0085 27.6629 47.1361 23.8885C46.4881 23.2945 45.5162 23.2945 44.8682 23.8885C40.9957 27.6629 36.4112 29.6128 30.5491 29.9403C28.6324 30.0474 27.1222 31.6138 27.0937 33.5333C27.0863 34.0368 27.073 34.5462 27.0494 35.0657C26.834 46.3779 26.511 61.8815 45.3265 68.4424C45.4164 68.4738 45.509 68.4988 45.6023 68.5175L45.6033 68.5177C45.8666 68.5703 46.1376 68.5703 46.401 68.5177C46.4949 68.4989 46.5881 68.4736 46.6786 68.442C65.4395 61.8811 65.1703 46.4315 64.9549 35.0657Z" stroke="#2F53AD" stroke-width="2" stroke-miterlimit="10"/>
<path d="M56.5374 46C56.5374 51.8202 51.8193 56.5383 45.9992 56.5383C40.1791 56.5383 35.4609 51.8202 35.4609 46C35.4609 40.1798 40.1791 35.4616 45.9992 35.4616C51.8193 35.4616 56.5374 40.1798 56.5374 46Z" stroke="#2F53AD" stroke-width="2" stroke-miterlimit="10"/>
<path d="M50.4252 43.2858L43.8828 49.8281" stroke="#2F53AD" stroke-width="2" stroke-miterlimit="10" stroke-linecap="round"/>
<path d="M41.3828 47.328L43.8829 49.8281" stroke="#2F53AD" stroke-width="2" stroke-miterlimit="10" stroke-linecap="round"/>
</g>
</g>
</g>
<defs>
<linearGradient id="paint0_linear_29028_66064" x1="4" y1="4" x2="88" y2="88" gradientUnits="userSpaceOnUse">
<stop stop-color="#2F53AD"/>
<stop offset="0.25" stop-color="#2F53AD" stop-opacity="0"/>
<stop offset="0.496769" stop-color="#2F53AD" stop-opacity="0"/>
<stop offset="0.75" stop-color="#2F53AD" stop-opacity="0"/>
<stop offset="1" stop-color="#2F53AD"/>
</linearGradient>
<clipPath id="clip0_29028_66064">
<rect width="48" height="48" fill="white" transform="translate(22 22)"/>
</clipPath>
</defs>
</svg>
