<svg width="73" height="73" viewBox="0 0 73 73" fill="none" xmlns="http://www.w3.org/2000/svg">
<g filter="url(#filter0_ii_29052_60452)">
<rect y="73" width="73" height="73" rx="12" transform="rotate(-90 0 73)" fill="black"/>
<path d="M56.25 37C56.25 40.8073 55.121 44.5291 53.0058 47.6947C50.8906 50.8604 47.8841 53.3277 44.3667 54.7847C40.8492 56.2417 36.9786 56.6229 33.2445 55.8801C29.5104 55.1373 26.0804 53.304 23.3882 50.6118C20.696 47.9196 18.8626 44.4896 18.1199 40.7555C17.3771 37.0213 17.7583 33.1508 19.2153 29.6333C20.6723 26.1159 23.1396 23.1094 26.3053 20.9942C29.4709 18.879 33.1927 17.75 37 17.75C42.1037 17.7555 46.9969 19.7853 50.6058 23.3942C54.2147 27.0031 56.2445 31.8962 56.25 37ZM20.5 37C20.5 38.7229 24.0379 40.9586 30.125 41.9651V32.0335C24.0379 33.0414 20.5 35.2771 20.5 37ZM32.875 42.3089C34.1689 42.4285 35.5384 42.5 37 42.5C38.4616 42.5 39.8311 42.4285 41.125 42.3089V31.6911C39.8311 31.5715 38.4616 31.5 37 31.5C35.5384 31.5 34.1689 31.5715 32.875 31.6911V42.3089ZM37 53.5C38.3925 53.4948 39.7786 53.3123 41.125 52.9569V45.0561C39.7582 45.1799 38.375 45.25 37 45.25C35.625 45.25 34.2418 45.1799 32.875 45.0561V52.9569C34.2214 53.3123 35.6075 53.4948 37 53.5ZM53.5 37C53.5 35.2771 49.9621 33.0414 43.875 32.0335V41.9651C49.9621 40.9586 53.5 38.7229 53.5 37ZM41.125 28.9439V21.0431C38.4227 20.319 35.5773 20.319 32.875 21.0431V28.9439C34.2418 28.8201 35.625 28.75 37 28.75C38.375 28.75 39.7582 28.8201 41.125 28.9439ZM43.875 22.0125V29.2752C46.9876 29.6748 50.0006 30.6418 52.7644 32.1284C52.0735 29.9138 50.9253 27.869 49.394 26.1264C47.8627 24.3838 45.9824 22.9822 43.875 22.0125ZM52.7644 41.8716C50.0006 43.3582 46.9876 44.3252 43.875 44.7247V51.9806C45.9817 51.0116 47.8615 49.6111 49.3928 47.8698C50.9241 46.1284 52.0727 44.0849 52.7644 41.8716ZM30.125 51.9806V44.7247C27.0124 44.3252 23.9994 43.3582 21.2356 41.8716C21.9273 44.0849 23.0759 46.1284 24.6072 47.8698C26.1385 49.6111 28.0183 51.0116 30.125 51.9806ZM21.2356 32.1284C23.9994 30.6418 27.0124 29.6748 30.125 29.2752V22.0125C28.0176 22.9822 26.1373 24.3838 24.606 26.1264C23.0747 27.869 21.9265 29.9138 21.2356 32.1284Z" fill="url(#paint0_linear_29052_60452)" fill-opacity="0.75"/>
</g>
<defs>
<filter id="filter0_ii_29052_60452" x="-3" y="-2" width="79" height="77" filterUnits="userSpaceOnUse" color-interpolation-filters="sRGB">
<feFlood flood-opacity="0" result="BackgroundImageFix"/>
<feBlend mode="normal" in="SourceGraphic" in2="BackgroundImageFix" result="shape"/>
<feColorMatrix in="SourceAlpha" type="matrix" values="0 0 0 0 0 0 0 0 0 0 0 0 0 0 0 0 0 0 127 0" result="hardAlpha"/>
<feOffset dx="-3" dy="-2"/>
<feGaussianBlur stdDeviation="16"/>
<feComposite in2="hardAlpha" operator="arithmetic" k2="-1" k3="1"/>
<feColorMatrix type="matrix" values="0 0 0 0 1 0 0 0 0 1 0 0 0 0 1 0 0 0 0.12 0"/>
<feBlend mode="normal" in2="shape" result="effect1_innerShadow_29052_60452"/>
<feColorMatrix in="SourceAlpha" type="matrix" values="0 0 0 0 0 0 0 0 0 0 0 0 0 0 0 0 0 0 127 0" result="hardAlpha"/>
<feOffset dx="3" dy="2"/>
<feGaussianBlur stdDeviation="16"/>
<feComposite in2="hardAlpha" operator="arithmetic" k2="-1" k3="1"/>
<feColorMatrix type="matrix" values="0 0 0 0 1 0 0 0 0 1 0 0 0 0 1 0 0 0 0.12 0"/>
<feBlend mode="normal" in2="effect1_innerShadow_29052_60452" result="effect2_innerShadow_29052_60452"/>
</filter>
<linearGradient id="paint0_linear_29052_60452" x1="37" y1="17.75" x2="37" y2="56.25" gradientUnits="userSpaceOnUse">
<stop stop-color="#FFFF00"/>
<stop offset="1" stop-color="#FFA500"/>
</linearGradient>
</defs>
</svg>
