<svg width="43" height="43" viewBox="0 0 43 43" fill="none" xmlns="http://www.w3.org/2000/svg">
<g filter="url(#filter0_ii_3597_79510)">
<rect width="42.544" height="42.544" rx="6.99353" fill="black"/>
<path d="M20.8282 32.6367C18.6093 32.6367 16.4403 31.9787 14.5953 30.746C12.7504 29.5133 11.3125 27.7611 10.4634 25.7112C9.61424 23.6612 9.39207 21.4055 9.82495 19.2293C10.2578 17.053 11.3263 15.054 12.8953 13.485C14.4643 11.9161 16.4633 10.8476 18.6395 10.4147C20.8157 9.98182 23.0715 10.204 25.1214 11.0531C27.1714 11.9022 28.9235 13.3402 30.1563 15.1851C31.389 17.03 32.047 19.1991 32.047 21.4179C32.0438 24.3924 30.8608 27.2441 28.7575 29.3473C26.6543 31.4505 23.8026 32.6335 20.8282 32.6367ZM20.8282 11.8018C19.8241 11.8018 18.5211 13.8637 17.9345 17.4112H23.7226C23.1352 13.8637 21.8323 11.8018 20.8282 11.8018ZM17.7342 19.0139C17.6645 19.768 17.6228 20.5661 17.6228 21.4179C17.6228 22.2698 17.6645 23.0679 17.7342 23.822H23.9222C23.9919 23.0679 24.0335 22.2698 24.0335 21.4179C24.0335 20.5661 23.9919 19.768 23.9222 19.0139H17.7342ZM11.2121 21.4179C11.2151 22.2295 11.3214 23.0373 11.5286 23.822H16.1331C16.061 23.0254 16.0201 22.2193 16.0201 21.4179C16.0201 20.6166 16.061 19.8104 16.1331 19.0139H11.5286C11.3214 19.7986 11.2151 20.6064 11.2121 21.4179ZM20.8282 31.034C21.8323 31.034 23.1352 28.9722 23.7226 25.4246H17.9345C18.5211 28.9722 19.8241 31.034 20.8282 31.034ZM25.5232 23.822H30.1277C30.5498 22.2471 30.5498 20.5888 30.1277 19.0139H25.5232C25.5954 19.8104 25.6362 20.6166 25.6362 21.4179C25.6362 22.2193 25.5954 23.0254 25.5232 23.822ZM29.5628 25.4246H25.3301C25.0973 27.2387 24.5337 28.9946 23.6673 30.6053C24.958 30.2027 26.1497 29.5335 27.1652 28.6411C28.1808 27.7486 28.9976 26.6528 29.5628 25.4246ZM17.989 30.6053C17.1227 28.9946 16.5591 27.2387 16.3262 25.4246H12.0975C12.6623 26.6524 13.4785 27.748 14.4933 28.6404C15.5082 29.5328 16.6991 30.2022 17.989 30.6053ZM12.0975 17.4112H16.3262C16.5591 15.5972 17.1227 13.8412 17.989 12.2305C16.6991 12.6336 15.5082 13.3031 14.4933 14.1955C13.4785 15.0879 12.6623 16.1834 12.0975 17.4112ZM23.6673 12.2305C24.5337 13.8412 25.0973 15.5972 25.3301 17.4112H29.5628C28.9976 16.183 28.1808 15.0872 27.1652 14.1948C26.1497 13.3023 24.958 12.6332 23.6673 12.2305Z" fill="#FF6000"/>
</g>
<defs>
<filter id="filter0_ii_3597_79510" x="-1.74838" y="-1.16559" width="46.0436" height="44.8751" filterUnits="userSpaceOnUse" color-interpolation-filters="sRGB">
<feFlood flood-opacity="0" result="BackgroundImageFix"/>
<feBlend mode="normal" in="SourceGraphic" in2="BackgroundImageFix" result="shape"/>
<feColorMatrix in="SourceAlpha" type="matrix" values="0 0 0 0 0 0 0 0 0 0 0 0 0 0 0 0 0 0 127 0" result="hardAlpha"/>
<feOffset dx="-1.74838" dy="-1.16559"/>
<feGaussianBlur stdDeviation="6.99353"/>
<feComposite in2="hardAlpha" operator="arithmetic" k2="-1" k3="1"/>
<feColorMatrix type="matrix" values="0 0 0 0 1 0 0 0 0 0.376471 0 0 0 0 0 0 0 0 0.25 0"/>
<feBlend mode="normal" in2="shape" result="effect1_innerShadow_3597_79510"/>
<feColorMatrix in="SourceAlpha" type="matrix" values="0 0 0 0 0 0 0 0 0 0 0 0 0 0 0 0 0 0 127 0" result="hardAlpha"/>
<feOffset dx="1.74838" dy="1.16559"/>
<feGaussianBlur stdDeviation="6.99353"/>
<feComposite in2="hardAlpha" operator="arithmetic" k2="-1" k3="1"/>
<feColorMatrix type="matrix" values="0 0 0 0 1 0 0 0 0 0.376471 0 0 0 0 0 0 0 0 0.25 0"/>
<feBlend mode="normal" in2="effect1_innerShadow_3597_79510" result="effect2_innerShadow_3597_79510"/>
</filter>
</defs>
</svg>
